<?xml version="1.0" encoding="UTF-8"?>
<!DOCTYPE svg PUBLIC "-//W3C//DTD SVG 1.1//EN" "http://www.w3.org/Graphics/SVG/1.1/DTD/svg11.dtd">
<svg version="1.1" xmlns="http://www.w3.org/2000/svg" xmlns:xlink="http://www.w3.org/1999/xlink" x="0" y="0" viewBox="0, 0, 1464.577, 750.029">
  <defs>
    <clipPath id="Clip_1">
      <path d="M2.835,1.17 L1462.742,1.17 L1462.742,749.859 L2.835,749.859 z M1455.082,12.16 L1453.417,12.16 L66.21,12.16 C35.495,12.16 10.495,33.369 10.495,59.68 L10.495,738.869 L12.16,738.869 L1453.417,738.869 L1455.082,738.869 L1455.082,12.16 z"/>
    </clipPath>
    <filter id="Shadow_2">
      <feGaussianBlur in="SourceAlpha" stdDeviation="3.33"/>
      <feOffset dx="0" dy="3.33" result="offsetblur"/>
      <feFlood flood-color="#0E0C0C"/>
      <feComposite in2="offsetblur" operator="in"/>
    </filter>
  </defs>
  <g id="Layer_1">
    <g>
      <path d="M1455.082,12.16 L1455.082,738.869 L1453.417,738.869 L12.16,738.869 L10.495,738.869 L10.495,59.68 C10.495,33.369 35.495,12.16 66.21,12.16 L1453.417,12.16 L1455.082,12.16 z" clip-path="url(#Clip_1)" filter="url(#Shadow_2)" fill="rgba(0,0,0,0.75)"/>
      <path d="M1453.417,13.825 L1453.417,737.204 L12.16,737.204 L12.16,59.68 C12.16,34.355 36.359,13.825 66.21,13.825 L1453.417,13.825 z" fill="#263535"/>
      <path d="M1453.417,13.825 L1453.417,737.204 L12.16,737.204 L12.16,59.68 C12.16,34.355 36.359,13.825 66.21,13.825 L1453.417,13.825 z" fill-opacity="0" stroke="#B0B1B0" stroke-width="3.33"/>
    </g>
    <path d="M140.644,237.155 L1452.917,237.155 L1452.917,333.07 L140.644,333.07 L140.644,237.155 z" fill="#FFFFFD" opacity="0.1"/>
    <g>
      <path d="M165.216,204.925 Q166.417,204.925 167.047,205.452 Q167.677,205.98 167.677,207.005 Q167.677,208.06 167.076,208.587 Q166.476,209.115 165.333,209.115 L146.173,209.115 Q144.972,209.115 144.342,208.587 Q143.712,208.06 143.712,207.005 Q143.712,205.98 144.313,205.452 Q144.913,204.925 146.056,204.925 L151.036,204.925 L151.036,187.025 L146.232,187.025 Q145.03,187.025 144.371,186.468 Q143.712,185.911 143.712,184.886 Q143.712,183.831 144.327,183.304 Q144.942,182.777 146.114,182.777 L150.743,182.777 L150.743,180.784 Q150.743,175.482 153.761,173.094 Q156.778,170.706 163.517,170.706 Q166.798,170.706 168.365,171.439 Q169.933,172.171 169.933,173.724 Q169.933,174.632 169.259,175.218 Q168.585,175.804 167.53,175.804 Q167.003,175.804 164.996,175.452 Q162.989,175.101 161.554,175.101 Q158.243,175.101 156.808,176.492 Q155.372,177.884 155.372,181.107 L155.372,182.777 L165.743,182.777 Q166.944,182.777 167.574,183.304 Q168.204,183.831 168.204,184.886 Q168.204,185.882 167.56,186.453 Q166.915,187.025 165.802,187.025 L155.665,187.025 L155.665,204.925 z" fill="#DA5976"/>
      <path d="M192.198,205.745 Q196.71,205.745 199.596,202.889 Q202.482,200.033 202.482,195.609 Q202.482,191.185 199.581,188.299 Q196.681,185.413 192.198,185.413 Q187.716,185.413 184.83,188.299 Q181.944,191.185 181.944,195.609 Q181.944,200.062 184.815,202.904 Q187.687,205.745 192.198,205.745 z M207.579,195.609 Q207.579,201.878 203.302,205.863 Q199.024,209.847 192.198,209.847 Q185.401,209.847 181.124,205.863 Q176.847,201.878 176.847,195.609 Q176.847,189.339 181.124,185.369 Q185.401,181.4 192.198,181.4 Q198.995,181.4 203.287,185.384 Q207.579,189.368 207.579,195.609 z" fill="#DA5976"/>
      <path d="M225.333,204.984 L235.06,204.984 Q236.202,204.984 236.744,205.467 Q237.286,205.95 237.286,207.005 Q237.286,208.206 236.773,208.66 Q236.261,209.115 234.884,209.115 L215.724,209.115 Q214.581,209.115 213.995,208.587 Q213.409,208.06 213.409,207.005 Q213.409,205.98 214.01,205.482 Q214.61,204.984 215.87,204.984 L220.968,204.984 L220.968,186.204 L218.976,186.204 Q216.134,186.204 215.431,185.75 Q214.728,185.296 214.728,184.095 Q214.728,183.07 215.299,182.557 Q215.87,182.044 217.042,182.044 L223.722,182.044 Q224.513,182.044 224.923,182.352 Q225.333,182.659 225.333,183.245 L225.333,188.226 Q228.116,184.74 231.134,183.04 Q234.151,181.341 237.638,181.341 Q240.245,181.341 241.857,182.396 Q243.468,183.45 243.468,185.12 Q243.468,186.204 242.662,187.039 Q241.857,187.874 240.89,187.874 Q240.216,187.874 238.619,186.981 Q237.023,186.087 235.763,186.087 Q233.478,186.087 230.943,187.713 Q228.409,189.339 225.333,192.855 z" fill="#DA5976"/>
      <path d="M297.521,173.607 Q297.521,170.443 298.092,169.622 Q298.663,168.802 300.538,168.802 Q302.355,168.802 302.94,169.491 Q303.526,170.179 303.526,172.757 Q303.526,175.277 302.984,175.877 Q302.442,176.478 300.538,176.478 Q298.663,176.478 298.092,175.921 Q297.521,175.365 297.521,173.607 z M302.94,204.984 L312.345,204.984 Q313.487,204.984 314.029,205.467 Q314.571,205.95 314.571,207.005 Q314.571,208.206 314.059,208.66 Q313.546,209.115 312.169,209.115 L289.435,209.115 Q288.263,209.115 287.677,208.587 Q287.091,208.06 287.091,207.005 Q287.091,205.98 287.706,205.482 Q288.321,204.984 289.552,204.984 L298.487,204.984 L298.487,186.204 L292.774,186.204 Q291.573,186.204 290.943,185.662 Q290.314,185.12 290.314,184.095 Q290.314,183.07 290.899,182.557 Q291.485,182.044 292.657,182.044 L301.241,182.044 Q302.032,182.044 302.486,182.367 Q302.94,182.689 302.94,183.245 z" fill="#E6E7E4"/>
      <path d="M369.532,173.607 Q369.532,170.443 370.104,169.622 Q370.675,168.802 372.55,168.802 Q374.366,168.802 374.952,169.491 Q375.538,170.179 375.538,172.757 Q375.538,175.277 374.996,175.877 Q374.454,176.478 372.55,176.478 Q370.675,176.478 370.104,175.921 Q369.532,175.365 369.532,173.607 z M374.952,204.984 L384.356,204.984 Q385.499,204.984 386.041,205.467 Q386.583,205.95 386.583,207.005 Q386.583,208.206 386.07,208.66 Q385.558,209.115 384.181,209.115 L361.446,209.115 Q360.274,209.115 359.689,208.587 Q359.103,208.06 359.103,207.005 Q359.103,205.98 359.718,205.482 Q360.333,204.984 361.564,204.984 L370.499,204.984 L370.499,186.204 L364.786,186.204 Q363.585,186.204 362.955,185.662 Q362.325,185.12 362.325,184.095 Q362.325,183.07 362.911,182.557 Q363.497,182.044 364.669,182.044 L373.253,182.044 Q374.044,182.044 374.498,182.367 Q374.952,182.689 374.952,183.245 z" fill="#DA5976"/>
      <path d="M397.335,204.984 L397.335,186.204 L396.778,186.204 Q394.786,186.204 394.039,185.736 Q393.292,185.267 393.292,184.095 Q393.292,183.011 393.907,182.528 Q394.522,182.044 395.899,182.044 L397.276,182.044 L400.089,182.044 Q400.88,182.044 401.319,182.367 Q401.759,182.689 401.759,183.245 L401.759,185.238 Q403.897,183.245 405.992,182.293 Q408.087,181.341 410.343,181.341 Q414.767,181.341 417.301,184.095 Q419.835,186.849 419.835,191.712 L419.835,204.984 L421.212,204.984 Q422.677,204.984 423.321,205.467 Q423.966,205.95 423.966,207.005 Q423.966,208.148 423.277,208.631 Q422.589,209.115 420.831,209.115 L414.356,209.115 Q412.481,209.115 411.954,208.675 Q411.427,208.236 411.427,207.005 Q411.427,205.863 412.042,205.423 Q412.657,204.984 414.356,204.984 L415.382,204.984 L415.382,192.796 Q415.382,189.368 413.829,187.567 Q412.276,185.765 409.317,185.765 Q406.329,185.765 404.044,187.786 Q401.759,189.808 401.759,192.796 L401.759,204.984 L402.784,204.984 Q404.542,204.984 405.157,205.423 Q405.772,205.863 405.772,207.005 Q405.772,208.236 405.245,208.675 Q404.718,209.115 402.667,209.115 L397.335,209.115 L395.753,209.115 Q394.552,209.115 393.951,208.602 Q393.351,208.089 393.351,207.005 Q393.351,205.833 394.039,205.408 Q394.728,204.984 396.72,204.984 z" fill="#DA5976"/>
      <path d="M477.374,204.984 L487.101,204.984 Q488.243,204.984 488.785,205.467 Q489.327,205.95 489.327,207.005 Q489.327,208.206 488.814,208.66 Q488.302,209.115 486.925,209.115 L467.765,209.115 Q466.622,209.115 466.036,208.587 Q465.45,208.06 465.45,207.005 Q465.45,205.98 466.051,205.482 Q466.651,204.984 467.911,204.984 L473.009,204.984 L473.009,186.204 L471.017,186.204 Q468.175,186.204 467.472,185.75 Q466.769,185.296 466.769,184.095 Q466.769,183.07 467.34,182.557 Q467.911,182.044 469.083,182.044 L475.763,182.044 Q476.554,182.044 476.964,182.352 Q477.374,182.659 477.374,183.245 L477.374,188.226 Q480.157,184.74 483.175,183.04 Q486.192,181.341 489.679,181.341 Q492.286,181.341 493.897,182.396 Q495.509,183.45 495.509,185.12 Q495.509,186.204 494.703,187.039 Q493.897,187.874 492.931,187.874 Q492.257,187.874 490.66,186.981 Q489.064,186.087 487.804,186.087 Q485.519,186.087 482.984,187.713 Q480.45,189.339 477.374,192.855 z" fill="#E6E7E4"/>
      <path d="M522.755,196.165 Q521.144,195.638 519.635,195.389 Q518.126,195.14 516.632,195.14 Q512.12,195.14 509.513,196.663 Q506.905,198.187 506.905,200.765 Q506.905,202.757 508.531,204.046 Q510.157,205.335 512.677,205.335 Q516.398,205.335 519.576,203.387 Q522.755,201.439 522.755,199.329 z M522.989,205.394 Q520.587,207.562 517.76,208.704 Q514.933,209.847 511.944,209.847 Q507.579,209.847 504.898,207.415 Q502.218,204.984 502.218,201.087 Q502.218,196.458 505.777,193.909 Q509.337,191.361 515.782,191.361 Q517.482,191.361 519.21,191.58 Q520.939,191.8 522.755,192.269 L522.755,192.064 Q522.755,188.695 521.144,187.083 Q519.532,185.472 516.134,185.472 Q513.849,185.472 511.036,186.702 Q508.224,187.933 507.315,187.933 Q506.466,187.933 505.909,187.244 Q505.353,186.556 505.353,185.472 Q505.353,183.743 508.59,182.542 Q511.827,181.341 516.866,181.341 Q522.023,181.341 524.659,183.963 Q527.296,186.585 527.296,191.712 L527.296,204.984 L528.732,204.984 Q530.812,204.984 531.515,205.423 Q532.218,205.863 532.218,207.005 Q532.218,208.06 531.632,208.587 Q531.046,209.115 529.874,209.115 L525.274,209.115 Q524.454,209.115 523.927,208.617 Q523.399,208.118 523.224,207.181 z" fill="#E6E7E4"/>
      <path d="M541.358,204.984 L541.358,186.204 L540.802,186.204 Q538.81,186.204 538.063,185.736 Q537.315,185.267 537.315,184.095 Q537.315,183.011 537.931,182.528 Q538.546,182.044 539.923,182.044 L541.3,182.044 L544.112,182.044 Q544.903,182.044 545.343,182.367 Q545.782,182.689 545.782,183.245 L545.782,185.238 Q547.921,183.245 550.016,182.293 Q552.11,181.341 554.366,181.341 Q558.79,181.341 561.324,184.095 Q563.858,186.849 563.858,191.712 L563.858,204.984 L565.235,204.984 Q566.7,204.984 567.345,205.467 Q567.989,205.95 567.989,207.005 Q567.989,208.148 567.301,208.631 Q566.612,209.115 564.855,209.115 L558.38,209.115 Q556.505,209.115 555.978,208.675 Q555.45,208.236 555.45,207.005 Q555.45,205.863 556.065,205.423 Q556.681,204.984 558.38,204.984 L559.405,204.984 L559.405,192.796 Q559.405,189.368 557.853,187.567 Q556.3,185.765 553.341,185.765 Q550.353,185.765 548.067,187.786 Q545.782,189.808 545.782,192.796 L545.782,204.984 L546.808,204.984 Q548.565,204.984 549.181,205.423 Q549.796,205.863 549.796,207.005 Q549.796,208.236 549.269,208.675 Q548.741,209.115 546.69,209.115 L541.358,209.115 L539.776,209.115 Q538.575,209.115 537.975,208.602 Q537.374,208.089 537.374,207.005 Q537.374,205.833 538.063,205.408 Q538.751,204.984 540.743,204.984 z" fill="#E6E7E4"/>
      <path d="M587.442,186.38 Q583.605,186.38 581.173,188.753 Q578.741,191.126 578.741,194.906 Q578.741,198.626 581.173,201.014 Q583.605,203.402 587.442,203.402 Q591.251,203.402 593.697,201.014 Q596.144,198.626 596.144,194.906 Q596.144,191.185 593.697,188.783 Q591.251,186.38 587.442,186.38 z M600.157,207.562 Q600.157,211.663 599.747,213.377 Q599.337,215.091 598.341,216.38 Q596.7,218.548 593.741,219.676 Q590.782,220.804 586.769,220.804 Q583.429,220.804 581.891,220.159 Q580.353,219.515 580.353,218.109 Q580.353,217.2 581.1,216.512 Q581.847,215.824 582.872,215.824 Q583.663,215.824 585.304,216.043 Q586.944,216.263 587.794,216.263 Q592.13,216.263 593.946,214.271 Q595.763,212.279 595.763,207.445 L595.763,203.9 Q593.976,205.98 591.808,206.947 Q589.64,207.913 586.827,207.913 Q581.349,207.913 577.76,204.266 Q574.171,200.618 574.171,195.023 Q574.171,189.398 577.862,185.692 Q581.554,181.986 587.003,181.986 Q589.259,181.986 591.412,182.821 Q593.565,183.656 595.763,185.355 L595.763,183.245 Q595.763,182.63 596.158,182.337 Q596.554,182.044 597.403,182.044 L601.827,182.044 Q602.999,182.044 603.585,182.557 Q604.171,183.07 604.171,184.095 Q604.171,185.267 603.439,185.736 Q602.706,186.204 600.685,186.204 L600.157,186.204 z" fill="#E6E7E4"/>
      <path d="M614.366,196.868 Q614.601,201.087 617.223,203.387 Q619.845,205.687 624.386,205.687 Q627.814,205.687 631.857,203.856 Q635.899,202.025 636.749,202.025 Q637.628,202.025 638.214,202.581 Q638.8,203.138 638.8,203.958 Q638.8,204.808 638.185,205.511 Q637.569,206.214 636.222,206.888 Q633.292,208.324 630.172,209.085 Q627.052,209.847 623.976,209.847 Q617.296,209.847 613.282,205.994 Q609.269,202.142 609.269,195.784 Q609.269,189.31 613.517,185.296 Q617.765,181.283 624.591,181.283 Q630.773,181.283 634.845,185.033 Q638.917,188.783 638.917,194.115 Q638.917,195.755 638.229,196.312 Q637.54,196.868 634.493,196.868 L634.054,196.868 z M614.513,193.031 L633.585,193.031 Q633.146,189.544 630.67,187.42 Q628.194,185.296 624.591,185.296 Q620.694,185.296 618.028,187.347 Q615.362,189.398 614.513,193.031 z" fill="#E6E7E4"/>
      <path d="M666.222,174.661 Q666.222,175.277 665.24,177.313 Q664.259,179.349 663.761,180.55 Q661.769,185.208 660.934,189.075 Q660.099,192.943 660.099,197.103 Q660.099,200.941 660.802,204.53 Q661.505,208.118 662.94,211.693 Q663.673,213.626 664.947,216.248 Q666.222,218.87 666.222,219.486 Q666.222,220.13 665.943,220.496 Q665.665,220.863 665.196,220.863 Q664.288,220.863 663.175,219.91 Q662.062,218.958 660.597,216.849 Q657.462,212.367 655.909,207.445 Q654.357,202.523 654.357,197.103 Q654.357,192.152 655.631,187.655 Q656.905,183.158 659.513,178.939 Q661.212,176.156 662.648,174.749 Q664.083,173.343 665.196,173.343 Q665.665,173.343 665.943,173.709 Q666.222,174.075 666.222,174.661 z" fill="#E6E7E4"/>
      <path d="M689.689,186.204 Q691.622,185.501 693.263,185.164 Q694.903,184.827 696.398,184.827 Q701.524,184.827 704.938,188.387 Q708.351,191.947 708.351,197.22 Q708.351,202.816 704.571,206.449 Q700.792,210.081 694.903,210.081 Q689.982,210.081 686.656,208.748 Q683.331,207.415 683.331,205.511 Q683.331,204.749 683.946,204.149 Q684.562,203.548 685.382,203.548 Q685.704,203.548 688.824,204.676 Q691.944,205.804 694.61,205.804 Q698.536,205.804 700.982,203.446 Q703.429,201.087 703.429,197.367 Q703.429,193.734 701.114,191.317 Q698.8,188.9 695.284,188.9 Q692.648,188.9 690.113,190.218 Q687.579,191.536 687.052,191.536 Q686.173,191.536 685.807,190.892 Q685.44,190.247 685.44,188.548 L685.44,173.958 Q685.44,172.992 686.041,172.567 Q686.642,172.142 688.136,172.142 L702.96,172.142 Q704.366,172.142 705.069,172.713 Q705.773,173.284 705.773,174.427 Q705.773,175.511 705.04,176.112 Q704.308,176.712 702.96,176.712 L689.689,176.712 z" fill="#E89959"/>
      <path d="M726.31,219.486 Q726.31,218.9 727.306,216.893 Q728.302,214.886 728.829,213.685 Q730.792,208.997 731.642,205.116 Q732.491,201.234 732.491,197.103 Q732.491,193.353 731.773,189.735 Q731.056,186.117 729.591,182.484 Q728.829,180.55 727.569,177.928 Q726.31,175.306 726.31,174.661 Q726.31,174.075 726.603,173.709 Q726.896,173.343 727.364,173.343 Q728.331,173.343 729.43,174.295 Q730.528,175.247 731.993,177.327 Q735.128,181.781 736.681,186.732 Q738.233,191.683 738.233,197.103 Q738.233,202.054 736.93,206.566 Q735.626,211.077 733.019,215.296 Q731.202,218.167 729.84,219.515 Q728.478,220.863 727.364,220.863 Q726.896,220.863 726.603,220.482 Q726.31,220.101 726.31,219.486 z" fill="#E6E7E4"/>
      <path d="M762.55,188.109 Q762.55,185.824 764.147,184.359 Q765.743,182.894 768.292,182.894 Q770.899,182.894 772.482,184.329 Q774.064,185.765 774.064,188.109 Q774.064,190.452 772.467,191.888 Q770.87,193.324 768.292,193.324 Q765.714,193.324 764.132,191.888 Q762.55,190.452 762.55,188.109 z M762.55,204.31 Q762.55,202.025 764.147,200.56 Q765.743,199.095 768.292,199.095 Q770.899,199.095 772.482,200.531 Q774.064,201.966 774.064,204.31 Q774.064,206.654 772.467,208.089 Q770.87,209.525 768.292,209.525 Q765.714,209.525 764.132,208.089 Q762.55,206.654 762.55,204.31 z" fill="#E6E7E4"/>
      <path d="M301.798,298.642 Q305.929,298.642 308.507,296.035 Q311.085,293.427 311.085,289.267 Q311.085,285.195 308.463,282.558 Q305.841,279.922 301.798,279.922 Q297.726,279.922 295.133,282.544 Q292.54,285.166 292.54,289.267 Q292.54,293.369 295.133,296.006 Q297.726,298.642 301.798,298.642 z M292.657,279.863 Q294.298,277.812 296.759,276.728 Q299.22,275.644 302.325,275.644 Q308.214,275.644 312.14,279.614 Q316.065,283.584 316.065,289.443 Q316.065,295.215 312.037,299.228 Q308.009,303.242 302.208,303.242 Q299.132,303.242 296.847,302.158 Q294.562,301.074 293.097,298.877 L293.097,301.22 Q293.097,302.011 292.818,302.363 Q292.54,302.715 291.896,302.715 L286.534,302.715 Q285.392,302.715 284.835,302.187 Q284.278,301.66 284.278,300.605 Q284.278,299.433 284.952,299.009 Q285.626,298.584 287.618,298.584 L288.233,298.584 L288.233,268.584 L287.677,268.584 Q285.685,268.584 284.952,268.115 Q284.22,267.646 284.22,266.474 Q284.22,265.42 284.806,264.892 Q285.392,264.365 286.534,264.365 L290.987,264.365 Q291.866,264.365 292.262,264.658 Q292.657,264.951 292.657,265.566 z" fill="#E6E7E4"/>
      <path d="M342.726,289.765 Q341.114,289.238 339.605,288.989 Q338.097,288.74 336.603,288.74 Q332.091,288.74 329.483,290.263 Q326.876,291.787 326.876,294.365 Q326.876,296.357 328.502,297.646 Q330.128,298.935 332.647,298.935 Q336.368,298.935 339.547,296.987 Q342.726,295.039 342.726,292.929 z M342.96,298.994 Q340.558,301.162 337.73,302.304 Q334.903,303.447 331.915,303.447 Q327.55,303.447 324.869,301.015 Q322.189,298.584 322.189,294.687 Q322.189,290.058 325.748,287.509 Q329.308,284.961 335.753,284.961 Q337.452,284.961 339.181,285.18 Q340.909,285.4 342.726,285.869 L342.726,285.664 Q342.726,282.295 341.114,280.683 Q339.503,279.072 336.105,279.072 Q333.819,279.072 331.007,280.302 Q328.194,281.533 327.286,281.533 Q326.437,281.533 325.88,280.844 Q325.323,280.156 325.323,279.072 Q325.323,277.343 328.561,276.142 Q331.798,274.941 336.837,274.941 Q341.993,274.941 344.63,277.563 Q347.267,280.185 347.267,285.312 L347.267,298.584 L348.702,298.584 Q350.782,298.584 351.485,299.023 Q352.189,299.463 352.189,300.605 Q352.189,301.66 351.603,302.187 Q351.017,302.715 349.845,302.715 L345.245,302.715 Q344.425,302.715 343.897,302.217 Q343.37,301.718 343.194,300.781 z" fill="#E6E7E4"/>
      <path d="M380.226,277.285 Q381.661,277.285 382.32,277.783 Q382.98,278.281 382.98,279.365 Q382.98,280.39 382.364,280.903 Q381.749,281.416 380.519,281.416 L368.653,281.416 L368.653,291.201 Q368.653,296.006 369.898,297.529 Q371.144,299.052 374.161,299.052 Q376.827,299.052 380.548,297.5 Q384.269,295.947 385.147,295.947 Q385.968,295.947 386.539,296.533 Q387.11,297.119 387.11,297.968 Q387.11,298.935 386.393,299.653 Q385.675,300.371 383.946,301.045 Q381.075,302.187 378.775,302.715 Q376.476,303.242 374.454,303.242 Q371.026,303.242 368.697,302.143 Q366.368,301.045 365.226,298.877 Q364.64,297.851 364.391,296.445 Q364.142,295.039 364.142,292.109 L364.142,291.201 L364.142,281.416 L359.161,281.416 Q357.931,281.416 357.374,280.932 Q356.817,280.449 356.817,279.365 Q356.817,278.164 357.579,277.724 Q358.341,277.285 360.831,277.285 L364.142,277.285 L364.142,271.279 L364.142,269.726 Q364.142,268.467 364.684,267.866 Q365.226,267.265 366.368,267.265 Q367.657,267.265 368.155,267.998 Q368.653,268.73 368.653,271.338 L368.653,277.285 z" fill="#E6E7E4"/>
      <path d="M416.231,277.285 Q417.667,277.285 418.326,277.783 Q418.985,278.281 418.985,279.365 Q418.985,280.39 418.37,280.903 Q417.755,281.416 416.524,281.416 L404.659,281.416 L404.659,291.201 Q404.659,296.006 405.904,297.529 Q407.149,299.052 410.167,299.052 Q412.833,299.052 416.554,297.5 Q420.274,295.947 421.153,295.947 Q421.974,295.947 422.545,296.533 Q423.116,297.119 423.116,297.968 Q423.116,298.935 422.398,299.653 Q421.681,300.371 419.952,301.045 Q417.081,302.187 414.781,302.715 Q412.481,303.242 410.46,303.242 Q407.032,303.242 404.703,302.143 Q402.374,301.045 401.231,298.877 Q400.646,297.851 400.397,296.445 Q400.147,295.039 400.147,292.109 L400.147,291.201 L400.147,281.416 L395.167,281.416 Q393.937,281.416 393.38,280.932 Q392.823,280.449 392.823,279.365 Q392.823,278.164 393.585,277.724 Q394.347,277.285 396.837,277.285 L400.147,277.285 L400.147,271.279 L400.147,269.726 Q400.147,268.467 400.689,267.866 Q401.231,267.265 402.374,267.265 Q403.663,267.265 404.161,267.998 Q404.659,268.73 404.659,271.338 L404.659,277.285 z" fill="#E6E7E4"/>
      <path d="M434.337,290.468 Q434.571,294.687 437.193,296.987 Q439.815,299.287 444.356,299.287 Q447.784,299.287 451.827,297.456 Q455.87,295.625 456.72,295.625 Q457.599,295.625 458.185,296.181 Q458.771,296.738 458.771,297.558 Q458.771,298.408 458.155,299.111 Q457.54,299.814 456.192,300.488 Q453.263,301.924 450.143,302.685 Q447.022,303.447 443.946,303.447 Q437.267,303.447 433.253,299.594 Q429.239,295.742 429.239,289.384 Q429.239,282.91 433.487,278.896 Q437.735,274.883 444.562,274.883 Q450.743,274.883 454.815,278.633 Q458.888,282.383 458.888,287.715 Q458.888,289.355 458.199,289.912 Q457.511,290.468 454.464,290.468 L454.024,290.468 z M434.483,286.631 L453.556,286.631 Q453.116,283.144 450.641,281.02 Q448.165,278.896 444.562,278.896 Q440.665,278.896 437.999,280.947 Q435.333,282.998 434.483,286.631 z" fill="#E6E7E4"/>
      <path d="M477.374,298.584 L487.101,298.584 Q488.243,298.584 488.785,299.067 Q489.327,299.551 489.327,300.605 Q489.327,301.806 488.814,302.26 Q488.302,302.715 486.925,302.715 L467.765,302.715 Q466.622,302.715 466.036,302.187 Q465.45,301.66 465.45,300.605 Q465.45,299.58 466.051,299.082 Q466.651,298.584 467.911,298.584 L473.009,298.584 L473.009,279.804 L471.017,279.804 Q468.175,279.804 467.472,279.35 Q466.769,278.896 466.769,277.695 Q466.769,276.67 467.34,276.157 Q467.911,275.644 469.083,275.644 L475.763,275.644 Q476.554,275.644 476.964,275.952 Q477.374,276.259 477.374,276.845 L477.374,281.826 Q480.157,278.34 483.175,276.64 Q486.192,274.941 489.679,274.941 Q492.286,274.941 493.897,275.996 Q495.509,277.051 495.509,278.72 Q495.509,279.804 494.703,280.639 Q493.897,281.474 492.931,281.474 Q492.257,281.474 490.66,280.581 Q489.064,279.687 487.804,279.687 Q485.519,279.687 482.984,281.313 Q480.45,282.939 477.374,286.455 z" fill="#E6E7E4"/>
      <path d="M513.556,267.207 Q513.556,264.043 514.127,263.222 Q514.698,262.402 516.573,262.402 Q518.39,262.402 518.976,263.091 Q519.562,263.779 519.562,266.357 Q519.562,268.877 519.02,269.477 Q518.478,270.078 516.573,270.078 Q514.698,270.078 514.127,269.521 Q513.556,268.965 513.556,267.207 z M518.976,298.584 L528.38,298.584 Q529.523,298.584 530.065,299.067 Q530.607,299.551 530.607,300.605 Q530.607,301.806 530.094,302.26 Q529.581,302.715 528.204,302.715 L505.47,302.715 Q504.298,302.715 503.712,302.187 Q503.126,301.66 503.126,300.605 Q503.126,299.58 503.741,299.082 Q504.356,298.584 505.587,298.584 L514.523,298.584 L514.523,279.804 L508.81,279.804 Q507.608,279.804 506.979,279.262 Q506.349,278.72 506.349,277.695 Q506.349,276.67 506.935,276.157 Q507.521,275.644 508.692,275.644 L517.276,275.644 Q518.067,275.644 518.522,275.967 Q518.976,276.289 518.976,276.845 z" fill="#E6E7E4"/>
      <path d="M541.358,298.584 L541.358,279.804 L540.802,279.804 Q538.81,279.804 538.063,279.336 Q537.315,278.867 537.315,277.695 Q537.315,276.611 537.931,276.128 Q538.546,275.644 539.923,275.644 L541.3,275.644 L544.112,275.644 Q544.903,275.644 545.343,275.967 Q545.782,276.289 545.782,276.845 L545.782,278.838 Q547.921,276.845 550.016,275.893 Q552.11,274.941 554.366,274.941 Q558.79,274.941 561.324,277.695 Q563.858,280.449 563.858,285.312 L563.858,298.584 L565.235,298.584 Q566.7,298.584 567.345,299.067 Q567.989,299.551 567.989,300.605 Q567.989,301.748 567.301,302.231 Q566.612,302.715 564.855,302.715 L558.38,302.715 Q556.505,302.715 555.978,302.275 Q555.45,301.836 555.45,300.605 Q555.45,299.463 556.065,299.023 Q556.681,298.584 558.38,298.584 L559.405,298.584 L559.405,286.396 Q559.405,282.968 557.853,281.167 Q556.3,279.365 553.341,279.365 Q550.353,279.365 548.067,281.386 Q545.782,283.408 545.782,286.396 L545.782,298.584 L546.808,298.584 Q548.565,298.584 549.181,299.023 Q549.796,299.463 549.796,300.605 Q549.796,301.836 549.269,302.275 Q548.741,302.715 546.69,302.715 L541.358,302.715 L539.776,302.715 Q538.575,302.715 537.975,302.202 Q537.374,301.689 537.374,300.605 Q537.374,299.433 538.063,299.009 Q538.751,298.584 540.743,298.584 z" fill="#E6E7E4"/>
      <path d="M585.567,267.207 Q585.567,264.043 586.139,263.222 Q586.71,262.402 588.585,262.402 Q590.401,262.402 590.987,263.091 Q591.573,263.779 591.573,266.357 Q591.573,268.877 591.031,269.477 Q590.489,270.078 588.585,270.078 Q586.71,270.078 586.139,269.521 Q585.567,268.965 585.567,267.207 z M590.987,298.584 L600.392,298.584 Q601.534,298.584 602.076,299.067 Q602.618,299.551 602.618,300.605 Q602.618,301.806 602.106,302.26 Q601.593,302.715 600.216,302.715 L577.482,302.715 Q576.31,302.715 575.724,302.187 Q575.138,301.66 575.138,300.605 Q575.138,299.58 575.753,299.082 Q576.368,298.584 577.599,298.584 L586.534,298.584 L586.534,279.804 L580.821,279.804 Q579.62,279.804 578.99,279.262 Q578.36,278.72 578.36,277.695 Q578.36,276.67 578.946,276.157 Q579.532,275.644 580.704,275.644 L589.288,275.644 Q590.079,275.644 590.533,275.967 Q590.987,276.289 590.987,276.845 z" fill="#E6E7E4"/>
      <path d="M610.851,279.804 Q608.917,279.804 608.199,279.336 Q607.482,278.867 607.482,277.695 Q607.482,276.67 608.067,276.157 Q608.653,275.644 609.825,275.644 L618.028,275.644 Q619.698,275.644 620.255,276.098 Q620.812,276.552 620.812,277.695 Q620.812,278.867 620.079,279.336 Q619.347,279.804 617.384,279.804 L616.3,279.804 L623.917,298.759 L632.384,279.804 L630.626,279.804 Q628.37,279.804 627.579,279.35 Q626.788,278.896 626.788,277.695 Q626.788,276.552 627.345,276.098 Q627.901,275.644 629.571,275.644 L638.624,275.644 Q639.796,275.644 640.382,276.157 Q640.968,276.67 640.968,277.695 Q640.968,278.867 640.25,279.336 Q639.532,279.804 637.599,279.804 L637.071,279.804 L627.403,301.162 Q626.671,302.773 625.953,303.257 Q625.235,303.74 623.858,303.74 Q622.599,303.74 621.91,303.271 Q621.222,302.802 620.489,301.162 z" fill="#E6E7E4"/>
      <path d="M667.013,298.994 Q664.61,301.162 661.783,302.304 Q658.956,303.447 655.968,303.447 Q651.603,303.447 648.922,301.015 Q646.241,298.584 646.241,294.687 Q646.241,290.058 649.801,287.509 Q653.36,284.961 659.806,284.961 Q661.505,284.961 663.233,285.18 Q664.962,285.4 666.778,285.869 L666.778,285.664 Q666.778,282.295 665.167,280.683 Q663.556,279.072 660.157,279.072 Q657.872,279.072 655.06,280.302 Q652.247,281.533 651.339,281.533 Q650.489,281.533 649.933,280.844 Q649.376,280.156 649.376,279.072 Q649.376,277.343 652.613,276.142 Q655.851,274.941 660.89,274.941 Q666.046,274.941 668.683,277.563 Q671.319,280.185 671.319,285.312 L671.319,298.584 L672.755,298.584 Q674.835,298.584 675.538,299.023 Q676.241,299.463 676.241,300.605 Q676.241,301.66 675.655,302.187 Q675.069,302.715 673.898,302.715 L669.239,302.715 Q668.448,302.715 667.936,302.217 Q667.423,301.718 667.189,300.781 z M666.778,289.765 Q665.167,289.238 663.658,288.989 Q662.149,288.74 660.655,288.74 Q656.144,288.74 653.536,290.263 Q650.929,291.787 650.929,294.365 Q650.929,296.357 652.555,297.646 Q654.181,298.935 656.7,298.935 Q660.421,298.935 663.6,296.987 Q666.778,295.039 666.778,292.929 z M652.423,265.566 Q652.423,262.49 654.591,260.337 Q656.759,258.183 659.864,258.183 Q662.97,258.183 665.108,260.322 Q667.247,262.461 667.247,265.566 Q667.247,268.672 665.079,270.84 Q662.911,273.008 659.806,273.008 Q656.73,273.008 654.576,270.84 Q652.423,268.672 652.423,265.566 z M655.851,265.566 Q655.851,267.236 657.023,268.423 Q658.194,269.609 659.864,269.609 Q661.505,269.609 662.662,268.423 Q663.819,267.236 663.819,265.566 Q663.819,263.955 662.648,262.783 Q661.476,261.611 659.864,261.611 Q658.194,261.611 657.023,262.768 Q655.851,263.926 655.851,265.566 z" fill="#E6E7E4"/>
      <path d="M719.161,286.982 L745.44,286.982 Q746.319,286.982 746.803,287.553 Q747.286,288.125 747.286,289.15 Q747.286,290.205 746.803,290.761 Q746.319,291.318 745.44,291.318 L719.161,291.318 Q718.253,291.318 717.77,290.761 Q717.286,290.205 717.286,289.15 Q717.286,288.095 717.77,287.539 Q718.253,286.982 719.161,286.982 z M719.161,277.168 L745.44,277.168 Q746.319,277.168 746.803,277.724 Q747.286,278.281 747.286,279.306 Q747.286,280.361 746.803,280.918 Q746.319,281.474 745.44,281.474 L719.161,281.474 Q718.253,281.474 717.77,280.932 Q717.286,280.39 717.286,279.306 Q717.286,278.252 717.77,277.71 Q718.253,277.168 719.161,277.168 z" fill="#E6E7E4"/>
      <path d="M798.966,291.494 L798.966,300.136 Q798.966,301.308 798.482,302.011 Q797.999,302.715 797.237,302.715 L791.817,302.715 Q790.675,302.715 790.089,302.187 Q789.503,301.66 789.503,300.605 Q789.503,299.433 790.191,299.009 Q790.88,298.584 793.136,298.584 L794.542,298.584 L794.542,268.584 L793.341,268.584 Q790.821,268.584 790.089,268.13 Q789.357,267.676 789.357,266.474 Q789.357,265.42 789.957,264.892 Q790.558,264.365 791.7,264.365 L797.296,264.365 Q798.087,264.365 798.526,264.687 Q798.966,265.009 798.966,265.566 L798.966,286.572 L807.433,279.482 Q806.466,279.072 806.012,278.574 Q805.558,278.076 805.558,277.402 Q805.558,276.523 806.202,276.084 Q806.847,275.644 808.077,275.644 L816.017,275.644 Q817.13,275.644 817.716,276.142 Q818.302,276.64 818.302,277.636 Q818.302,279.394 815.46,279.687 Q814.903,279.746 814.581,279.804 Q813.38,279.951 811.944,280.727 Q810.509,281.504 809.044,282.793 L804.796,286.513 L815.899,298.584 L818.419,298.584 Q819.679,298.584 820.221,299.052 Q820.763,299.521 820.763,300.605 Q820.763,301.631 820.162,302.173 Q819.562,302.715 818.419,302.715 L810.48,302.715 Q809.19,302.715 808.605,302.275 Q808.019,301.836 808.019,300.869 Q808.019,300.078 808.59,299.507 Q809.161,298.935 810.304,298.584 L801.603,289.092 z" fill="#E6E7E4"/>
      <path d="M840.304,299.345 Q844.815,299.345 847.701,296.489 Q850.587,293.633 850.587,289.209 Q850.587,284.785 847.687,281.899 Q844.786,279.013 840.304,279.013 Q835.821,279.013 832.936,281.899 Q830.05,284.785 830.05,289.209 Q830.05,293.662 832.921,296.504 Q835.792,299.345 840.304,299.345 z M855.685,289.209 Q855.685,295.478 851.407,299.463 Q847.13,303.447 840.304,303.447 Q833.507,303.447 829.23,299.463 Q824.952,295.478 824.952,289.209 Q824.952,282.939 829.23,278.969 Q833.507,275 840.304,275 Q847.101,275 851.393,278.984 Q855.685,282.968 855.685,289.209 z" fill="#E6E7E4"/>
      <path d="M874.347,268.584 L869.366,268.584 Q866.524,268.584 865.807,268.13 Q865.089,267.676 865.089,266.474 Q865.089,265.42 865.69,264.892 Q866.29,264.365 867.433,264.365 L877.101,264.365 Q877.892,264.365 878.331,264.687 Q878.771,265.009 878.771,265.566 L878.771,298.584 L887.97,298.584 Q889.083,298.584 889.596,299.067 Q890.108,299.551 890.108,300.605 Q890.108,301.806 889.61,302.26 Q889.112,302.715 887.735,302.715 L866.114,302.715 Q864.972,302.715 864.371,302.187 Q863.771,301.66 863.771,300.605 Q863.771,299.58 864.386,299.082 Q865.001,298.584 866.232,298.584 L874.347,298.584 z" fill="#E6E7E4"/>
      <path d="M910.353,268.584 L905.372,268.584 Q902.53,268.584 901.813,268.13 Q901.095,267.676 901.095,266.474 Q901.095,265.42 901.695,264.892 Q902.296,264.365 903.439,264.365 L913.107,264.365 Q913.898,264.365 914.337,264.687 Q914.776,265.009 914.776,265.566 L914.776,298.584 L923.976,298.584 Q925.089,298.584 925.602,299.067 Q926.114,299.551 926.114,300.605 Q926.114,301.806 925.616,302.26 Q925.118,302.715 923.741,302.715 L902.12,302.715 Q900.978,302.715 900.377,302.187 Q899.776,301.66 899.776,300.605 Q899.776,299.58 900.392,299.082 Q901.007,298.584 902.237,298.584 L910.353,298.584 z" fill="#E6E7E4"/>
      <path d="M954.825,289.765 Q953.214,289.238 951.705,288.989 Q950.196,288.74 948.702,288.74 Q944.19,288.74 941.583,290.263 Q938.976,291.787 938.976,294.365 Q938.976,296.357 940.602,297.646 Q942.228,298.935 944.747,298.935 Q948.468,298.935 951.647,296.987 Q954.825,295.039 954.825,292.929 z M955.06,298.994 Q952.657,301.162 949.83,302.304 Q947.003,303.447 944.015,303.447 Q939.649,303.447 936.969,301.015 Q934.288,298.584 934.288,294.687 Q934.288,290.058 937.848,287.509 Q941.407,284.961 947.853,284.961 Q949.552,284.961 951.28,285.18 Q953.009,285.4 954.825,285.869 L954.825,285.664 Q954.825,282.295 953.214,280.683 Q951.603,279.072 948.204,279.072 Q945.919,279.072 943.107,280.302 Q940.294,281.533 939.386,281.533 Q938.536,281.533 937.98,280.844 Q937.423,280.156 937.423,279.072 Q937.423,277.343 940.66,276.142 Q943.898,274.941 948.937,274.941 Q954.093,274.941 956.73,277.563 Q959.366,280.185 959.366,285.312 L959.366,298.584 L960.802,298.584 Q962.882,298.584 963.585,299.023 Q964.288,299.463 964.288,300.605 Q964.288,301.66 963.702,302.187 Q963.116,302.715 961.944,302.715 L957.345,302.715 Q956.524,302.715 955.997,302.217 Q955.47,301.718 955.294,300.781 z" fill="#E6E7E4"/>
      <path d="M1002.872,313.408 L1002.872,316.865 L965.812,316.865 L965.812,313.408 z" fill="#E6E7E4"/>
      <path d="M1021.915,298.642 Q1026.046,298.642 1028.624,296.035 Q1031.202,293.427 1031.202,289.267 Q1031.202,285.195 1028.58,282.558 Q1025.958,279.922 1021.915,279.922 Q1017.843,279.922 1015.25,282.544 Q1012.657,285.166 1012.657,289.267 Q1012.657,293.369 1015.25,296.006 Q1017.843,298.642 1021.915,298.642 z M1012.774,279.863 Q1014.415,277.812 1016.876,276.728 Q1019.337,275.644 1022.442,275.644 Q1028.331,275.644 1032.257,279.614 Q1036.183,283.584 1036.183,289.443 Q1036.183,295.215 1032.154,299.228 Q1028.126,303.242 1022.325,303.242 Q1019.249,303.242 1016.964,302.158 Q1014.679,301.074 1013.214,298.877 L1013.214,301.22 Q1013.214,302.011 1012.936,302.363 Q1012.657,302.715 1012.013,302.715 L1006.651,302.715 Q1005.509,302.715 1004.952,302.187 Q1004.396,301.66 1004.396,300.605 Q1004.396,299.433 1005.069,299.009 Q1005.743,298.584 1007.735,298.584 L1008.351,298.584 L1008.351,268.584 L1007.794,268.584 Q1005.802,268.584 1005.069,268.115 Q1004.337,267.646 1004.337,266.474 Q1004.337,265.42 1004.923,264.892 Q1005.509,264.365 1006.651,264.365 L1011.105,264.365 Q1011.983,264.365 1012.379,264.658 Q1012.774,264.951 1012.774,265.566 z" fill="#E6E7E4"/>
      <path d="M1062.843,289.765 Q1061.232,289.238 1059.723,288.989 Q1058.214,288.74 1056.72,288.74 Q1052.208,288.74 1049.601,290.263 Q1046.993,291.787 1046.993,294.365 Q1046.993,296.357 1048.619,297.646 Q1050.245,298.935 1052.765,298.935 Q1056.485,298.935 1059.664,296.987 Q1062.843,295.039 1062.843,292.929 z M1063.077,298.994 Q1060.675,301.162 1057.848,302.304 Q1055.021,303.447 1052.032,303.447 Q1047.667,303.447 1044.986,301.015 Q1042.306,298.584 1042.306,294.687 Q1042.306,290.058 1045.865,287.509 Q1049.425,284.961 1055.87,284.961 Q1057.569,284.961 1059.298,285.18 Q1061.026,285.4 1062.843,285.869 L1062.843,285.664 Q1062.843,282.295 1061.232,280.683 Q1059.62,279.072 1056.222,279.072 Q1053.937,279.072 1051.124,280.302 Q1048.312,281.533 1047.403,281.533 Q1046.554,281.533 1045.997,280.844 Q1045.441,280.156 1045.441,279.072 Q1045.441,277.343 1048.678,276.142 Q1051.915,274.941 1056.954,274.941 Q1062.11,274.941 1064.747,277.563 Q1067.384,280.185 1067.384,285.312 L1067.384,298.584 L1068.819,298.584 Q1070.9,298.584 1071.603,299.023 Q1072.306,299.463 1072.306,300.605 Q1072.306,301.66 1071.72,302.187 Q1071.134,302.715 1069.962,302.715 L1065.362,302.715 Q1064.542,302.715 1064.015,302.217 Q1063.487,301.718 1063.312,300.781 z" fill="#E6E7E4"/>
      <path d="M1100.343,277.285 Q1101.778,277.285 1102.438,277.783 Q1103.097,278.281 1103.097,279.365 Q1103.097,280.39 1102.482,280.903 Q1101.866,281.416 1100.636,281.416 L1088.771,281.416 L1088.771,291.201 Q1088.771,296.006 1090.016,297.529 Q1091.261,299.052 1094.278,299.052 Q1096.944,299.052 1100.665,297.5 Q1104.386,295.947 1105.265,295.947 Q1106.085,295.947 1106.656,296.533 Q1107.228,297.119 1107.228,297.968 Q1107.228,298.935 1106.51,299.653 Q1105.792,300.371 1104.064,301.045 Q1101.193,302.187 1098.893,302.715 Q1096.593,303.242 1094.571,303.242 Q1091.144,303.242 1088.815,302.143 Q1086.485,301.045 1085.343,298.877 Q1084.757,297.851 1084.508,296.445 Q1084.259,295.039 1084.259,292.109 L1084.259,291.201 L1084.259,281.416 L1079.278,281.416 Q1078.048,281.416 1077.491,280.932 Q1076.935,280.449 1076.935,279.365 Q1076.935,278.164 1077.696,277.724 Q1078.458,277.285 1080.948,277.285 L1084.259,277.285 L1084.259,271.279 L1084.259,269.726 Q1084.259,268.467 1084.801,267.866 Q1085.343,267.265 1086.485,267.265 Q1087.775,267.265 1088.273,267.998 Q1088.771,268.73 1088.771,271.338 L1088.771,277.285 z" fill="#E6E7E4"/>
      <path d="M1136.349,277.285 Q1137.784,277.285 1138.443,277.783 Q1139.103,278.281 1139.103,279.365 Q1139.103,280.39 1138.487,280.903 Q1137.872,281.416 1136.642,281.416 L1124.776,281.416 L1124.776,291.201 Q1124.776,296.006 1126.022,297.529 Q1127.267,299.052 1130.284,299.052 Q1132.95,299.052 1136.671,297.5 Q1140.392,295.947 1141.271,295.947 Q1142.091,295.947 1142.662,296.533 Q1143.234,297.119 1143.234,297.968 Q1143.234,298.935 1142.516,299.653 Q1141.798,300.371 1140.069,301.045 Q1137.198,302.187 1134.899,302.715 Q1132.599,303.242 1130.577,303.242 Q1127.15,303.242 1124.82,302.143 Q1122.491,301.045 1121.349,298.877 Q1120.763,297.851 1120.514,296.445 Q1120.265,295.039 1120.265,292.109 L1120.265,291.201 L1120.265,281.416 L1115.284,281.416 Q1114.054,281.416 1113.497,280.932 Q1112.941,280.449 1112.941,279.365 Q1112.941,278.164 1113.702,277.724 Q1114.464,277.285 1116.954,277.285 L1120.265,277.285 L1120.265,271.279 L1120.265,269.726 Q1120.265,268.467 1120.807,267.866 Q1121.349,267.265 1122.491,267.265 Q1123.78,267.265 1124.278,267.998 Q1124.776,268.73 1124.776,271.338 L1124.776,277.285 z" fill="#E6E7E4"/>
      <path d="M1154.454,290.468 Q1154.689,294.687 1157.311,296.987 Q1159.933,299.287 1164.474,299.287 Q1167.901,299.287 1171.944,297.456 Q1175.987,295.625 1176.837,295.625 Q1177.716,295.625 1178.302,296.181 Q1178.888,296.738 1178.888,297.558 Q1178.888,298.408 1178.273,299.111 Q1177.657,299.814 1176.31,300.488 Q1173.38,301.924 1170.26,302.685 Q1167.14,303.447 1164.064,303.447 Q1157.384,303.447 1153.37,299.594 Q1149.357,295.742 1149.357,289.384 Q1149.357,282.91 1153.605,278.896 Q1157.853,274.883 1164.679,274.883 Q1170.86,274.883 1174.933,278.633 Q1179.005,282.383 1179.005,287.715 Q1179.005,289.355 1178.317,289.912 Q1177.628,290.468 1174.581,290.468 L1174.142,290.468 z M1154.601,286.631 L1173.673,286.631 Q1173.234,283.144 1170.758,281.02 Q1168.282,278.896 1164.679,278.896 Q1160.782,278.896 1158.116,280.947 Q1155.45,282.998 1154.601,286.631 z" fill="#E6E7E4"/>
      <path d="M1197.491,298.584 L1207.218,298.584 Q1208.36,298.584 1208.902,299.067 Q1209.444,299.551 1209.444,300.605 Q1209.444,301.806 1208.932,302.26 Q1208.419,302.715 1207.042,302.715 L1187.882,302.715 Q1186.739,302.715 1186.153,302.187 Q1185.568,301.66 1185.568,300.605 Q1185.568,299.58 1186.168,299.082 Q1186.769,298.584 1188.028,298.584 L1193.126,298.584 L1193.126,279.804 L1191.134,279.804 Q1188.292,279.804 1187.589,279.35 Q1186.886,278.896 1186.886,277.695 Q1186.886,276.67 1187.457,276.157 Q1188.028,275.644 1189.2,275.644 L1195.88,275.644 Q1196.671,275.644 1197.081,275.952 Q1197.491,276.259 1197.491,276.845 L1197.491,281.826 Q1200.275,278.34 1203.292,276.64 Q1206.31,274.941 1209.796,274.941 Q1212.403,274.941 1214.015,275.996 Q1215.626,277.051 1215.626,278.72 Q1215.626,279.804 1214.82,280.639 Q1214.015,281.474 1213.048,281.474 Q1212.374,281.474 1210.777,280.581 Q1209.181,279.687 1207.921,279.687 Q1205.636,279.687 1203.102,281.313 Q1200.568,282.939 1197.491,286.455 z" fill="#E6E7E4"/>
      <path d="M1233.673,267.207 Q1233.673,264.043 1234.244,263.222 Q1234.816,262.402 1236.691,262.402 Q1238.507,262.402 1239.093,263.091 Q1239.679,263.779 1239.679,266.357 Q1239.679,268.877 1239.137,269.477 Q1238.595,270.078 1236.691,270.078 Q1234.816,270.078 1234.244,269.521 Q1233.673,268.965 1233.673,267.207 z M1239.093,298.584 L1248.497,298.584 Q1249.64,298.584 1250.182,299.067 Q1250.724,299.551 1250.724,300.605 Q1250.724,301.806 1250.211,302.26 Q1249.698,302.715 1248.321,302.715 L1225.587,302.715 Q1224.415,302.715 1223.829,302.187 Q1223.243,301.66 1223.243,300.605 Q1223.243,299.58 1223.859,299.082 Q1224.474,298.584 1225.704,298.584 L1234.64,298.584 L1234.64,279.804 L1228.927,279.804 Q1227.726,279.804 1227.096,279.262 Q1226.466,278.72 1226.466,277.695 Q1226.466,276.67 1227.052,276.157 Q1227.638,275.644 1228.81,275.644 L1237.394,275.644 Q1238.185,275.644 1238.639,275.967 Q1239.093,276.289 1239.093,276.845 z" fill="#E6E7E4"/>
      <path d="M1278.321,268.261 Q1278.321,268.877 1277.34,270.913 Q1276.359,272.949 1275.86,274.15 Q1273.868,278.808 1273.033,282.676 Q1272.198,286.543 1272.198,290.703 Q1272.198,294.541 1272.901,298.13 Q1273.605,301.718 1275.04,305.293 Q1275.773,307.226 1277.047,309.848 Q1278.321,312.47 1278.321,313.086 Q1278.321,313.73 1278.043,314.096 Q1277.765,314.463 1277.296,314.463 Q1276.388,314.463 1275.275,313.51 Q1274.161,312.558 1272.696,310.449 Q1269.562,305.967 1268.009,301.045 Q1266.456,296.123 1266.456,290.703 Q1266.456,285.752 1267.731,281.255 Q1269.005,276.758 1271.612,272.539 Q1273.312,269.756 1274.747,268.349 Q1276.183,266.943 1277.296,266.943 Q1277.765,266.943 1278.043,267.309 Q1278.321,267.676 1278.321,268.261 z" fill="#E6E7E4"/>
      <path d="M1302.403,313.086 Q1302.403,312.5 1303.4,310.493 Q1304.396,308.486 1304.923,307.285 Q1306.886,302.597 1307.735,298.716 Q1308.585,294.834 1308.585,290.703 Q1308.585,286.953 1307.867,283.335 Q1307.15,279.717 1305.685,276.084 Q1304.923,274.15 1303.663,271.528 Q1302.403,268.906 1302.403,268.261 Q1302.403,267.676 1302.696,267.309 Q1302.989,266.943 1303.458,266.943 Q1304.425,266.943 1305.524,267.895 Q1306.622,268.847 1308.087,270.927 Q1311.222,275.381 1312.775,280.332 Q1314.327,285.283 1314.327,290.703 Q1314.327,295.654 1313.024,300.166 Q1311.72,304.677 1309.112,308.896 Q1307.296,311.767 1305.934,313.115 Q1304.571,314.463 1303.458,314.463 Q1302.989,314.463 1302.696,314.082 Q1302.403,313.701 1302.403,313.086 z" fill="#E6E7E4"/>
      <path d="M297.521,360.807 Q297.521,357.643 298.092,356.822 Q298.663,356.002 300.538,356.002 Q302.355,356.002 302.94,356.691 Q303.526,357.379 303.526,359.957 Q303.526,362.477 302.984,363.077 Q302.442,363.678 300.538,363.678 Q298.663,363.678 298.092,363.121 Q297.521,362.565 297.521,360.807 z M302.94,392.184 L312.345,392.184 Q313.487,392.184 314.029,392.667 Q314.571,393.15 314.571,394.205 Q314.571,395.406 314.059,395.86 Q313.546,396.315 312.169,396.315 L289.435,396.315 Q288.263,396.315 287.677,395.787 Q287.091,395.26 287.091,394.205 Q287.091,393.18 287.706,392.682 Q288.321,392.184 289.552,392.184 L298.487,392.184 L298.487,373.404 L292.774,373.404 Q291.573,373.404 290.943,372.862 Q290.314,372.32 290.314,371.295 Q290.314,370.27 290.899,369.757 Q291.485,369.244 292.657,369.244 L301.241,369.244 Q302.032,369.244 302.486,369.566 Q302.94,369.889 302.94,370.445 z" fill="#DA5976"/>
      <path d="M345.245,392.125 Q346.446,392.125 347.076,392.652 Q347.706,393.18 347.706,394.205 Q347.706,395.26 347.105,395.787 Q346.505,396.315 345.362,396.315 L326.202,396.315 Q325.001,396.315 324.371,395.787 Q323.741,395.26 323.741,394.205 Q323.741,393.18 324.342,392.652 Q324.942,392.125 326.085,392.125 L331.065,392.125 L331.065,374.225 L326.261,374.225 Q325.06,374.225 324.4,373.668 Q323.741,373.111 323.741,372.086 Q323.741,371.031 324.356,370.504 Q324.972,369.977 326.144,369.977 L330.772,369.977 L330.772,367.984 Q330.772,362.682 333.79,360.294 Q336.808,357.906 343.546,357.906 Q346.827,357.906 348.395,358.639 Q349.962,359.371 349.962,360.924 Q349.962,361.832 349.288,362.418 Q348.614,363.004 347.56,363.004 Q347.032,363.004 345.025,362.652 Q343.019,362.301 341.583,362.301 Q338.272,362.301 336.837,363.692 Q335.401,365.084 335.401,368.307 L335.401,369.977 L345.772,369.977 Q346.974,369.977 347.604,370.504 Q348.233,371.031 348.233,372.086 Q348.233,373.082 347.589,373.653 Q346.944,374.225 345.831,374.225 L335.694,374.225 L335.694,392.125 z" fill="#DA5976"/>
      <path d="M409.815,392.242 Q413.946,392.242 416.524,389.635 Q419.103,387.027 419.103,382.867 Q419.103,378.795 416.48,376.158 Q413.858,373.522 409.815,373.522 Q405.743,373.522 403.15,376.144 Q400.558,378.766 400.558,382.867 Q400.558,386.969 403.15,389.606 Q405.743,392.242 409.815,392.242 z M400.675,373.463 Q402.315,371.412 404.776,370.328 Q407.237,369.244 410.343,369.244 Q416.231,369.244 420.157,373.214 Q424.083,377.184 424.083,383.043 Q424.083,388.815 420.055,392.828 Q416.026,396.842 410.226,396.842 Q407.149,396.842 404.864,395.758 Q402.579,394.674 401.114,392.477 L401.114,394.82 Q401.114,395.611 400.836,395.963 Q400.558,396.315 399.913,396.315 L394.552,396.315 Q393.409,396.315 392.853,395.787 Q392.296,395.26 392.296,394.205 Q392.296,393.033 392.97,392.608 Q393.644,392.184 395.636,392.184 L396.251,392.184 L396.251,362.184 L395.694,362.184 Q393.702,362.184 392.97,361.715 Q392.237,361.246 392.237,360.074 Q392.237,359.02 392.823,358.492 Q393.409,357.965 394.552,357.965 L399.005,357.965 Q399.884,357.965 400.279,358.258 Q400.675,358.551 400.675,359.166 z" fill="#E6E7E4"/>
      <path d="M450.743,383.365 Q449.132,382.838 447.623,382.589 Q446.114,382.34 444.62,382.34 Q440.108,382.34 437.501,383.863 Q434.894,385.387 434.894,387.965 Q434.894,389.957 436.52,391.246 Q438.146,392.535 440.665,392.535 Q444.386,392.535 447.564,390.587 Q450.743,388.639 450.743,386.529 z M450.978,392.594 Q448.575,394.762 445.748,395.904 Q442.921,397.047 439.933,397.047 Q435.567,397.047 432.887,394.615 Q430.206,392.184 430.206,388.287 Q430.206,383.658 433.766,381.109 Q437.325,378.561 443.771,378.561 Q445.47,378.561 447.198,378.78 Q448.927,379 450.743,379.469 L450.743,379.264 Q450.743,375.895 449.132,374.283 Q447.521,372.672 444.122,372.672 Q441.837,372.672 439.024,373.902 Q436.212,375.133 435.304,375.133 Q434.454,375.133 433.897,374.444 Q433.341,373.756 433.341,372.672 Q433.341,370.943 436.578,369.742 Q439.815,368.541 444.855,368.541 Q450.011,368.541 452.647,371.163 Q455.284,373.785 455.284,378.912 L455.284,392.184 L456.72,392.184 Q458.8,392.184 459.503,392.623 Q460.206,393.063 460.206,394.205 Q460.206,395.26 459.62,395.787 Q459.034,396.315 457.862,396.315 L453.263,396.315 Q452.442,396.315 451.915,395.816 Q451.388,395.318 451.212,394.381 z" fill="#E6E7E4"/>
      <path d="M488.243,370.885 Q489.679,370.885 490.338,371.383 Q490.997,371.881 490.997,372.965 Q490.997,373.99 490.382,374.503 Q489.767,375.016 488.536,375.016 L476.671,375.016 L476.671,384.801 Q476.671,389.606 477.916,391.129 Q479.161,392.652 482.179,392.652 Q484.845,392.652 488.565,391.1 Q492.286,389.547 493.165,389.547 Q493.985,389.547 494.557,390.133 Q495.128,390.719 495.128,391.568 Q495.128,392.535 494.41,393.253 Q493.692,393.971 491.964,394.645 Q489.093,395.787 486.793,396.315 Q484.493,396.842 482.472,396.842 Q479.044,396.842 476.715,395.743 Q474.386,394.645 473.243,392.477 Q472.657,391.451 472.408,390.045 Q472.159,388.639 472.159,385.709 L472.159,384.801 L472.159,375.016 L467.179,375.016 Q465.948,375.016 465.392,374.532 Q464.835,374.049 464.835,372.965 Q464.835,371.764 465.597,371.324 Q466.358,370.885 468.849,370.885 L472.159,370.885 L472.159,364.879 L472.159,363.326 Q472.159,362.066 472.701,361.466 Q473.243,360.865 474.386,360.865 Q475.675,360.865 476.173,361.598 Q476.671,362.33 476.671,364.938 L476.671,370.885 z" fill="#E6E7E4"/>
      <path d="M524.249,370.885 Q525.685,370.885 526.344,371.383 Q527.003,371.881 527.003,372.965 Q527.003,373.99 526.388,374.503 Q525.773,375.016 524.542,375.016 L512.677,375.016 L512.677,384.801 Q512.677,389.606 513.922,391.129 Q515.167,392.652 518.185,392.652 Q520.851,392.652 524.571,391.1 Q528.292,389.547 529.171,389.547 Q529.991,389.547 530.563,390.133 Q531.134,390.719 531.134,391.568 Q531.134,392.535 530.416,393.253 Q529.698,393.971 527.97,394.645 Q525.099,395.787 522.799,396.315 Q520.499,396.842 518.478,396.842 Q515.05,396.842 512.721,395.743 Q510.392,394.645 509.249,392.477 Q508.663,391.451 508.414,390.045 Q508.165,388.639 508.165,385.709 L508.165,384.801 L508.165,375.016 L503.185,375.016 Q501.954,375.016 501.397,374.532 Q500.841,374.049 500.841,372.965 Q500.841,371.764 501.603,371.324 Q502.364,370.885 504.855,370.885 L508.165,370.885 L508.165,364.879 L508.165,363.326 Q508.165,362.066 508.707,361.466 Q509.249,360.865 510.392,360.865 Q511.681,360.865 512.179,361.598 Q512.677,362.33 512.677,364.938 L512.677,370.885 z" fill="#E6E7E4"/>
      <path d="M542.355,384.068 Q542.589,388.287 545.211,390.587 Q547.833,392.887 552.374,392.887 Q555.802,392.887 559.845,391.056 Q563.888,389.225 564.737,389.225 Q565.616,389.225 566.202,389.781 Q566.788,390.338 566.788,391.158 Q566.788,392.008 566.173,392.711 Q565.558,393.414 564.21,394.088 Q561.28,395.524 558.16,396.285 Q555.04,397.047 551.964,397.047 Q545.284,397.047 541.271,393.194 Q537.257,389.342 537.257,382.984 Q537.257,376.51 541.505,372.496 Q545.753,368.483 552.579,368.483 Q558.761,368.483 562.833,372.233 Q566.905,375.983 566.905,381.315 Q566.905,382.955 566.217,383.512 Q565.528,384.068 562.482,384.068 L562.042,384.068 z M542.501,380.231 L561.573,380.231 Q561.134,376.744 558.658,374.62 Q556.183,372.496 552.579,372.496 Q548.683,372.496 546.017,374.547 Q543.351,376.598 542.501,380.231 z" fill="#E6E7E4"/>
      <path d="M585.392,392.184 L595.118,392.184 Q596.261,392.184 596.803,392.667 Q597.345,393.15 597.345,394.205 Q597.345,395.406 596.832,395.86 Q596.319,396.315 594.942,396.315 L575.782,396.315 Q574.64,396.315 574.054,395.787 Q573.468,395.26 573.468,394.205 Q573.468,393.18 574.068,392.682 Q574.669,392.184 575.929,392.184 L581.026,392.184 L581.026,373.404 L579.034,373.404 Q576.192,373.404 575.489,372.95 Q574.786,372.496 574.786,371.295 Q574.786,370.27 575.357,369.757 Q575.929,369.244 577.101,369.244 L583.78,369.244 Q584.571,369.244 584.982,369.552 Q585.392,369.859 585.392,370.445 L585.392,375.426 Q588.175,371.94 591.192,370.24 Q594.21,368.541 597.696,368.541 Q600.304,368.541 601.915,369.596 Q603.526,370.65 603.526,372.32 Q603.526,373.404 602.721,374.239 Q601.915,375.074 600.948,375.074 Q600.274,375.074 598.678,374.181 Q597.081,373.287 595.821,373.287 Q593.536,373.287 591.002,374.913 Q588.468,376.539 585.392,380.055 z" fill="#E6E7E4"/>
      <path d="M621.573,360.807 Q621.573,357.643 622.145,356.822 Q622.716,356.002 624.591,356.002 Q626.407,356.002 626.993,356.691 Q627.579,357.379 627.579,359.957 Q627.579,362.477 627.037,363.077 Q626.495,363.678 624.591,363.678 Q622.716,363.678 622.145,363.121 Q621.573,362.565 621.573,360.807 z M626.993,392.184 L636.398,392.184 Q637.54,392.184 638.082,392.667 Q638.624,393.15 638.624,394.205 Q638.624,395.406 638.111,395.86 Q637.599,396.315 636.222,396.315 L613.487,396.315 Q612.315,396.315 611.73,395.787 Q611.144,395.26 611.144,394.205 Q611.144,393.18 611.759,392.682 Q612.374,392.184 613.605,392.184 L622.54,392.184 L622.54,373.404 L616.827,373.404 Q615.626,373.404 614.996,372.862 Q614.366,372.32 614.366,371.295 Q614.366,370.27 614.952,369.757 Q615.538,369.244 616.71,369.244 L625.294,369.244 Q626.085,369.244 626.539,369.566 Q626.993,369.889 626.993,370.445 z" fill="#E6E7E4"/>
      <path d="M649.376,392.184 L649.376,373.404 L648.819,373.404 Q646.827,373.404 646.08,372.936 Q645.333,372.467 645.333,371.295 Q645.333,370.211 645.948,369.728 Q646.564,369.244 647.94,369.244 L649.317,369.244 L652.13,369.244 Q652.921,369.244 653.36,369.566 Q653.8,369.889 653.8,370.445 L653.8,372.438 Q655.939,370.445 658.033,369.493 Q660.128,368.541 662.384,368.541 Q666.808,368.541 669.342,371.295 Q671.876,374.049 671.876,378.912 L671.876,392.184 L673.253,392.184 Q674.718,392.184 675.362,392.667 Q676.007,393.15 676.007,394.205 Q676.007,395.348 675.318,395.831 Q674.63,396.315 672.872,396.315 L666.398,396.315 Q664.523,396.315 663.995,395.875 Q663.468,395.436 663.468,394.205 Q663.468,393.063 664.083,392.623 Q664.698,392.184 666.398,392.184 L667.423,392.184 L667.423,379.996 Q667.423,376.568 665.87,374.767 Q664.317,372.965 661.358,372.965 Q658.37,372.965 656.085,374.986 Q653.8,377.008 653.8,379.996 L653.8,392.184 L654.825,392.184 Q656.583,392.184 657.198,392.623 Q657.814,393.063 657.814,394.205 Q657.814,395.436 657.286,395.875 Q656.759,396.315 654.708,396.315 L649.376,396.315 L647.794,396.315 Q646.593,396.315 645.992,395.802 Q645.392,395.289 645.392,394.205 Q645.392,393.033 646.08,392.608 Q646.769,392.184 648.761,392.184 z" fill="#E6E7E4"/>
      <path d="M693.585,360.807 Q693.585,357.643 694.156,356.822 Q694.728,356.002 696.603,356.002 Q698.419,356.002 699.005,356.691 Q699.591,357.379 699.591,359.957 Q699.591,362.477 699.049,363.077 Q698.507,363.678 696.603,363.678 Q694.728,363.678 694.156,363.121 Q693.585,362.565 693.585,360.807 z M699.005,392.184 L708.409,392.184 Q709.552,392.184 710.094,392.667 Q710.636,393.15 710.636,394.205 Q710.636,395.406 710.123,395.86 Q709.61,396.315 708.233,396.315 L685.499,396.315 Q684.327,396.315 683.741,395.787 Q683.155,395.26 683.155,394.205 Q683.155,393.18 683.771,392.682 Q684.386,392.184 685.616,392.184 L694.552,392.184 L694.552,373.404 L688.839,373.404 Q687.638,373.404 687.008,372.862 Q686.378,372.32 686.378,371.295 Q686.378,370.27 686.964,369.757 Q687.55,369.244 688.722,369.244 L697.306,369.244 Q698.097,369.244 698.551,369.566 Q699.005,369.889 699.005,370.445 z" fill="#E6E7E4"/>
      <path d="M718.868,373.404 Q716.935,373.404 716.217,372.936 Q715.499,372.467 715.499,371.295 Q715.499,370.27 716.085,369.757 Q716.671,369.244 717.843,369.244 L726.046,369.244 Q727.716,369.244 728.273,369.698 Q728.829,370.152 728.829,371.295 Q728.829,372.467 728.097,372.936 Q727.364,373.404 725.401,373.404 L724.317,373.404 L731.935,392.359 L740.401,373.404 L738.644,373.404 Q736.388,373.404 735.597,372.95 Q734.806,372.496 734.806,371.295 Q734.806,370.152 735.362,369.698 Q735.919,369.244 737.589,369.244 L746.642,369.244 Q747.814,369.244 748.399,369.757 Q748.985,370.27 748.985,371.295 Q748.985,372.467 748.268,372.936 Q747.55,373.404 745.616,373.404 L745.089,373.404 L735.421,394.762 Q734.689,396.373 733.971,396.857 Q733.253,397.34 731.876,397.34 Q730.616,397.34 729.928,396.871 Q729.239,396.402 728.507,394.762 z" fill="#E6E7E4"/>
      <path d="M775.03,392.594 Q772.628,394.762 769.801,395.904 Q766.974,397.047 763.985,397.047 Q759.62,397.047 756.94,394.615 Q754.259,392.184 754.259,388.287 Q754.259,383.658 757.818,381.109 Q761.378,378.561 767.823,378.561 Q769.523,378.561 771.251,378.78 Q772.98,379 774.796,379.469 L774.796,379.264 Q774.796,375.895 773.185,374.283 Q771.573,372.672 768.175,372.672 Q765.89,372.672 763.077,373.902 Q760.265,375.133 759.357,375.133 Q758.507,375.133 757.95,374.444 Q757.394,373.756 757.394,372.672 Q757.394,370.943 760.631,369.742 Q763.868,368.541 768.907,368.541 Q774.064,368.541 776.7,371.163 Q779.337,373.785 779.337,378.912 L779.337,392.184 L780.773,392.184 Q782.853,392.184 783.556,392.623 Q784.259,393.063 784.259,394.205 Q784.259,395.26 783.673,395.787 Q783.087,396.315 781.915,396.315 L777.257,396.315 Q776.466,396.315 775.953,395.816 Q775.44,395.318 775.206,394.381 z M774.796,383.365 Q773.185,382.838 771.676,382.589 Q770.167,382.34 768.673,382.34 Q764.161,382.34 761.554,383.863 Q758.946,385.387 758.946,387.965 Q758.946,389.957 760.572,391.246 Q762.198,392.535 764.718,392.535 Q768.439,392.535 771.617,390.587 Q774.796,388.639 774.796,386.529 z M760.44,359.166 Q760.44,356.09 762.608,353.937 Q764.776,351.783 767.882,351.783 Q770.987,351.783 773.126,353.922 Q775.265,356.061 775.265,359.166 Q775.265,362.272 773.097,364.44 Q770.929,366.608 767.823,366.608 Q764.747,366.608 762.594,364.44 Q760.44,362.272 760.44,359.166 z M763.868,359.166 Q763.868,360.836 765.04,362.023 Q766.212,363.209 767.882,363.209 Q769.523,363.209 770.68,362.023 Q771.837,360.836 771.837,359.166 Q771.837,357.555 770.665,356.383 Q769.493,355.211 767.882,355.211 Q766.212,355.211 765.04,356.368 Q763.868,357.525 763.868,359.166 z" fill="#E6E7E4"/>
      <path d="M830.958,377.77 L852.433,387.672 Q853.722,388.287 854.278,388.888 Q854.835,389.488 854.835,390.25 Q854.835,391.129 854.322,391.656 Q853.81,392.184 852.901,392.184 Q852.491,392.184 851.993,392.037 Q851.495,391.891 850.587,391.451 L827.296,380.582 Q827.179,380.553 827.003,380.465 Q824.308,379.234 824.308,377.77 Q824.308,376.305 826.944,375.133 Q827.179,375.016 827.296,374.957 L850.587,364.264 Q851.378,363.883 851.935,363.722 Q852.491,363.561 852.901,363.561 Q853.81,363.561 854.322,364.059 Q854.835,364.557 854.835,365.406 Q854.835,366.197 854.278,366.798 Q853.722,367.399 852.433,367.984 z" fill="#E6E7E4"/>
      <path d="M914.776,382.809 L914.776,362.945 L903.673,382.809 z M911.612,396.315 Q910.206,396.315 909.708,395.86 Q909.21,395.406 909.21,394.205 Q909.21,393.15 909.723,392.667 Q910.235,392.184 911.378,392.184 L914.776,392.184 L914.776,387.262 L901.095,387.262 Q900.362,387.262 899.952,386.793 Q899.542,386.324 899.542,385.445 L899.542,383.424 Q899.542,382.252 900.392,380.963 Q900.538,380.729 900.626,380.582 L912.989,359.606 Q913.399,358.873 913.663,358.668 Q913.927,358.463 914.366,358.463 Q914.542,358.463 914.982,358.522 Q915.099,358.551 915.216,358.58 L918.204,359.049 Q918.614,359.108 918.863,359.503 Q919.112,359.899 919.112,360.543 L919.112,382.809 L920.607,382.809 Q921.251,382.809 921.603,382.296 Q921.954,381.783 922.394,381.783 Q922.98,381.783 923.39,382.223 Q923.8,382.662 923.8,383.307 Q923.8,383.57 923.771,383.79 Q923.741,384.01 923.653,384.244 L923.419,385.445 Q923.214,386.5 922.818,386.881 Q922.423,387.262 921.573,387.262 L919.112,387.262 L919.112,392.184 L920.138,392.184 Q922.013,392.184 922.716,392.638 Q923.419,393.092 923.419,394.205 Q923.419,395.26 922.833,395.787 Q922.247,396.315 921.075,396.315 z" fill="#E89959"/>
      <path d="M948.321,362.594 Q944.952,362.594 943.077,366.578 Q941.202,370.563 941.202,377.828 Q941.202,385.123 943.077,389.122 Q944.952,393.121 948.321,393.121 Q951.72,393.121 953.595,389.122 Q955.47,385.123 955.47,377.828 Q955.47,370.563 953.595,366.578 Q951.72,362.594 948.321,362.594 z M948.321,397.281 Q942.814,397.281 939.576,392.081 Q936.339,386.881 936.339,377.828 Q936.339,368.805 939.576,363.605 Q942.814,358.404 948.321,358.404 Q953.829,358.404 957.081,363.619 Q960.333,368.834 960.333,377.828 Q960.333,386.822 957.081,392.052 Q953.829,397.281 948.321,397.281 z" fill="#E89959"/>
      <path d="M978.585,375.309 Q978.585,373.024 980.182,371.559 Q981.778,370.094 984.327,370.094 Q986.935,370.094 988.517,371.529 Q990.099,372.965 990.099,375.309 Q990.099,377.652 988.502,379.088 Q986.905,380.524 984.327,380.524 Q981.749,380.524 980.167,379.088 Q978.585,377.652 978.585,375.309 z M978.585,391.51 Q978.585,389.225 980.182,387.76 Q981.778,386.295 984.327,386.295 Q986.935,386.295 988.517,387.731 Q990.099,389.166 990.099,391.51 Q990.099,393.854 988.502,395.289 Q986.905,396.725 984.327,396.725 Q981.749,396.725 980.167,395.289 Q978.585,393.854 978.585,391.51 z" fill="#E6E7E4"/>
      <path d="M442.276,455.784 L437.296,455.784 Q434.454,455.784 433.736,455.33 Q433.019,454.875 433.019,453.674 Q433.019,452.62 433.619,452.092 Q434.22,451.565 435.362,451.565 L445.03,451.565 Q445.821,451.565 446.261,451.887 Q446.7,452.209 446.7,452.766 L446.7,485.784 L455.899,485.784 Q457.013,485.784 457.525,486.267 Q458.038,486.75 458.038,487.805 Q458.038,489.006 457.54,489.46 Q457.042,489.915 455.665,489.915 L434.044,489.915 Q432.901,489.915 432.301,489.387 Q431.7,488.86 431.7,487.805 Q431.7,486.78 432.315,486.282 Q432.931,485.784 434.161,485.784 L442.276,485.784 z" fill="#E6E7E4"/>
      <path d="M486.749,476.965 Q485.138,476.438 483.629,476.189 Q482.12,475.94 480.626,475.94 Q476.114,475.94 473.507,477.463 Q470.899,478.987 470.899,481.565 Q470.899,483.557 472.525,484.846 Q474.151,486.135 476.671,486.135 Q480.392,486.135 483.57,484.187 Q486.749,482.239 486.749,480.129 z M486.983,486.194 Q484.581,488.362 481.754,489.504 Q478.927,490.647 475.939,490.647 Q471.573,490.647 468.893,488.215 Q466.212,485.784 466.212,481.887 Q466.212,477.258 469.772,474.709 Q473.331,472.161 479.776,472.161 Q481.476,472.161 483.204,472.38 Q484.933,472.6 486.749,473.069 L486.749,472.864 Q486.749,469.495 485.138,467.883 Q483.526,466.272 480.128,466.272 Q477.843,466.272 475.03,467.502 Q472.218,468.733 471.31,468.733 Q470.46,468.733 469.903,468.044 Q469.347,467.356 469.347,466.272 Q469.347,464.543 472.584,463.342 Q475.821,462.141 480.86,462.141 Q486.017,462.141 488.653,464.763 Q491.29,467.385 491.29,472.512 L491.29,485.784 L492.726,485.784 Q494.806,485.784 495.509,486.223 Q496.212,486.663 496.212,487.805 Q496.212,488.86 495.626,489.387 Q495.04,489.915 493.868,489.915 L489.269,489.915 Q488.448,489.915 487.921,489.417 Q487.394,488.918 487.218,487.981 z" fill="#E6E7E4"/>
      <path d="M525.069,489.915 Q524.454,489.915 524.205,489.607 Q523.956,489.299 523.956,488.42 L523.956,486.018 Q522.198,488.215 519.562,489.431 Q516.925,490.647 513.849,490.647 Q508.312,490.647 504.576,486.707 Q500.841,482.766 500.841,476.907 Q500.841,470.842 504.825,466.814 Q508.81,462.786 514.757,462.786 Q517.774,462.786 520.177,463.855 Q522.579,464.924 524.308,467.004 L524.308,455.784 L522.755,455.784 Q520.206,455.784 519.459,455.33 Q518.712,454.875 518.712,453.674 Q518.712,452.62 519.313,452.092 Q519.913,451.565 521.056,451.565 L527.062,451.565 Q527.94,451.565 528.336,451.858 Q528.732,452.151 528.732,452.766 L528.732,485.784 L530.05,485.784 Q531.485,485.784 532.13,486.267 Q532.774,486.75 532.774,487.805 Q532.774,488.801 532.218,489.358 Q531.661,489.915 530.724,489.915 z M505.88,476.76 Q505.88,480.803 508.487,483.381 Q511.095,485.959 515.108,485.959 Q519.151,485.959 521.759,483.279 Q524.366,480.598 524.366,476.467 Q524.366,472.395 521.773,469.758 Q519.181,467.122 515.108,467.122 Q510.978,467.122 508.429,469.788 Q505.88,472.454 505.88,476.76 z" fill="#E6E7E4"/>
      <path d="M561.075,489.915 Q560.46,489.915 560.211,489.607 Q559.962,489.299 559.962,488.42 L559.962,486.018 Q558.204,488.215 555.567,489.431 Q552.931,490.647 549.855,490.647 Q544.317,490.647 540.582,486.707 Q536.847,482.766 536.847,476.907 Q536.847,470.842 540.831,466.814 Q544.815,462.786 550.763,462.786 Q553.78,462.786 556.183,463.855 Q558.585,464.924 560.314,467.004 L560.314,455.784 L558.761,455.784 Q556.212,455.784 555.465,455.33 Q554.718,454.875 554.718,453.674 Q554.718,452.62 555.318,452.092 Q555.919,451.565 557.062,451.565 L563.067,451.565 Q563.946,451.565 564.342,451.858 Q564.737,452.151 564.737,452.766 L564.737,485.784 L566.056,485.784 Q567.491,485.784 568.136,486.267 Q568.78,486.75 568.78,487.805 Q568.78,488.801 568.224,489.358 Q567.667,489.915 566.73,489.915 z M541.886,476.76 Q541.886,480.803 544.493,483.381 Q547.101,485.959 551.114,485.959 Q555.157,485.959 557.765,483.279 Q560.372,480.598 560.372,476.467 Q560.372,472.395 557.779,469.758 Q555.187,467.122 551.114,467.122 Q546.983,467.122 544.435,469.788 Q541.886,472.454 541.886,476.76 z" fill="#E6E7E4"/>
      <path d="M594.767,476.965 Q593.155,476.438 591.647,476.189 Q590.138,475.94 588.644,475.94 Q584.132,475.94 581.524,477.463 Q578.917,478.987 578.917,481.565 Q578.917,483.557 580.543,484.846 Q582.169,486.135 584.689,486.135 Q588.409,486.135 591.588,484.187 Q594.767,482.239 594.767,480.129 z M595.001,486.194 Q592.599,488.362 589.772,489.504 Q586.944,490.647 583.956,490.647 Q579.591,490.647 576.91,488.215 Q574.23,485.784 574.23,481.887 Q574.23,477.258 577.789,474.709 Q581.349,472.161 587.794,472.161 Q589.493,472.161 591.222,472.38 Q592.95,472.6 594.767,473.069 L594.767,472.864 Q594.767,469.495 593.155,467.883 Q591.544,466.272 588.146,466.272 Q585.86,466.272 583.048,467.502 Q580.235,468.733 579.327,468.733 Q578.478,468.733 577.921,468.044 Q577.364,467.356 577.364,466.272 Q577.364,464.543 580.602,463.342 Q583.839,462.141 588.878,462.141 Q594.034,462.141 596.671,464.763 Q599.308,467.385 599.308,472.512 L599.308,485.784 L600.743,485.784 Q602.823,485.784 603.526,486.223 Q604.23,486.663 604.23,487.805 Q604.23,488.86 603.644,489.387 Q603.058,489.915 601.886,489.915 L597.286,489.915 Q596.466,489.915 595.939,489.417 Q595.411,488.918 595.235,487.981 z" fill="#E6E7E4"/>
      <path d="M630.216,455.461 Q630.216,456.077 629.234,458.113 Q628.253,460.149 627.755,461.35 Q625.763,466.008 624.928,469.875 Q624.093,473.743 624.093,477.903 Q624.093,481.741 624.796,485.33 Q625.499,488.918 626.935,492.493 Q627.667,494.426 628.941,497.048 Q630.216,499.67 630.216,500.286 Q630.216,500.93 629.938,501.296 Q629.659,501.663 629.19,501.663 Q628.282,501.663 627.169,500.71 Q626.056,499.758 624.591,497.649 Q621.456,493.167 619.903,488.245 Q618.351,483.323 618.351,477.903 Q618.351,472.952 619.625,468.455 Q620.899,463.958 623.507,459.739 Q625.206,456.956 626.642,455.549 Q628.077,454.143 629.19,454.143 Q629.659,454.143 629.938,454.509 Q630.216,454.875 630.216,455.461 z" fill="#E6E7E4"/>
      <path d="M654.298,500.286 Q654.298,499.7 655.294,497.693 Q656.29,495.686 656.817,494.485 Q658.78,489.797 659.63,485.916 Q660.48,482.034 660.48,477.903 Q660.48,474.153 659.762,470.535 Q659.044,466.917 657.579,463.284 Q656.817,461.35 655.558,458.728 Q654.298,456.106 654.298,455.461 Q654.298,454.875 654.591,454.509 Q654.884,454.143 655.353,454.143 Q656.319,454.143 657.418,455.095 Q658.517,456.047 659.982,458.127 Q663.116,462.581 664.669,467.532 Q666.222,472.483 666.222,477.903 Q666.222,482.854 664.918,487.366 Q663.614,491.877 661.007,496.096 Q659.19,498.967 657.828,500.315 Q656.466,501.663 655.353,501.663 Q654.884,501.663 654.591,501.282 Q654.298,500.901 654.298,500.286 z" fill="#E6E7E4"/>
      <path d="M306.954,579.794 Q304.552,581.962 301.725,583.104 Q298.897,584.247 295.909,584.247 Q291.544,584.247 288.863,581.815 Q286.183,579.384 286.183,575.487 Q286.183,570.858 289.742,568.31 Q293.302,565.761 299.747,565.761 Q301.446,565.761 303.175,565.98 Q304.903,566.2 306.72,566.669 L306.72,566.464 Q306.72,563.095 305.108,561.483 Q303.497,559.872 300.099,559.872 Q297.814,559.872 295.001,561.102 Q292.189,562.333 291.28,562.333 Q290.431,562.333 289.874,561.644 Q289.317,560.956 289.317,559.872 Q289.317,558.143 292.555,556.942 Q295.792,555.741 300.831,555.741 Q305.987,555.741 308.624,558.363 Q311.261,560.985 311.261,566.112 L311.261,579.384 L312.696,579.384 Q314.776,579.384 315.48,579.823 Q316.183,580.263 316.183,581.405 Q316.183,582.46 315.597,582.987 Q315.011,583.515 313.839,583.515 L309.181,583.515 Q308.39,583.515 307.877,583.017 Q307.364,582.518 307.13,581.581 z M306.72,570.565 Q305.108,570.038 303.6,569.789 Q302.091,569.54 300.597,569.54 Q296.085,569.54 293.478,571.063 Q290.87,572.587 290.87,575.165 Q290.87,577.157 292.496,578.446 Q294.122,579.735 296.642,579.735 Q300.362,579.735 303.541,577.787 Q306.72,575.839 306.72,573.729 z M292.364,546.366 Q292.364,543.29 294.532,541.137 Q296.7,538.983 299.806,538.983 Q302.911,538.983 305.05,541.122 Q307.189,543.261 307.189,546.366 Q307.189,549.472 305.021,551.64 Q302.853,553.808 299.747,553.808 Q296.671,553.808 294.518,551.64 Q292.364,549.472 292.364,546.366 z M295.792,546.366 Q295.792,548.036 296.964,549.223 Q298.136,550.409 299.806,550.409 Q301.446,550.409 302.604,549.223 Q303.761,548.036 303.761,546.366 Q303.761,544.755 302.589,543.583 Q301.417,542.411 299.806,542.411 Q298.136,542.411 296.964,543.568 Q295.792,544.726 295.792,546.366 z" fill="#E6E7E4"/>
      <path d="M330.89,572.294 L330.89,580.936 Q330.89,582.108 330.406,582.811 Q329.923,583.515 329.161,583.515 L323.741,583.515 Q322.599,583.515 322.013,582.987 Q321.427,582.46 321.427,581.405 Q321.427,580.233 322.115,579.809 Q322.804,579.384 325.06,579.384 L326.466,579.384 L326.466,549.384 L325.265,549.384 Q322.745,549.384 322.013,548.93 Q321.28,548.476 321.28,547.274 Q321.28,546.22 321.881,545.692 Q322.481,545.165 323.624,545.165 L329.22,545.165 Q330.011,545.165 330.45,545.487 Q330.89,545.81 330.89,546.366 L330.89,567.372 L339.356,560.282 Q338.39,559.872 337.936,559.374 Q337.481,558.876 337.481,558.202 Q337.481,557.323 338.126,556.884 Q338.771,556.444 340.001,556.444 L347.94,556.444 Q349.054,556.444 349.64,556.942 Q350.226,557.44 350.226,558.436 Q350.226,560.194 347.384,560.487 Q346.827,560.546 346.505,560.604 Q345.304,560.751 343.868,561.527 Q342.433,562.304 340.968,563.593 L336.72,567.313 L347.823,579.384 L350.343,579.384 Q351.603,579.384 352.145,579.852 Q352.687,580.321 352.687,581.405 Q352.687,582.431 352.086,582.973 Q351.485,583.515 350.343,583.515 L342.403,583.515 Q341.114,583.515 340.528,583.075 Q339.942,582.636 339.942,581.669 Q339.942,580.878 340.514,580.307 Q341.085,579.735 342.228,579.384 L333.526,569.892 z" fill="#E6E7E4"/>
      <path d="M390.772,594.208 L390.772,597.665 L353.712,597.665 L353.712,594.208 z" fill="#E6E7E4"/>
      <path d="M417.257,579.325 Q418.458,579.325 419.088,579.852 Q419.718,580.38 419.718,581.405 Q419.718,582.46 419.117,582.987 Q418.517,583.515 417.374,583.515 L398.214,583.515 Q397.013,583.515 396.383,582.987 Q395.753,582.46 395.753,581.405 Q395.753,580.38 396.354,579.852 Q396.954,579.325 398.097,579.325 L403.077,579.325 L403.077,561.425 L398.272,561.425 Q397.071,561.425 396.412,560.868 Q395.753,560.311 395.753,559.286 Q395.753,558.231 396.368,557.704 Q396.983,557.177 398.155,557.177 L402.784,557.177 L402.784,555.185 Q402.784,549.882 405.802,547.494 Q408.819,545.106 415.558,545.106 Q418.839,545.106 420.406,545.839 Q421.974,546.571 421.974,548.124 Q421.974,549.032 421.3,549.618 Q420.626,550.204 419.571,550.204 Q419.044,550.204 417.037,549.852 Q415.03,549.501 413.595,549.501 Q410.284,549.501 408.849,550.893 Q407.413,552.284 407.413,555.507 L407.413,557.177 L417.784,557.177 Q418.985,557.177 419.615,557.704 Q420.245,558.231 420.245,559.286 Q420.245,560.282 419.601,560.853 Q418.956,561.425 417.843,561.425 L407.706,561.425 L407.706,579.325 z" fill="#E6E7E4"/>
      <path d="M441.368,579.384 L451.095,579.384 Q452.237,579.384 452.779,579.867 Q453.321,580.351 453.321,581.405 Q453.321,582.606 452.809,583.06 Q452.296,583.515 450.919,583.515 L431.759,583.515 Q430.616,583.515 430.03,582.987 Q429.444,582.46 429.444,581.405 Q429.444,580.38 430.045,579.882 Q430.646,579.384 431.905,579.384 L437.003,579.384 L437.003,560.604 L435.011,560.604 Q432.169,560.604 431.466,560.15 Q430.763,559.696 430.763,558.495 Q430.763,557.47 431.334,556.957 Q431.905,556.444 433.077,556.444 L439.757,556.444 Q440.548,556.444 440.958,556.752 Q441.368,557.06 441.368,557.645 L441.368,562.626 Q444.151,559.14 447.169,557.44 Q450.187,555.741 453.673,555.741 Q456.28,555.741 457.892,556.796 Q459.503,557.851 459.503,559.52 Q459.503,560.604 458.697,561.439 Q457.892,562.274 456.925,562.274 Q456.251,562.274 454.654,561.381 Q453.058,560.487 451.798,560.487 Q449.513,560.487 446.979,562.113 Q444.444,563.739 441.368,567.255 z" fill="#E6E7E4"/>
      <path d="M486.749,570.565 Q485.138,570.038 483.629,569.789 Q482.12,569.54 480.626,569.54 Q476.114,569.54 473.507,571.063 Q470.899,572.587 470.899,575.165 Q470.899,577.157 472.525,578.446 Q474.151,579.735 476.671,579.735 Q480.392,579.735 483.57,577.787 Q486.749,575.839 486.749,573.729 z M486.983,579.794 Q484.581,581.962 481.754,583.104 Q478.927,584.247 475.939,584.247 Q471.573,584.247 468.893,581.815 Q466.212,579.384 466.212,575.487 Q466.212,570.858 469.772,568.31 Q473.331,565.761 479.776,565.761 Q481.476,565.761 483.204,565.98 Q484.933,566.2 486.749,566.669 L486.749,566.464 Q486.749,563.095 485.138,561.483 Q483.526,559.872 480.128,559.872 Q477.843,559.872 475.03,561.102 Q472.218,562.333 471.31,562.333 Q470.46,562.333 469.903,561.644 Q469.347,560.956 469.347,559.872 Q469.347,558.143 472.584,556.942 Q475.821,555.741 480.86,555.741 Q486.017,555.741 488.653,558.363 Q491.29,560.985 491.29,566.112 L491.29,579.384 L492.726,579.384 Q494.806,579.384 495.509,579.823 Q496.212,580.263 496.212,581.405 Q496.212,582.46 495.626,582.987 Q495.04,583.515 493.868,583.515 L489.269,583.515 Q488.448,583.515 487.921,583.017 Q487.394,582.518 487.218,581.581 z" fill="#E6E7E4"/>
      <path d="M527.12,567.196 Q527.12,563.065 526.373,561.615 Q525.626,560.165 523.81,560.165 Q521.642,560.165 520.367,562.04 Q519.093,563.915 519.093,567.196 L519.093,579.384 L519.62,579.384 Q521.407,579.384 522.008,579.809 Q522.608,580.233 522.608,581.405 Q522.608,582.46 522.11,582.987 Q521.612,583.515 520.587,583.515 L516.866,583.515 Q515.607,583.515 515.152,582.929 Q514.698,582.343 514.698,580.409 L514.698,579.56 L514.698,567.196 L514.698,564.911 Q514.698,562.714 513.702,561.439 Q512.706,560.165 510.978,560.165 Q509.659,560.165 508.561,560.941 Q507.462,561.718 506.671,563.241 L506.671,579.384 L507.755,579.384 Q509.513,579.384 510.128,579.823 Q510.743,580.263 510.743,581.405 Q510.743,582.606 510.245,583.06 Q509.747,583.515 508.341,583.515 L500.548,583.515 Q499.405,583.515 498.863,583.002 Q498.321,582.489 498.321,581.405 Q498.321,580.233 499.01,579.809 Q499.698,579.384 501.69,579.384 L502.276,579.384 L502.276,560.604 L501.749,560.604 Q499.698,560.604 498.951,560.136 Q498.204,559.667 498.204,558.495 Q498.204,557.47 498.79,556.957 Q499.376,556.444 500.548,556.444 L505.03,556.444 Q505.997,556.444 506.305,556.781 Q506.612,557.118 506.671,558.202 Q507.872,556.913 509.249,556.298 Q510.626,555.683 512.355,555.683 Q514.405,555.683 515.738,556.576 Q517.071,557.47 517.716,559.286 Q518.946,557.44 520.558,556.561 Q522.169,555.683 524.249,555.683 Q528.028,555.683 529.772,558.143 Q531.515,560.604 531.515,566.112 L531.515,579.384 L531.983,579.384 Q533.8,579.384 534.415,579.823 Q535.03,580.263 535.03,581.405 Q535.03,582.46 534.503,582.987 Q533.976,583.515 532.95,583.515 L529.405,583.515 Q528.233,583.515 527.677,582.811 Q527.12,582.108 527.12,580.585 z" fill="#E6E7E4"/>
      <path d="M558.995,579.794 Q556.593,581.962 553.766,583.104 Q550.939,584.247 547.95,584.247 Q543.585,584.247 540.904,581.815 Q538.224,579.384 538.224,575.487 Q538.224,570.858 541.783,568.31 Q545.343,565.761 551.788,565.761 Q553.487,565.761 555.216,565.98 Q556.944,566.2 558.761,566.669 L558.761,566.464 Q558.761,563.095 557.149,561.483 Q555.538,559.872 552.14,559.872 Q549.855,559.872 547.042,561.102 Q544.23,562.333 543.321,562.333 Q542.472,562.333 541.915,561.644 Q541.358,560.956 541.358,559.872 Q541.358,558.143 544.596,556.942 Q547.833,555.741 552.872,555.741 Q558.028,555.741 560.665,558.363 Q563.302,560.985 563.302,566.112 L563.302,579.384 L564.737,579.384 Q566.817,579.384 567.521,579.823 Q568.224,580.263 568.224,581.405 Q568.224,582.46 567.638,582.987 Q567.052,583.515 565.88,583.515 L561.222,583.515 Q560.431,583.515 559.918,583.017 Q559.405,582.518 559.171,581.581 z M558.761,570.565 Q557.149,570.038 555.641,569.789 Q554.132,569.54 552.638,569.54 Q548.126,569.54 545.519,571.063 Q542.911,572.587 542.911,575.165 Q542.911,577.157 544.537,578.446 Q546.163,579.735 548.683,579.735 Q552.403,579.735 555.582,577.787 Q558.761,575.839 558.761,573.729 z M544.405,546.366 Q544.405,543.29 546.573,541.137 Q548.741,538.983 551.847,538.983 Q554.952,538.983 557.091,541.122 Q559.23,543.261 559.23,546.366 Q559.23,549.472 557.062,551.64 Q554.894,553.808 551.788,553.808 Q548.712,553.808 546.559,551.64 Q544.405,549.472 544.405,546.366 z M547.833,546.366 Q547.833,548.036 549.005,549.223 Q550.177,550.409 551.847,550.409 Q553.487,550.409 554.645,549.223 Q555.802,548.036 555.802,546.366 Q555.802,544.755 554.63,543.583 Q553.458,542.411 551.847,542.411 Q550.177,542.411 549.005,543.568 Q547.833,544.726 547.833,546.366 z" fill="#E6E7E4"/>
      <path d="M596.261,558.085 Q597.696,558.085 598.356,558.583 Q599.015,559.081 599.015,560.165 Q599.015,561.19 598.399,561.703 Q597.784,562.216 596.554,562.216 L584.689,562.216 L584.689,572.001 Q584.689,576.806 585.934,578.329 Q587.179,579.852 590.196,579.852 Q592.862,579.852 596.583,578.3 Q600.304,576.747 601.183,576.747 Q602.003,576.747 602.574,577.333 Q603.146,577.919 603.146,578.768 Q603.146,579.735 602.428,580.453 Q601.71,581.171 599.982,581.845 Q597.11,582.987 594.811,583.515 Q592.511,584.042 590.489,584.042 Q587.062,584.042 584.732,582.943 Q582.403,581.845 581.261,579.677 Q580.675,578.651 580.426,577.245 Q580.177,575.839 580.177,572.909 L580.177,572.001 L580.177,562.216 L575.196,562.216 Q573.966,562.216 573.409,561.732 Q572.853,561.249 572.853,560.165 Q572.853,558.964 573.614,558.524 Q574.376,558.085 576.866,558.085 L580.177,558.085 L580.177,552.079 L580.177,550.526 Q580.177,549.267 580.719,548.666 Q581.261,548.065 582.403,548.065 Q583.692,548.065 584.19,548.798 Q584.689,549.53 584.689,552.138 L584.689,558.085 z" fill="#E6E7E4"/>
      <path d="M630.216,549.061 Q630.216,549.677 629.234,551.713 Q628.253,553.749 627.755,554.95 Q625.763,559.608 624.928,563.476 Q624.093,567.343 624.093,571.503 Q624.093,575.341 624.796,578.93 Q625.499,582.518 626.935,586.093 Q627.667,588.026 628.941,590.648 Q630.216,593.27 630.216,593.886 Q630.216,594.53 629.938,594.896 Q629.659,595.263 629.19,595.263 Q628.282,595.263 627.169,594.31 Q626.056,593.358 624.591,591.249 Q621.456,586.767 619.903,581.845 Q618.351,576.923 618.351,571.503 Q618.351,566.552 619.625,562.055 Q620.899,557.558 623.507,553.339 Q625.206,550.556 626.642,549.149 Q628.077,547.743 629.19,547.743 Q629.659,547.743 629.938,548.109 Q630.216,548.476 630.216,549.061 z" fill="#E6E7E4"/>
      <path d="M654.298,593.886 Q654.298,593.3 655.294,591.293 Q656.29,589.286 656.817,588.085 Q658.78,583.397 659.63,579.516 Q660.48,575.634 660.48,571.503 Q660.48,567.753 659.762,564.135 Q659.044,560.517 657.579,556.884 Q656.817,554.95 655.558,552.328 Q654.298,549.706 654.298,549.061 Q654.298,548.476 654.591,548.109 Q654.884,547.743 655.353,547.743 Q656.319,547.743 657.418,548.695 Q658.517,549.647 659.982,551.727 Q663.116,556.181 664.669,561.132 Q666.222,566.083 666.222,571.503 Q666.222,576.454 664.918,580.966 Q663.614,585.477 661.007,589.696 Q659.19,592.567 657.828,593.915 Q656.466,595.263 655.353,595.263 Q654.884,595.263 654.591,594.882 Q654.298,594.501 654.298,593.886 z" fill="#E6E7E4"/>
    </g>
  </g>
</svg>
