<?xml version="1.0" encoding="UTF-8"?>
<!DOCTYPE svg PUBLIC "-//W3C//DTD SVG 1.1//EN" "http://www.w3.org/Graphics/SVG/1.1/DTD/svg11.dtd">
<svg version="1.1" xmlns="http://www.w3.org/2000/svg" xmlns:xlink="http://www.w3.org/1999/xlink" x="0" y="0" width="552.757" height="118.046" viewBox="0, 0, 552.757, 118.046">
  <g id="Layer_1">
    <path d="M7.5,108.953 L7.5,108.884 C6.24,108.686 6.772,108.899 5.862,108.361 C4.348,107.165 5.885,103.282 7.488,101.253 L7.636,101.086 L75.12,18.233 L8.62,18.233 L8.62,18.196 C6.199,18.049 4.736,16.154 4.5,13.893 C4.608,11.564 6.302,9.815 8.62,9.59 L8.62,9.553 L86.46,9.553 L86.46,9.601 C87.279,9.642 87.536,9.742 88.206,10.145 C89.72,11.341 88.108,15.271 86.505,17.3 C85.919,17.953 86.175,17.79 85.886,17.967 L19.68,100.273 L86.32,100.273 L86.32,100.31 C88.74,100.457 90.203,102.352 90.439,104.613 C90.331,106.941 88.638,108.69 86.32,108.916 L86.32,108.953 L7.5,108.953 z" fill="#FFFFFF"/>
    <path d="M108.58,9.203 C110.867,9.296 112.795,10.824 113.041,13.167 L113.08,13.167 L113.08,104.957 L113.079,104.957 L113.08,104.963 C113.08,107.36 111.065,109.303 108.58,109.303 C106.095,109.303 104.08,107.36 104.08,104.963 L104.081,104.957 L104.08,104.957 L104.08,13.167 L104.119,13.167 C104.294,10.726 106.354,9.419 108.58,9.203 L108.58,9.203 z" fill="#FFFFFF"/>
    <path d="M138.4,101.86 L138.4,9.553 L199.131,9.553 L199.211,18.553 L147.4,18.267 L147.4,54.747 L191.229,54.866 L191.143,62.753 L147.4,62.926 L147.4,101.86 z" fill="#FFFFFF"/>
    <path d="M220.86,100.387 L220.86,9.553 L262.86,9.553 Q269.3,9.553 274.69,12.283 Q280.08,15.013 284,19.423 Q287.92,23.833 290.09,29.433 Q292.26,35.033 292.26,40.773 Q292.26,46.233 290.65,51.203 Q289.04,56.173 286.17,60.163 Q283.3,64.153 279.24,66.883 Q275.18,69.613 270.14,70.593 L284.165,96.461 L280.487,103.43 L260.06,72.273 L229.86,72.275 L229.86,100.467 z M229.86,63.61 L263.14,63.593 Q267.48,63.593 271.05,61.703 Q274.62,59.813 277.14,56.593 Q279.66,53.373 281.06,49.313 Q282.46,45.253 282.46,40.773 Q282.46,36.293 280.85,32.163 Q279.24,28.033 276.51,24.953 Q273.78,21.873 270.07,20.053 Q266.36,18.233 262.3,18.233 L229.86,18.191 z" fill="#FFFFFF"/>
    <path d="M352.32,109.653 Q341.96,109.653 333.35,105.383 Q324.74,101.113 318.58,94.043 Q312.42,86.973 309.06,77.873 Q305.7,68.773 305.7,59.253 Q305.7,49.313 309.27,40.213 Q312.84,31.113 319.14,24.113 Q325.44,17.113 333.98,12.983 Q342.52,8.853 352.46,8.853 Q362.82,8.853 371.43,13.263 Q380.04,17.673 386.13,24.813 Q392.22,31.953 395.58,40.983 Q398.94,50.013 398.94,59.393 Q398.94,69.333 395.37,78.433 Q391.8,87.533 385.57,94.463 Q379.34,101.393 370.8,105.523 Q362.26,109.653 352.32,109.653 z M315.5,59.253 Q315.5,67.373 318.16,74.863 Q320.82,82.353 325.72,88.163 Q330.62,93.973 337.34,97.403 Q344.06,100.833 352.32,100.833 Q360.72,100.833 367.58,97.193 Q374.44,93.553 379.2,87.673 Q383.96,81.793 386.55,74.373 Q389.14,66.953 389.14,59.253 Q389.14,51.133 386.41,43.643 Q383.68,36.153 378.78,30.413 Q373.88,24.673 367.16,21.243 Q360.44,17.813 352.32,17.813 Q343.92,17.813 337.06,21.383 Q330.2,24.953 325.44,30.833 Q320.68,36.713 318.09,44.133 Q315.5,51.553 315.5,59.253 z" fill="#FFFFFF"/>
    <path d="M142.9,9.553 C145.187,9.646 147.115,11.174 147.361,13.517 L147.4,13.517 L147.4,105.307 L147.399,105.307 L147.4,105.313 C147.4,107.71 145.385,109.653 142.9,109.653 C140.415,109.653 138.4,107.71 138.4,105.313 L138.401,105.307 L138.4,105.307 L138.4,13.517 L138.439,13.517 C138.614,11.076 140.674,9.769 142.9,9.553 L142.9,9.553 z" fill="#FFFFFF"/>
    <path d="M140.458,53.916 L190.415,53.916 L190.415,53.917 L190.421,53.916 C192.818,53.916 194.761,55.931 194.761,58.416 C194.761,60.901 192.818,62.916 190.421,62.916 L190.415,62.916 L190.415,62.916 L140.458,62.916 L140.458,53.916 z" fill="#FFFFFF"/>
    <path d="M225.36,109.653 C223.073,109.56 221.144,108.032 220.899,105.689 L220.86,105.689 L220.86,69.856 L229.86,69.856 L229.86,105.689 L229.821,105.689 C229.646,108.129 227.586,109.436 225.36,109.653 L225.36,109.653 z" fill="#FFFFFF"/>
    <path d="M138.4,9.553 L200.886,9.553 L200.886,9.553 L200.892,9.553 C203.289,9.553 205.232,11.567 205.232,14.053 C205.232,16.538 203.289,18.553 200.892,18.553 L200.886,18.552 L200.886,18.553 L145.518,18.622 L138.4,9.553 z" fill="#FFFFFF"/>
    <path d="M288.163,108.271 C286.178,109.411 283.732,109.146 282.276,107.294 L282.243,107.315 L263.145,76.996 L270.76,72.199 L289.858,102.518 L289.824,102.539 C290.977,104.697 289.931,106.901 288.163,108.271 L288.163,108.271 z" fill="#FFFFFF"/>
    <g>
      <path d="M548.757,62.978 C548.011,64.679 548.484,63.994 547.496,65.12 L502.548,106.995 C500.588,108.821 497.414,108.825 495.459,107.003 L450.493,65.112 C449.509,63.989 449.979,64.672 449.24,62.978 L548.757,62.978 z" fill-opacity="0" stroke="#FFFFFF" stroke-width="5"/>
      <path d="M499.953,9.353 C502.066,10.154 501.251,9.654 502.538,10.633 L547.504,52.524 C548.488,53.647 548.018,52.964 548.757,54.658 L449.24,54.658 C449.986,52.957 449.513,53.642 450.501,52.516 L495.449,10.641 C497.035,9.263 497.937,9.356 499.953,9.353 z" fill-opacity="0" stroke="#FFFFFF" stroke-width="5"/>
    </g>
    <g>
      <path d="M498.999,8.889 L470.224,55.408" fill-opacity="0" stroke="#FFFFFF" stroke-width="4"/>
      <path d="M498.999,8.889 L527.773,55.408" fill-opacity="0" stroke="#FFFFFF" stroke-width="4"/>
      <path d="M498.999,108.944 L470.224,62.424" fill-opacity="0" stroke="#FFFFFF" stroke-width="4"/>
      <path d="M498.999,108.944 L527.773,62.424" fill-opacity="0" stroke="#FFFFFF" stroke-width="4"/>
    </g>
    <g>
      <path d="M498.999,10.722 L498.999,53.586" fill-opacity="0" stroke="#FFFFFF" stroke-width="3"/>
      <path d="M498.999,107.111 L498.999,64.247" fill-opacity="0" stroke="#FFFFFF" stroke-width="3"/>
    </g>
  </g>
</svg>
