<?xml version="1.0" encoding="UTF-8"?>
<!DOCTYPE svg PUBLIC "-//W3C//DTD SVG 1.1//EN" "http://www.w3.org/Graphics/SVG/1.1/DTD/svg11.dtd">
<svg version="1.1" xmlns="http://www.w3.org/2000/svg" xmlns:xlink="http://www.w3.org/1999/xlink" x="0" y="0" width="346.005" height="509.932" viewBox="0, 0, 346.005, 509.932">
  <g id="Layer_1">
    <path d="M12.679,60.293 L333.326,60.293 C340.328,60.293 346.005,65.969 346.005,72.972 L346.005,497.254 C346.005,504.256 340.328,509.932 333.326,509.932 L12.679,509.932 C5.676,509.932 0,504.256 0,497.254 L0,72.972 C0,65.969 5.676,60.293 12.679,60.293 z" fill="#2B4C52"/>
    <path d="M311.075,92.527 C315.743,92.527 319.527,96.312 319.527,100.98 L319.527,452.925 L319.527,452.927 L319.527,469.245 C319.527,473.914 315.743,477.698 311.075,477.698 L34.93,477.698 C30.262,477.698 26.478,473.914 26.478,469.245 L26.478,117.3 L26.478,117.298 L26.478,100.98 C26.478,96.312 30.262,92.527 34.93,92.527 L311.075,92.527 z" fill="#FFFFFF"/>
    <path d="M23.767,89.649 L322.238,89.649 C326.481,89.649 329.92,93.088 329.92,97.33 L329.92,97.33 C329.92,101.572 326.481,105.011 322.238,105.011 L23.767,105.011 C19.524,105.011 16.085,101.572 16.085,97.33 L16.085,97.33 C16.085,93.088 19.524,89.649 23.767,89.649 z" fill="#7CADB6"/>
    <g>
      <path d="M130.577,42.871 L215.428,42.871 C224.764,42.871 232.333,50.44 232.333,59.776 L232.333,71.9 C232.333,81.236 224.764,88.804 215.428,88.804 L130.577,88.804 C121.24,88.804 113.672,81.236 113.672,71.9 L113.672,59.776 C113.672,50.44 121.24,42.871 130.577,42.871 z" fill="#FF964C"/>
      <path d="M173.002,-0 L173.002,-0 C186.955,-0 198.266,11.311 198.266,25.263 L198.266,53.478 C198.266,67.431 186.955,78.742 173.002,78.742 L173.002,78.742 C159.05,78.742 147.739,67.431 147.739,53.478 L147.739,25.263 C147.739,11.311 159.05,-0 173.002,-0 z" fill="#FF964C"/>
      <path d="M173.002,36.105 C166.467,36.105 161.169,30.807 161.169,24.271 C161.169,17.736 166.467,12.438 173.002,12.438 C179.538,12.438 184.836,17.736 184.836,24.271 C184.836,30.807 179.538,36.105 173.002,36.105 z" fill="#FFFFFE"/>
    </g>
    <g>
      <path d="M99.814,182.387 L281.301,182.387" fill-opacity="0" stroke="#7F7F7F" stroke-width="5.917" stroke-linecap="round"/>
      <path d="M99.814,211.57 L281.301,211.57" fill-opacity="0" stroke="#7F7F7F" stroke-width="5.917" stroke-linecap="round"/>
      <path d="M99.814,240.672 L281.301,240.672" fill-opacity="0" stroke="#7F7F7F" stroke-width="5.917" stroke-linecap="round"/>
      <path d="M99.814,269.855 L281.301,269.855" fill-opacity="0" stroke="#7F7F7F" stroke-width="5.917" stroke-linecap="round"/>
    </g>
    <g>
      <path d="M65.704,182.387 L66.302,182.387" fill-opacity="0" stroke="#B1C1C6" stroke-width="17.955" stroke-linecap="round"/>
      <path d="M65.704,211.57 L66.302,211.57" fill-opacity="0" stroke="#B1C1C6" stroke-width="17.955" stroke-linecap="round"/>
      <path d="M65.704,240.672 L66.302,240.672" fill-opacity="0" stroke="#B1C1C6" stroke-width="17.955" stroke-linecap="round"/>
      <path d="M65.704,269.855 L66.302,269.855" fill-opacity="0" stroke="#B1C1C6" stroke-width="17.955" stroke-linecap="round"/>
    </g>
    <path d="M163.607,311.771 L274.816,311.771 C278.122,311.771 280.801,314.45 280.801,317.756 L280.801,382.274 C280.801,385.58 278.122,388.259 274.816,388.259 L163.607,388.259 C160.302,388.259 157.622,385.58 157.622,382.274 L157.622,317.756 C157.622,314.45 160.302,311.771 163.607,311.771 z" fill="#B1C1C6"/>
    <g>
      <path d="M65.704,321.303 L131.926,321.303" fill-opacity="0" stroke="#7F7F7F" stroke-width="5.917" stroke-linecap="round"/>
      <path d="M65.704,350.486 L131.926,350.486" fill-opacity="0" stroke="#7F7F7F" stroke-width="5.917" stroke-linecap="round"/>
      <path d="M65.704,379.727 L131.926,379.727" fill-opacity="0" stroke="#7F7F7F" stroke-width="5.917" stroke-linecap="round"/>
    </g>
    <path d="M59.757,211.173 L59.779,211.672 L59.845,212.635 L59.96,213.536 L60.103,214.376 L60.287,215.15 L60.501,215.863 L60.736,216.517 L60.987,217.115 L61.251,217.659 L61.521,218.154 L61.798,218.603 L62.085,219.007 L62.384,219.372 L62.695,219.7 L63.033,219.985 L63.399,220.226 L63.794,220.418 L64.218,220.546 L64.657,220.608 L65.1,220.603 L65.532,220.533 L65.947,220.407 L66.347,220.243 L66.732,220.043 L67.272,219.699 L67.992,219.142 L68.718,218.475 L69.435,217.713 L70.136,216.859 L70.815,215.918 L71.483,214.909 L72.155,213.851 L72.828,212.751 L73.505,211.623 L74.531,209.902 L75.915,207.605 L76.958,205.94 L77.654,204.885 L78.351,203.878 L79.043,202.935 L79.73,202.073 L80.406,201.305 L80.718,200.98 L80.718,200.98 C81.454,200.16 81.385,198.898 80.565,198.163 C79.744,197.427 78.483,197.496 77.747,198.316 C77.747,198.316 77.747,198.316 77.747,198.316 L77.352,198.781 L76.615,199.722 L75.894,200.726 L75.183,201.782 L74.485,202.885 L73.794,204.028 L72.775,205.776 L71.451,208.128 L70.484,209.867 L69.853,210.991 L69.235,212.073 L68.635,213.104 L68.053,214.068 L67.502,214.962 L66.998,215.782 L66.534,216.511 L66.105,217.127 L65.698,217.627 L65.412,217.91 L65.255,218.045 L65.12,218.147 L65.009,218.214 L64.923,218.26 L64.855,218.293 L64.792,218.312 L64.723,218.313 L64.633,218.291 L64.522,218.23 L64.393,218.118 L64.247,217.955 L64.097,217.729 L63.945,217.443 L63.793,217.097 L63.643,216.69 L63.497,216.223 L63.349,215.696 L63.194,215.112 L63.03,214.467 L62.847,213.764 L62.633,213.001 L62.401,212.174 L62.133,211.28 L61.991,210.801 C61.888,210.184 61.305,209.767 60.688,209.87 C60.071,209.973 59.654,210.556 59.757,211.173 L59.757,211.173" fill="#9841A5"/>
    <path d="M62.254,182.983 L62.276,183.482 L62.342,184.445 L62.457,185.346 L62.6,186.185 L62.784,186.96 L62.999,187.673 L63.233,188.327 L63.484,188.925 L63.748,189.469 L64.018,189.964 L64.295,190.412 L64.582,190.817 L64.881,191.181 L65.193,191.509 L65.53,191.795 L65.896,192.036 L66.291,192.228 L66.715,192.356 L67.154,192.418 L67.597,192.413 L68.029,192.342 L68.444,192.217 L68.844,192.053 L69.229,191.853 L69.769,191.508 L70.489,190.952 L71.215,190.284 L71.932,189.522 L72.634,188.669 L73.312,187.728 L73.98,186.719 L74.652,185.661 L75.325,184.561 L76.002,183.433 L77.028,181.712 L78.412,179.415 L79.455,177.749 L80.151,176.695 L80.849,175.687 L81.54,174.745 L82.227,173.883 L82.903,173.115 L83.216,172.79 L83.216,172.79 C83.951,171.97 83.882,170.708 83.062,169.973 C82.241,169.237 80.98,169.306 80.244,170.126 C80.244,170.126 80.244,170.126 80.244,170.126 L79.849,170.591 L79.112,171.532 L78.391,172.536 L77.681,173.592 L76.982,174.695 L76.292,175.838 L75.272,177.586 L73.949,179.938 L72.981,181.677 L72.35,182.801 L71.732,183.883 L71.132,184.914 L70.55,185.878 L69.999,186.772 L69.495,187.592 L69.031,188.321 L68.603,188.937 L68.196,189.437 L67.909,189.72 L67.752,189.855 L67.618,189.957 L67.506,190.023 L67.42,190.07 L67.352,190.103 L67.289,190.122 L67.22,190.123 L67.13,190.101 L67.019,190.039 L66.89,189.928 L66.744,189.765 L66.594,189.539 L66.442,189.253 L66.29,188.906 L66.14,188.5 L65.994,188.032 L65.846,187.506 L65.691,186.922 L65.528,186.277 L65.344,185.574 L65.13,184.811 L64.898,183.984 L64.63,183.09 L64.488,182.61 C64.385,181.994 63.802,181.577 63.185,181.68 C62.568,181.783 62.152,182.366 62.254,182.983 L62.254,182.983" fill="#9841A5"/>
    <path d="M62.254,240.508 L62.276,241.007 L62.342,241.97 L62.457,242.871 L62.6,243.711 L62.784,244.485 L62.999,245.198 L63.233,245.852 L63.484,246.45 L63.748,246.994 L64.018,247.489 L64.295,247.938 L64.582,248.342 L64.881,248.706 L65.193,249.035 L65.53,249.32 L65.896,249.561 L66.291,249.753 L66.715,249.881 L67.154,249.943 L67.597,249.938 L68.029,249.868 L68.444,249.742 L68.844,249.578 L69.229,249.378 L69.769,249.033 L70.489,248.477 L71.215,247.81 L71.932,247.048 L72.634,246.194 L73.312,245.253 L73.98,244.244 L74.652,243.186 L75.325,242.086 L76.002,240.958 L77.028,239.237 L78.412,236.94 L79.455,235.275 L80.151,234.22 L80.849,233.213 L81.54,232.27 L82.227,231.408 L82.903,230.64 L83.216,230.315 L83.216,230.315 C83.951,229.495 83.882,228.233 83.062,227.498 C82.241,226.762 80.98,226.831 80.244,227.651 C80.244,227.651 80.244,227.651 80.244,227.651 L79.849,228.116 L79.112,229.057 L78.391,230.061 L77.681,231.117 L76.982,232.22 L76.292,233.363 L75.272,235.111 L73.949,237.463 L72.981,239.202 L72.35,240.326 L71.732,241.408 L71.132,242.439 L70.55,243.403 L69.999,244.297 L69.495,245.117 L69.031,245.846 L68.603,246.462 L68.196,246.962 L67.909,247.245 L67.752,247.38 L67.618,247.482 L67.506,247.548 L67.42,247.595 L67.352,247.628 L67.289,247.647 L67.22,247.648 L67.13,247.626 L67.019,247.564 L66.89,247.453 L66.744,247.29 L66.594,247.064 L66.442,246.778 L66.29,246.431 L66.14,246.025 L65.994,245.558 L65.846,245.031 L65.691,244.447 L65.528,243.802 L65.344,243.099 L65.13,242.336 L64.898,241.509 L64.63,240.615 L64.488,240.136 C64.385,239.519 63.802,239.102 63.185,239.205 C62.568,239.308 62.152,239.891 62.254,240.508 L62.254,240.508" fill="#9841A5"/>
  </g>
</svg>
