<svg version="1.1" viewBox="0.0 0.0 460.0314960629921 588.0" fill="none" stroke="none" stroke-linecap="square" stroke-miterlimit="10" xmlns:xlink="http://www.w3.org/1999/xlink" xmlns="http://www.w3.org/2000/svg"><clipPath id="p.0"><path d="m0 0l460.0315 0l0 588.0l-460.0315 0l0 -588.0z" clip-rule="nonzero"/></clipPath><g clip-path="url(#p.0)"><path fill="#000000" fill-opacity="0.0" d="m0 0l460.0315 0l0 588.0l-460.0315 0z" fill-rule="evenodd"/><path fill="#000000" fill-opacity="0.0" d="m54.002625 38.061317l0 0c0 -1.9342461 1.568016 -3.502262 3.502262 -3.502262l144.17659 0c0.92884827 0 1.8196716 0.36898804 2.476471 1.0257874c0.6567993 0.65680313 1.0257874 1.547615 1.0257874 2.4764748l0 86.53878c0 1.9342499 -1.5680237 3.5022583 -3.5022583 3.5022583l-144.17659 0c-1.9342461 0 -3.502262 -1.5680084 -3.502262 -3.5022583z" fill-rule="evenodd"/><path stroke="#9842a5" stroke-width="4.0" stroke-linejoin="round" stroke-linecap="butt" d="m54.002625 38.061317l0 0c0 -1.9342461 1.568016 -3.502262 3.502262 -3.502262l144.17659 0c0.92884827 0 1.8196716 0.36898804 2.476471 1.0257874c0.6567993 0.65680313 1.0257874 1.547615 1.0257874 2.4764748l0 86.53878c0 1.9342499 -1.5680237 3.5022583 -3.5022583 3.5022583l-144.17659 0c-1.9342461 0 -3.502262 -1.5680084 -3.502262 -3.5022583z" fill-rule="evenodd"/><path fill="#000000" d="m107.806435 77.25071l0 -13.234375l2.578125 0l0 6.296875l5.5625 -6.3125l2.828125 0l-5.0625 5.875l5.390625 7.375l-2.890625 0l-4.125 -5.734375l-1.703125 1.78125l0 3.953125l-2.578125 0zm16.762283 0.1875q-1.203125 0 -2.15625 -0.40625q-0.9375 -0.421875 -1.609375 -1.109375q-0.65625 -0.703125 -1.015625 -1.609375q-0.359375 -0.921875 -0.359375 -1.9375q0 -1.015625 0.359375 -1.921875q0.359375 -0.921875 1.015625 -1.625q0.671875 -0.703125 1.609375 -1.109375q0.953125 -0.40625 2.15625 -0.40625q1.1875 0 2.125 0.40625q0.953125 0.40625 1.6093674 1.109375q0.671875 0.703125 1.015625 1.625q0.359375 0.90625 0.359375 1.921875q0 1.015625 -0.359375 1.9375q-0.34375 0.90625 -1.0 1.609375q-0.6562424 0.6875 -1.6093674 1.109375q-0.953125 0.40625 -2.140625 0.40625zm-2.5625 -5.0625q0 0.65625 0.1875 1.1875q0.203125 0.53125 0.546875 0.921875q0.34375 0.390625 0.8125 0.609375q0.46875 0.21875 1.015625 0.21875q0.53125 0 1.0 -0.21875q0.46875 -0.21875 0.8125 -0.609375q0.34375 -0.390625 0.53125 -0.921875q0.203125 -0.546875 0.203125 -1.203125q0 -0.625 -0.203125 -1.171875q-0.1875 -0.546875 -0.53125 -0.9375q-0.34375 -0.390625 -0.8125 -0.59375q-0.46875 -0.21875 -1.0 -0.21875q-0.546875 0 -1.015625 0.21875q-0.46875 0.21875 -0.8125 0.625q-0.34375 0.390625 -0.546875 0.9375q-0.1875 0.53125 -0.1875 1.15625zm9.336937 -8.750004l2.5 0l0 10.484379q0 0.546875 0.25 0.84375q0.265625 0.296875 0.75 0.296875q0.21875 0 0.484375 -0.0625q0.28125 -0.078125 0.53125 -0.1875l0.328125 1.890625q-0.5 0.25 -1.171875 0.375q-0.671875 0.140625 -1.21875 0.140625q-1.171875 0 -1.8125 -0.625q-0.640625 -0.625 -0.640625 -1.78125l0 -11.375004zm5.914032 0l2.5 0l0 10.484379q0 0.546875 0.25 0.84375q0.265625 0.296875 0.75 0.296875q0.21875 0 0.484375 -0.0625q0.28125 -0.078125 0.53125 -0.1875l0.328125 1.890625q-0.5 0.25 -1.171875 0.375q-0.671875 0.140625 -1.21875 0.140625q-1.171875 0 -1.8125 -0.625q-0.640625 -0.625 -0.640625 -1.78125l0 -11.375004zm8.601532 13.812504q-0.71875 0 -1.34375 -0.234375q-0.609375 -0.234375 -1.0625 -0.65625q-0.4375 -0.421875 -0.6875 -0.96875q-0.25 -0.5625 -0.25 -1.234375q0 -0.6875 0.296875 -1.28125q0.3125 -0.59375 0.859375 -1.0q0.5625 -0.40625 1.328125 -0.640625q0.765625 -0.234375 1.671875 -0.234375q0.65625 0 1.28125 0.109375q0.625 0.109375 1.109375 0.3125l0 -0.546875q0 -0.96875 -0.5625 -1.484375q-0.546875 -0.53125 -1.625 -0.53125q-0.78125 0 -1.53125 0.28125q-0.734375 0.265625 -1.53125 0.8125l-0.765625 -1.578125q1.890625 -1.25 4.078125 -1.25q2.109375 0 3.265625 1.03125q1.171875 1.03125 1.171875 3.0l0 3.03125q0 0.390625 0.140625 0.5625q0.140625 0.171875 0.453125 0.1875l0 2.125q-0.625 0.125 -1.09375 0.125q-0.71875 0 -1.109375 -0.3125q-0.375 -0.3125 -0.46875 -0.84375l-0.046875 -0.53125q-0.65625 0.859375 -1.59375 1.3125q-0.921875 0.4375 -1.984375 0.4375zm0.703125 -1.828125q0.640625 0 1.203125 -0.21875q0.5625 -0.234375 0.890625 -0.609375q0.40625 -0.3125 0.40625 -0.703125l0 -1.125q-0.453125 -0.15625 -0.984375 -0.265625q-0.515625 -0.109375 -1.0 -0.109375q-0.96875 0 -1.59375 0.453125q-0.609375 0.4375 -0.609375 1.109375q0 0.625 0.484375 1.046875q0.5 0.421875 1.203125 0.421875z" fill-rule="nonzero"/><path fill="#000000" d="m82.16519 99.43821q-1.125 0 -2.0 -0.5q-0.875 -0.515625 -1.375 -1.390625l0 1.703125l-2.1875 0l0 -13.625l2.5 0l0 5.5625q0.515625 -0.890625 1.359375 -1.375q0.859375 -0.5 2.0 -0.5q0.953125 0 1.734375 0.40625q0.78125 0.40625 1.34375 1.09375q0.578125 0.6875 0.875 1.625q0.3125 0.9375 0.3125 1.96875q0 1.0625 -0.34375 1.984375q-0.34375 0.90625 -0.96875 1.59375q-0.609375 0.671875 -1.453125 1.0625q-0.828125 0.390625 -1.796875 0.390625zm-0.703125 -2.125q0.609375 0 1.109375 -0.234375q0.5 -0.234375 0.859375 -0.625q0.359375 -0.390625 0.546875 -0.90625q0.203125 -0.53125 0.203125 -1.125q0 -0.59375 -0.1875 -1.140625q-0.1875 -0.546875 -0.53125 -0.953125q-0.34375 -0.40625 -0.8125 -0.640625q-0.46875 -0.25 -1.03125 -0.25q-0.84375 0 -1.5 0.546875q-0.65625 0.546875 -1.015625 1.359375l0 2.328125q0.125 0.375 0.375 0.671875q0.25 0.296875 0.5625 0.515625q0.328125 0.203125 0.703125 0.328125q0.375 0.125 0.71875 0.125zm9.640564 2.125q-0.71875 0 -1.34375 -0.234375q-0.609375 -0.234375 -1.0625 -0.65625q-0.4375 -0.421875 -0.6875 -0.96875q-0.25 -0.5625 -0.25 -1.234375q0 -0.6875 0.296875 -1.28125q0.3125 -0.59375 0.859375 -1.0q0.5625 -0.40625 1.328125 -0.640625q0.765625 -0.234375 1.671875 -0.234375q0.65625 0 1.28125 0.109375q0.625 0.109375 1.109375 0.3125l0 -0.546875q0 -0.96875 -0.5625 -1.484375q-0.546875 -0.53125 -1.625 -0.53125q-0.78125 0 -1.53125 0.28125q-0.734375 0.265625 -1.53125 0.8125l-0.765625 -1.578125q1.890625 -1.25 4.078125 -1.25q2.109375 0 3.265625 1.03125q1.171875 1.03125 1.171875 3.0l0 3.03125q0 0.390625 0.140625 0.5625q0.140625 0.171875 0.453125 0.1875l0 2.125q-0.625 0.125 -1.09375 0.125q-0.71875 0 -1.109375 -0.3125q-0.375 -0.3125 -0.46875 -0.84375l-0.046875 -0.53125q-0.65625 0.859375 -1.59375 1.3125q-0.921875 0.4375 -1.984375 0.4375zm0.703125 -1.828125q0.640625 0 1.203125 -0.21875q0.5625 -0.234375 0.890625 -0.609375q0.40625 -0.3125 0.40625 -0.703125l0 -1.125q-0.453125 -0.15625 -0.984375 -0.265625q-0.515625 -0.109375 -1.0 -0.109375q-0.96875 0 -1.59375 0.453125q-0.609375 0.4375 -0.609375 1.109375q0 0.625 0.484375 1.046875q0.5 0.421875 1.203125 0.421875zm13.193069 1.140625q-0.5 0.21875 -1.234375 0.453125q-0.734375 0.21875 -1.53125 0.21875q-0.515625 0 -0.984375 -0.140625q-0.453125 -0.125 -0.796875 -0.40625q-0.34375 -0.296875 -0.546875 -0.75q-0.203125 -0.453125 -0.203125 -1.109375l0 -5.625l-1.296875 0l0 -1.921875l1.296875 0l0 -3.171875l2.5 0l0 3.171875l2.046875 0l0 1.921875l-2.046875 0l0 4.78125q0 0.515625 0.265625 0.734375q0.265625 0.21875 0.65625 0.21875q0.390625 0 0.765625 -0.125q0.375 -0.140625 0.609375 -0.234375l0.5 1.984375zm7.1640015 0q-0.5 0.21875 -1.234375 0.453125q-0.734375 0.21875 -1.53125 0.21875q-0.515625 0 -0.984375 -0.140625q-0.453125 -0.125 -0.796875 -0.40625q-0.34375 -0.296875 -0.546875 -0.75q-0.203125 -0.453125 -0.203125 -1.109375l0 -5.625l-1.296875 0l0 -1.921875l1.296875 0l0 -3.171875l2.5 0l0 3.171875l2.046875 0l0 1.921875l-2.046875 0l0 4.78125q0 0.515625 0.265625 0.734375q0.265625 0.21875 0.65625 0.21875q0.390625 0 0.765625 -0.125q0.375 -0.140625 0.609375 -0.234375l0.5 1.984375zm5.8358765 0.6875q-1.171875 0 -2.125 -0.390625q-0.953125 -0.40625 -1.625 -1.09375q-0.671875 -0.703125 -1.046875 -1.609375q-0.359375 -0.921875 -0.359375 -1.921875q0 -1.046875 0.359375 -1.96875q0.359375 -0.921875 1.03125 -1.625q0.671875 -0.703125 1.625 -1.109375q0.96875 -0.40625 2.15625 -0.40625q1.203125 0 2.140625 0.40625q0.9375 0.40625 1.59375 1.09375q0.671875 0.6875 1.015625 1.609375q0.34375 0.921875 0.34375 1.90625q0 0.234375 -0.015625 0.46875q0 0.21875 -0.03125 0.375l-7.5625 0q0.0625 0.578125 0.28125 1.03125q0.21875 0.4375 0.578125 0.75q0.359375 0.3125 0.796875 0.484375q0.453125 0.171875 0.9375 0.171875q0.75 0 1.40625 -0.359375q0.65625 -0.375 0.90625 -0.96875l2.140625 0.59375q-0.53125 1.125 -1.71875 1.84375q-1.1875 0.71875 -2.828125 0.71875zm2.53125 -5.890625q-0.09375 -1.109375 -0.8125 -1.765625q-0.71875 -0.671875 -1.734375 -0.671875q-0.5 0 -0.953125 0.1875q-0.4375 0.171875 -0.78125 0.5q-0.328125 0.3125 -0.546875 0.765625q-0.203125 0.4375 -0.234375 0.984375l5.0625 0zm9.925095 -1.90625q-1.125 0.015625 -2.03125 0.4375q-0.890625 0.421875 -1.28125 1.265625l0 5.90625l-2.5 0l0 -9.78125l2.296875 0l0 2.09375q0.25 -0.5 0.609375 -0.90625q0.359375 -0.40625 0.765625 -0.703125q0.40625 -0.296875 0.828125 -0.453125q0.421875 -0.15625 0.8125 -0.15625q0.203125 0 0.296875 0q0.109375 0 0.203125 0.015625l0 2.28125zm1.4074707 7.609375l0 -9.78125l2.5 0l0 9.78125l-2.5 0zm0 -11.140625l0 -2.484375l2.5 0l0 2.484375l-2.5 0zm13.8354645 11.140625l-2.5 0l0 -5.484375q0 -1.171875 -0.40625 -1.71875q-0.40625 -0.546875 -1.140625 -0.546875q-0.375 0 -0.765625 0.15625q-0.390625 0.15625 -0.734375 0.421875q-0.34375 0.265625 -0.625 0.640625q-0.28125 0.375 -0.40625 0.828125l0 5.703125l-2.5 0l0 -9.78125l2.25 0l0 1.8125q0.546875 -0.9375 1.5625 -1.453125q1.03125 -0.515625 2.328125 -0.515625q0.90625 0 1.484375 0.34375q0.578125 0.328125 0.890625 0.875q0.328125 0.53125 0.4375 1.21875q0.125 0.6875 0.125 1.40625l0 6.09375zm2.1902466 0l0 -9.78125l2.5 0l0 9.78125l-2.5 0zm0 -11.140625l0 -2.484375l2.5 0l0 2.484375l-2.5 0zm7.3823395 11.140625l-3.59375 -9.78125l2.578125 0l2.46875 7.75l2.5 -7.75l2.359375 0l-3.609375 9.78125l-2.703125 0zm10.289154 0.1875q-0.71875 0 -1.34375 -0.234375q-0.609375 -0.234375 -1.0625 -0.65625q-0.4375 -0.421875 -0.6875 -0.96875q-0.25 -0.5625 -0.25 -1.234375q0 -0.6875 0.296875 -1.28125q0.3125 -0.59375 0.859375 -1.0q0.5625 -0.40625 1.328125 -0.640625q0.765625 -0.234375 1.671875 -0.234375q0.65625 0 1.28125 0.109375q0.625 0.109375 1.109375 0.3125l0 -0.546875q0 -0.96875 -0.5625 -1.484375q-0.546875 -0.53125 -1.625 -0.53125q-0.78125 0 -1.53125 0.28125q-0.734375 0.265625 -1.53125 0.8125l-0.765625 -1.578125q1.890625 -1.25 4.078125 -1.25q2.109375 0 3.265625 1.03125q1.171875 1.03125 1.171875 3.0l0 3.03125q0 0.390625 0.140625 0.5625q0.140625 0.171875 0.453125 0.1875l0 2.125q-0.625 0.125 -1.09375 0.125q-0.71875 0 -1.109375 -0.3125q-0.375 -0.3125 -0.46875 -0.84375l-0.046875 -0.53125q-0.65625 0.859375 -1.59375 1.3125q-0.921875 0.4375 -1.984375 0.4375zm0.703125 -1.828125q0.640625 0 1.203125 -0.21875q0.5625 -0.234375 0.890625 -0.609375q0.40625 -0.3125 0.40625 -0.703125l0 -1.125q-0.453125 -0.15625 -0.984375 -0.265625q-0.515625 -0.109375 -1.0 -0.109375q-0.96875 0 -1.59375 0.453125q-0.609375 0.4375 -0.609375 1.109375q0 0.625 0.484375 1.046875q0.5 0.421875 1.203125 0.421875zm-1.25 -10.546875q0 -0.6875 0.484375 -1.0625q0.5 -0.375 1.328125 -0.375q0.8125 0 1.3125 0.375q0.5 0.375 0.5 1.0625q0 0.6875 -0.5 1.0625q-0.5 0.375 -1.3125 0.375q-0.828125 0 -1.328125 -0.375q-0.484375 -0.375 -0.484375 -1.0625zm1.8125 -0.671875q-0.328125 0 -0.546875 0.1875q-0.203125 0.171875 -0.203125 0.484375q0 0.28125 0.203125 0.484375q0.21875 0.1875 0.546875 0.1875q0.296875 0 0.53125 -0.1875q0.234375 -0.1875 0.234375 -0.484375q0 -0.3125 -0.234375 -0.484375q-0.21875 -0.1875 -0.53125 -0.1875zm15.849319 12.859375l-2.5 0l0 -5.484375q0 -1.171875 -0.40625 -1.71875q-0.40625 -0.546875 -1.140625 -0.546875q-0.375 0 -0.765625 0.15625q-0.390625 0.15625 -0.734375 0.421875q-0.34375 0.265625 -0.625 0.640625q-0.28125 0.375 -0.40625 0.828125l0 5.703125l-2.5 0l0 -9.78125l2.25 0l0 1.8125q0.546875 -0.9375 1.5625 -1.453125q1.03125 -0.515625 2.328125 -0.515625q0.90625 0 1.484375 0.34375q0.578125 0.328125 0.890625 0.875q0.328125 0.53125 0.4375 1.21875q0.125 0.6875 0.125 1.40625l0 6.09375z" fill-rule="nonzero"/><path fill="#000000" fill-opacity="0.0" d="m125.54878 189.42842l0 0c1.9342499 -1.9342499 5.070282 -1.9342499 7.004532 0l86.53877 86.53877c0.9288635 0.9288635 1.4506836 2.1886597 1.4506836 3.5022888c0 1.3135986 -0.52182007 2.5733948 -1.4506836 3.5022583l-86.53877 86.53879c-1.9342499 1.9342346 -5.070282 1.9342346 -7.004532 0l-86.53878 -86.53879c-1.9342461 -1.9342651 -1.9342461 -5.070282 0 -7.004547z" fill-rule="evenodd"/><path stroke="#9842a5" stroke-width="4.0" stroke-linejoin="round" stroke-linecap="butt" d="m125.54878 189.42842l0 0c1.9342499 -1.9342499 5.070282 -1.9342499 7.004532 0l86.53877 86.53877c0.9288635 0.9288635 1.4506836 2.1886597 1.4506836 3.5022888c0 1.3135986 -0.52182007 2.5733948 -1.4506836 3.5022583l-86.53877 86.53879c-1.9342499 1.9342346 -5.070282 1.9342346 -7.004532 0l-86.53878 -86.53879c-1.9342461 -1.9342651 -1.9342461 -5.070282 0 -7.004547z" fill-rule="evenodd"/><path fill="#000000" fill-opacity="0.0" d="m37.62992 185.93701l184.97638 0l0 187.08661l-184.97638 0z" fill-rule="evenodd"/><path fill="#000000" d="m125.395874 251.15031l2.265625 0l5.046875 13.249985l-2.65625 0l-1.234375 -3.296875l-4.625 0l-1.203125 3.296875l-2.65625 0l5.0625 -13.249985zm2.953125 8.14061l-1.828125 -5.2031097l-1.890625 5.2031097l3.71875 0zm-4.65625 -9.624985l0 -2.21875l2.0625 0l0 2.21875l-2.0625 0zm3.578125 0l0 -2.21875l2.078125 0l0 2.21875l-2.078125 0zm12.458878 7.1249847q-1.125 0.015625 -2.03125 0.4375q-0.890625 0.421875 -1.28125 1.265625l0 5.90625l-2.5 0l0 -9.781235l2.296875 0l0 2.0937347q0.25 -0.5 0.609375 -0.90623474q0.359375 -0.40625 0.765625 -0.703125q0.40625 -0.296875 0.828125 -0.453125q0.421875 -0.15625 0.8125 -0.15625q0.203125 0 0.296875 0q0.109375 0 0.203125 0.015625l0 2.2812347z" fill-rule="nonzero"/><path fill="#000000" d="m82.690125 286.5878q-1.125 0 -2.0 -0.5q-0.875 -0.515625 -1.375 -1.390625l0 1.703125l-2.1875 0l0 -13.625l2.5 0l0 5.5625q0.515625 -0.890625 1.359375 -1.375q0.859375 -0.5 2.0 -0.5q0.953125 0 1.734375 0.40625q0.78125 0.40625 1.34375 1.09375q0.578125 0.6875 0.875 1.625q0.3125 0.9375 0.3125 1.96875q0 1.0625 -0.34375 1.984375q-0.34375 0.90625 -0.96875 1.59375q-0.609375 0.671875 -1.453125 1.0625q-0.828125 0.390625 -1.796875 0.390625zm-0.703125 -2.125q0.609375 0 1.109375 -0.234375q0.5 -0.234375 0.859375 -0.625q0.359375 -0.390625 0.546875 -0.90625q0.203125 -0.53125 0.203125 -1.125q0 -0.59375 -0.1875 -1.140625q-0.1875 -0.546875 -0.53125 -0.953125q-0.34375 -0.40625 -0.8125 -0.640625q-0.46875 -0.25 -1.03125 -0.25q-0.84375 0 -1.5 0.546875q-0.65625 0.546875 -1.015625 1.359375l0 2.328125q0.125 0.375 0.375 0.671875q0.25 0.296875 0.5625 0.515625q0.328125 0.203125 0.703125 0.328125q0.375 0.125 0.71875 0.125zm9.640564 2.125q-0.71875 0 -1.34375 -0.234375q-0.609375 -0.234375 -1.0625 -0.65625q-0.4375 -0.421875 -0.6875 -0.96875q-0.25 -0.5625 -0.25 -1.234375q0 -0.6875 0.296875 -1.28125q0.3125 -0.59375 0.859375 -1.0q0.5625 -0.40625 1.328125 -0.640625q0.765625 -0.234375 1.671875 -0.234375q0.65625 0 1.28125 0.109375q0.625 0.109375 1.109375 0.3125l0 -0.546875q0 -0.96875 -0.5625 -1.484375q-0.546875 -0.53125 -1.625 -0.53125q-0.78125 0 -1.53125 0.28125q-0.734375 0.265625 -1.53125 0.8125l-0.765625 -1.578125q1.890625 -1.25 4.078125 -1.25q2.109375 0 3.265625 1.03125q1.171875 1.03125 1.171875 3.0l0 3.03125q0 0.390625 0.140625 0.5625q0.140625 0.171875 0.453125 0.1875l0 2.125q-0.625 0.125 -1.09375 0.125q-0.71875 0 -1.109375 -0.3125q-0.375 -0.3125 -0.46875 -0.84375l-0.046875 -0.53125q-0.65625 0.859375 -1.59375 1.3125q-0.921875 0.4375 -1.984375 0.4375zm0.703125 -1.828125q0.640625 0 1.203125 -0.21875q0.5625 -0.234375 0.890625 -0.609375q0.40625 -0.3125 0.40625 -0.703125l0 -1.125q-0.453125 -0.15625 -0.984375 -0.265625q-0.515625 -0.109375 -1.0 -0.109375q-0.96875 0 -1.59375 0.453125q-0.609375 0.4375 -0.609375 1.109375q0 0.625 0.484375 1.046875q0.5 0.421875 1.203125 0.421875zm13.193069 1.140625q-0.5 0.21875 -1.234375 0.453125q-0.734375 0.21875 -1.53125 0.21875q-0.515625 0 -0.984375 -0.140625q-0.453125 -0.125 -0.796875 -0.40625q-0.34375 -0.296875 -0.546875 -0.75q-0.203125 -0.453125 -0.203125 -1.109375l0 -5.625l-1.296875 0l0 -1.921875l1.296875 0l0 -3.171875l2.5 0l0 3.171875l2.046875 0l0 1.921875l-2.046875 0l0 4.78125q0 0.515625 0.265625 0.734375q0.265625 0.21875 0.65625 0.21875q0.390625 0 0.765625 -0.125q0.375 -0.140625 0.609375 -0.234375l0.5 1.984375zm7.1640015 0q-0.5 0.21875 -1.234375 0.453125q-0.734375 0.21875 -1.53125 0.21875q-0.515625 0 -0.984375 -0.140625q-0.453125 -0.125 -0.796875 -0.40625q-0.34375 -0.296875 -0.546875 -0.75q-0.203125 -0.453125 -0.203125 -1.109375l0 -5.625l-1.296875 0l0 -1.921875l1.296875 0l0 -3.171875l2.5 0l0 3.171875l2.046875 0l0 1.921875l-2.046875 0l0 4.78125q0 0.515625 0.265625 0.734375q0.265625 0.21875 0.65625 0.21875q0.390625 0 0.765625 -0.125q0.375 -0.140625 0.609375 -0.234375l0.5 1.984375zm5.8358765 0.6875q-1.171875 0 -2.125 -0.390625q-0.953125 -0.40625 -1.625 -1.09375q-0.671875 -0.703125 -1.046875 -1.609375q-0.359375 -0.921875 -0.359375 -1.921875q0 -1.046875 0.359375 -1.96875q0.359375 -0.921875 1.03125 -1.625q0.671875 -0.703125 1.625 -1.109375q0.96875 -0.40625 2.15625 -0.40625q1.203125 0 2.140625 0.40625q0.9375 0.40625 1.59375 1.09375q0.671875 0.6875 1.015625 1.609375q0.34375 0.921875 0.34375 1.90625q0 0.234375 -0.015625 0.46875q0 0.21875 -0.03125 0.375l-7.5625 0q0.0625 0.578125 0.28125 1.03125q0.21875 0.4375 0.578125 0.75q0.359375 0.3125 0.796875 0.484375q0.453125 0.171875 0.9375 0.171875q0.75 0 1.40625 -0.359375q0.65625 -0.375 0.90625 -0.96875l2.140625 0.59375q-0.53125 1.125 -1.71875 1.84375q-1.1875 0.71875 -2.828125 0.71875zm2.53125 -5.890625q-0.09375 -1.109375 -0.8125 -1.765625q-0.71875 -0.671875 -1.734375 -0.671875q-0.5 0 -0.953125 0.1875q-0.4375 0.171875 -0.78125 0.5q-0.328125 0.3125 -0.546875 0.765625q-0.203125 0.4375 -0.234375 0.984375l5.0625 0zm9.925095 -1.90625q-1.125 0.015625 -2.03125 0.4375q-0.890625 0.421875 -1.28125 1.265625l0 5.90625l-2.5 0l0 -9.78125l2.296875 0l0 2.09375q0.25 -0.5 0.609375 -0.90625q0.359375 -0.40625 0.765625 -0.703125q0.40625 -0.296875 0.828125 -0.453125q0.421875 -0.15625 0.8125 -0.15625q0.203125 0 0.296875 0q0.109375 0 0.203125 0.015625l0 2.28125zm1.4074707 7.609375l0 -9.78125l2.5 0l0 9.78125l-2.5 0zm0 -11.140625l0 -2.484375l2.5 0l0 2.484375l-2.5 0zm13.8354645 11.140625l-2.5 0l0 -5.484375q0 -1.171875 -0.40625 -1.71875q-0.40625 -0.546875 -1.140625 -0.546875q-0.375 0 -0.765625 0.15625q-0.390625 0.15625 -0.734375 0.421875q-0.34375 0.265625 -0.625 0.640625q-0.28125 0.375 -0.40625 0.828125l0 5.703125l-2.5 0l0 -9.78125l2.25 0l0 1.8125q0.546875 -0.9375 1.5625 -1.453125q1.03125 -0.515625 2.328125 -0.515625q0.90625 0 1.484375 0.34375q0.578125 0.328125 0.890625 0.875q0.328125 0.53125 0.4375 1.21875q0.125 0.6875 0.125 1.40625l0 6.09375zm2.1902466 0l0 -9.78125l2.5 0l0 9.78125l-2.5 0zm0 -11.140625l0 -2.484375l2.5 0l0 2.484375l-2.5 0zm7.3823395 11.140625l-3.59375 -9.78125l2.578125 0l2.46875 7.75l2.5 -7.75l2.359375 0l-3.609375 9.78125l-2.703125 0zm10.289169 0.1875q-0.71876526 0 -1.3437653 -0.234375q-0.609375 -0.234375 -1.0625 -0.65625q-0.4375 -0.421875 -0.6875 -0.96875q-0.25 -0.5625 -0.25 -1.234375q0 -0.6875 0.296875 -1.28125q0.3125 -0.59375 0.859375 -1.0q0.5625 -0.40625 1.328125 -0.640625q0.76564026 -0.234375 1.6718903 -0.234375q0.65625 0 1.28125 0.109375q0.625 0.109375 1.109375 0.3125l0 -0.546875q0 -0.96875 -0.5625 -1.484375q-0.546875 -0.53125 -1.625 -0.53125q-0.78125 0 -1.5312653 0.28125q-0.734375 0.265625 -1.53125 0.8125l-0.765625 -1.578125q1.890625 -1.25 4.0781403 -1.25q2.109375 0 3.265625 1.03125q1.171875 1.03125 1.171875 3.0l0 3.03125q0 0.390625 0.140625 0.5625q0.140625 0.171875 0.453125 0.1875l0 2.125q-0.625 0.125 -1.09375 0.125q-0.71875 0 -1.109375 -0.3125q-0.375 -0.3125 -0.46875 -0.84375l-0.046875 -0.53125q-0.65625 0.859375 -1.59375 1.3125q-0.921875 0.4375 -1.984375 0.4375zm0.703125 -1.828125q0.640625 0 1.203125 -0.21875q0.5625 -0.234375 0.890625 -0.609375q0.40625 -0.3125 0.40625 -0.703125l0 -1.125q-0.453125 -0.15625 -0.984375 -0.265625q-0.515625 -0.109375 -1.0 -0.109375q-0.96875 0 -1.59375 0.453125q-0.60939026 0.4375 -0.60939026 1.109375q0 0.625 0.484375 1.046875q0.50001526 0.421875 1.2031403 0.421875zm-1.2500153 -10.546875q0 -0.6875 0.48439026 -1.0625q0.5 -0.375 1.328125 -0.375q0.8125 0 1.3125 0.375q0.5 0.375 0.5 1.0625q0 0.6875 -0.5 1.0625q-0.5 0.375 -1.3125 0.375q-0.828125 0 -1.328125 -0.375q-0.48439026 -0.375 -0.48439026 -1.0625zm1.8125153 -0.671875q-0.328125 0 -0.546875 0.1875q-0.203125 0.171875 -0.203125 0.484375q0 0.28125 0.203125 0.484375q0.21875 0.1875 0.546875 0.1875q0.296875 0 0.53125 -0.1875q0.234375 -0.1875 0.234375 -0.484375q0 -0.3125 -0.234375 -0.484375q-0.21875 -0.1875 -0.53125 -0.1875zm15.849304 12.859375l-2.5 0l0 -5.484375q0 -1.171875 -0.40625 -1.71875q-0.40625 -0.546875 -1.140625 -0.546875q-0.375 0 -0.765625 0.15625q-0.390625 0.15625 -0.734375 0.421875q-0.34375 0.265625 -0.625 0.640625q-0.28125 0.375 -0.40625 0.828125l0 5.703125l-2.5 0l0 -9.78125l2.25 0l0 1.8125q0.546875 -0.9375 1.5625 -1.453125q1.03125 -0.515625 2.328125 -0.515625q0.90625 0 1.484375 0.34375q0.578125 0.328125 0.890625 0.875q0.328125 0.53125 0.4375 1.21875q0.125 0.6875 0.125 1.40625l0 6.09375z" fill-rule="nonzero"/><path fill="#000000" d="m100.87118 303.0253l7.875 -4.75l0 2.640625l-4.234375 2.65625l4.234375 2.53125l0 2.796875l-7.875 -4.65625l0 -1.21875zm20.601105 0.96875q1.15625 0.203125 1.875 1.109375q0.71875 0.90625 0.71875 2.21875q0 0.875 -0.34375 1.578125q-0.34375 0.71875 -0.96875 1.203125q-0.625 0.5 -1.53125 0.765625q-0.890625 0.28125 -2.015625 0.28125q-1.40625 0 -2.5 -0.46875q-1.09375 -0.453125 -1.828125 -1.328125l1.421875 -1.78125q0.484375 0.625 1.15625 0.953125q0.671875 0.34375 1.6875 0.34375q1.125 0 1.71875 -0.453125q0.609375 -0.4375 0.609375 -1.375q0 -0.96875 -0.6875 -1.484375q-0.6875 -0.53125 -2.09375 -0.53125l-0.515625 0l0 -1.875l0.578125 0q1.15625 0 1.78125 -0.5q0.640625 -0.515625 0.640625 -1.328125q0 -0.75 -0.53125 -1.125q-0.515625 -0.375 -1.359375 -0.375q-0.859375 0 -1.546875 0.390625q-0.671875 0.390625 -1.09375 1.09375l-1.578125 -1.75q0.28125 -0.421875 0.75 -0.765625q0.46875 -0.359375 1.046875 -0.609375q0.59375 -0.25 1.28125 -0.390625q0.703125 -0.140625 1.421875 -0.140625q0.953125 0 1.734375 0.25q0.78125 0.234375 1.34375 0.671875q0.578125 0.421875 0.890625 1.03125q0.3125 0.609375 0.3125 1.359375q0 0.546875 -0.171875 1.0625q-0.171875 0.5 -0.5 0.90625q-0.3125 0.40625 -0.75 0.6875q-0.4375 0.28125 -0.953125 0.375zm13.847694 -1.0625q0 1.234375 -0.375 2.265625q-0.359375 1.03125 -1.0 1.796875q-0.640625 0.75 -1.53125 1.171875q-0.890625 0.421875 -1.90625 0.421875q-1.046875 0 -1.9375 -0.421875q-0.8750076 -0.421875 -1.5156326 -1.171875q-0.640625 -0.765625 -1.0 -1.796875q-0.359375 -1.03125 -0.359375 -2.265625q0 -1.234375 0.359375 -2.265625q0.359375 -1.03125 1.0 -1.78125q0.640625 -0.765625 1.5156326 -1.1875q0.890625 -0.4375 1.9375 -0.4375q1.015625 0 1.90625 0.4375q0.890625 0.421875 1.53125 1.1875q0.640625 0.75 1.0 1.78125q0.375 1.03125 0.375 2.265625zm-2.53125 0q0 -0.75 -0.171875 -1.375q-0.15625 -0.625 -0.46875 -1.0625q-0.296875 -0.453125 -0.71875 -0.6875q-0.421875 -0.25 -0.921875 -0.25q-0.53125 0 -0.953125 0.25q-0.421875 0.234375 -0.734375 0.6875q-0.296875 0.4375 -0.46875 1.0625q-0.15625 0.625 -0.15625 1.375q0 0.75 0.15625 1.375q0.171875 0.609375 0.46875 1.0625q0.3125 0.4375 0.734375 0.6875q0.421875 0.234375 0.953125 0.234375q0.5 0 0.921875 -0.234375q0.421875 -0.25 0.71875 -0.6875q0.3125 -0.453125 0.46875 -1.0625q0.171875 -0.625 0.171875 -1.375zm7.173691 -2.3125q-0.65625 0 -1.21875 -0.21875q-0.5625 -0.234375 -0.96875 -0.609375q-0.40625 -0.390625 -0.65625 -0.890625q-0.234375 -0.515625 -0.234375 -1.109375q0 -0.578125 0.234375 -1.09375q0.25 -0.53125 0.65625 -0.90625q0.40625 -0.375 0.96875 -0.59375q0.5625 -0.234375 1.21875 -0.234375q0.625 0 1.1875 0.234375q0.578125 0.21875 0.984375 0.59375q0.421875 0.375 0.65625 0.90625q0.25 0.515625 0.25 1.09375q0 0.59375 -0.25 1.109375q-0.234375 0.5 -0.65625 0.890625q-0.40625 0.375 -0.984375 0.609375q-0.5625 0.21875 -1.1875 0.21875zm0 -1.25q0.28125 0 0.515625 -0.125q0.234375 -0.140625 0.40625 -0.34375q0.1875 -0.21875 0.296875 -0.5q0.109375 -0.296875 0.109375 -0.609375q0 -0.65625 -0.40625 -1.109375q-0.390625 -0.46875 -0.921875 -0.46875q-0.28125 0 -0.515625 0.140625q-0.234375 0.125 -0.421875 0.34375q-0.1875 0.203125 -0.296875 0.484375q-0.09375 0.28125 -0.09375 0.609375q0 0.640625 0.390625 1.109375q0.390625 0.46875 0.9375 0.46875zm7.203125 9.21875q-0.65625 0 -1.21875 -0.21875q-0.5625 -0.234375 -0.96875 -0.59375q-0.40625 -0.375 -0.65625 -0.890625q-0.234375 -0.515625 -0.234375 -1.109375q0 -0.609375 0.234375 -1.109375q0.25 -0.515625 0.65625 -0.890625q0.40625 -0.390625 0.96875 -0.609375q0.5625 -0.234375 1.21875 -0.234375q0.640625 0 1.203125 0.234375q0.5625 0.21875 0.984375 0.609375q0.421875 0.375 0.65625 0.890625q0.234375 0.5 0.234375 1.109375q0 0.59375 -0.234375 1.109375q-0.234375 0.515625 -0.65625 0.890625q-0.421875 0.359375 -0.984375 0.59375q-0.5625 0.21875 -1.203125 0.21875zm0 -1.25q0.28125 0 0.5 -0.125q0.234375 -0.140625 0.421875 -0.34375q0.1875 -0.21875 0.28125 -0.5q0.109375 -0.28125 0.109375 -0.59375q0 -0.34375 -0.109375 -0.625q-0.109375 -0.296875 -0.296875 -0.5q-0.171875 -0.21875 -0.421875 -0.34375q-0.234375 -0.125 -0.484375 -0.125q-0.28125 0 -0.515625 0.140625q-0.234375 0.125 -0.421875 0.34375q-0.1875 0.203125 -0.296875 0.5q-0.09375 0.28125 -0.09375 0.609375q0 0.640625 0.390625 1.109375q0.390625 0.453125 0.9375 0.453125zm-9.234375 0.1875l5.25 -6.140625l4.859375 -6.375l1.140625 1.0l-5.09375 6.03125l-5.03125 6.484375l-1.125 -1.0zm15.241943 -3.46875q0 -0.921875 0.296875 -1.640625q0.296875 -0.734375 1.234375 -1.265625q0.265625 -0.171875 0.671875 -0.390625q0.421875 -0.21875 0.8125 -0.515625q0.390625 -0.296875 0.65625 -0.6875q0.28125 -0.40625 0.28125 -0.9375q0 -0.390625 -0.15625 -0.6875q-0.140625 -0.296875 -0.390625 -0.5q-0.234375 -0.203125 -0.5625 -0.296875q-0.328125 -0.109375 -0.671875 -0.109375q-0.40625 0 -0.75 0.140625q-0.328125 0.140625 -0.609375 0.359375q-0.265625 0.203125 -0.484375 0.484375q-0.203125 0.265625 -0.359375 0.5l-1.609375 -1.109375q0.234375 -0.578125 0.625 -1.03125q0.40625 -0.453125 0.921875 -0.75q0.515625 -0.3125 1.109375 -0.46875q0.609375 -0.15625 1.234375 -0.15625q0.71875 0 1.40625 0.203125q0.6875 0.203125 1.234375 0.65625q0.546875 0.4375 0.890625 1.140625q0.34375 0.703125 0.34375 1.671875q0 0.59375 -0.140625 1.046875q-0.125 0.453125 -0.390625 0.828125q-0.265625 0.375 -0.625 0.671875q-0.34375 0.296875 -0.796875 0.578125q-0.375 0.234375 -0.75 0.4375q-0.375 0.203125 -0.6875 0.453125q-0.296875 0.25 -0.5 0.578125q-0.1875 0.328125 -0.1875 0.796875l-2.046875 0zm0.03125 4.34375l0 -2.578125l2.078125 0l0 2.578125l-2.078125 0z" fill-rule="nonzero"/><path fill="#000000" fill-opacity="0.0" d="m279.3386 352.51538l0 0c0 -1.9342346 1.5679932 -3.5022583 3.5022583 -3.5022583l144.17657 0c0.9288635 0 1.8196716 0.36898804 2.476471 1.0257874c0.6567993 0.6567993 1.0257874 1.5476074 1.0257874 2.476471l0 86.53879c0 1.9342346 -1.5680237 3.5022583 -3.5022583 3.5022583l-144.17657 0c-1.9342651 0 -3.5022583 -1.5680237 -3.5022583 -3.5022583z" fill-rule="evenodd"/><path stroke="#9842a5" stroke-width="4.0" stroke-linejoin="round" stroke-linecap="butt" d="m279.3386 352.51538l0 0c0 -1.9342346 1.5679932 -3.5022583 3.5022583 -3.5022583l144.17657 0c0.9288635 0 1.8196716 0.36898804 2.476471 1.0257874c0.6567993 0.6567993 1.0257874 1.5476074 1.0257874 2.476471l0 86.53879c0 1.9342346 -1.5680237 3.5022583 -3.5022583 3.5022583l-144.17657 0c-1.9342651 0 -3.5022583 -1.5680237 -3.5022583 -3.5022583z" fill-rule="evenodd"/><path fill="#000000" d="m328.11453 391.70477l0 -13.25l2.578125 0l0 11.0l6.75 0l0 2.25l-9.328125 0zm13.332764 0.1875q-0.71875 0 -1.34375 -0.234375q-0.609375 -0.234375 -1.0625 -0.65625q-0.4375 -0.421875 -0.6875 -0.96875q-0.25 -0.5625 -0.25 -1.234375q0 -0.6875 0.296875 -1.28125q0.3125 -0.59375 0.859375 -1.0q0.5625 -0.40625 1.328125 -0.640625q0.765625 -0.234375 1.671875 -0.234375q0.65625 0 1.28125 0.109375q0.625 0.109375 1.109375 0.3125l0 -0.546875q0 -0.96875 -0.5625 -1.484375q-0.546875 -0.53125 -1.625 -0.53125q-0.78125 0 -1.53125 0.28125q-0.734375 0.265625 -1.53125 0.8125l-0.765625 -1.578125q1.890625 -1.25 4.078125 -1.25q2.109375 0 3.265625 1.03125q1.171875 1.03125 1.171875 3.0l0 3.03125q0 0.390625 0.140625 0.5625q0.140625 0.171875 0.453125 0.1875l0 2.125q-0.625 0.125 -1.09375 0.125q-0.71875 0 -1.109375 -0.3125q-0.375 -0.3125 -0.46875 -0.84375l-0.046875 -0.53125q-0.65625 0.859375 -1.59375 1.3125q-0.921875 0.4375 -1.984375 0.4375zm0.703125 -1.828125q0.640625 0 1.203125 -0.21875q0.5625 -0.234375 0.890625 -0.609375q0.40625 -0.3125 0.40625 -0.703125l0 -1.125q-0.453125 -0.15625 -0.984375 -0.265625q-0.515625 -0.109375 -1.0 -0.109375q-0.96875 0 -1.59375 0.453125q-0.609375 0.4375 -0.609375 1.109375q0 0.625 0.484375 1.046875q0.5 0.421875 1.203125 0.421875zm11.380554 1.828125q-1.015625 0 -1.875 -0.390625q-0.84375 -0.390625 -1.46875 -1.078125q-0.609375 -0.703125 -0.953125 -1.625q-0.34375 -0.921875 -0.34375 -1.984375q0 -1.0625 0.3125 -1.96875q0.328125 -0.921875 0.90625 -1.609375q0.578125 -0.6875 1.375 -1.078125q0.8125 -0.390625 1.765625 -0.390625q1.078125 0 1.9375 0.515625q0.875 0.515625 1.359375 1.359375l0 -5.5625l2.5 0l0 10.75q0 0.390625 0.125 0.5625q0.140625 0.171875 0.453125 0.1875l0 2.125q-0.640625 0.125 -1.0625 0.125q-0.671875 0 -1.109375 -0.328125q-0.421875 -0.34375 -0.46875 -0.875l-0.0625 -0.625q-0.53125 0.9375 -1.46875 1.421875q-0.921875 0.46875 -1.921875 0.46875zm0.65625 -2.125q0.34375 0 0.71875 -0.125q0.375 -0.125 0.6875 -0.34375q0.328125 -0.21875 0.578125 -0.515625q0.25 -0.3125 0.375 -0.65625l0 -2.328125q-0.140625 -0.421875 -0.421875 -0.765625q-0.265625 -0.34375 -0.609375 -0.59375q-0.34375 -0.25 -0.734375 -0.390625q-0.375 -0.15625 -0.75 -0.15625q-0.5625 0 -1.046875 0.25q-0.46875 0.234375 -0.8125 0.65625q-0.328125 0.40625 -0.515625 0.953125q-0.171875 0.546875 -0.171875 1.125q0 0.609375 0.203125 1.140625q0.203125 0.515625 0.546875 0.90625q0.359375 0.390625 0.859375 0.625q0.5 0.21875 1.09375 0.21875zm11.377045 2.125q-1.015625 0 -1.875 -0.390625q-0.84375 -0.390625 -1.46875 -1.078125q-0.609375 -0.703125 -0.953125 -1.625q-0.34375 -0.921875 -0.34375 -1.984375q0 -1.0625 0.3125 -1.96875q0.328125 -0.921875 0.90625 -1.609375q0.578125 -0.6875 1.375 -1.078125q0.8125 -0.390625 1.765625 -0.390625q1.078125 0 1.9375 0.515625q0.875 0.515625 1.359375 1.359375l0 -5.5625l2.5 0l0 10.75q0 0.390625 0.125 0.5625q0.140625 0.171875 0.453125 0.1875l0 2.125q-0.640625 0.125 -1.0625 0.125q-0.671875 0 -1.109375 -0.328125q-0.421875 -0.34375 -0.46875 -0.875l-0.0625 -0.625q-0.53125 0.9375 -1.46875 1.421875q-0.921875 0.46875 -1.921875 0.46875zm0.65625 -2.125q0.34375 0 0.71875 -0.125q0.375 -0.125 0.6875 -0.34375q0.328125 -0.21875 0.578125 -0.515625q0.25 -0.3125 0.375 -0.65625l0 -2.328125q-0.140625 -0.421875 -0.421875 -0.765625q-0.265625 -0.34375 -0.609375 -0.59375q-0.34375 -0.25 -0.734375 -0.390625q-0.375 -0.15625 -0.75 -0.15625q-0.5625 0 -1.046875 0.25q-0.46875 0.234375 -0.8125 0.65625q-0.328125 0.40625 -0.515625 0.953125q-0.171875 0.546875 -0.171875 1.125q0 0.609375 0.203125 1.140625q0.203125 0.515625 0.546875 0.90625q0.359375 0.390625 0.859375 0.625q0.5 0.21875 1.09375 0.21875zm10.002014 2.125q-0.71875 0 -1.34375 -0.234375q-0.609375 -0.234375 -1.0625 -0.65625q-0.4375 -0.421875 -0.6875 -0.96875q-0.25 -0.5625 -0.25 -1.234375q0 -0.6875 0.296875 -1.28125q0.3125 -0.59375 0.859375 -1.0q0.5625 -0.40625 1.328125 -0.640625q0.765625 -0.234375 1.671875 -0.234375q0.65625 0 1.28125 0.109375q0.625 0.109375 1.109375 0.3125l0 -0.546875q0 -0.96875 -0.5625 -1.484375q-0.546875 -0.53125 -1.625 -0.53125q-0.78125 0 -1.53125 0.28125q-0.734375 0.265625 -1.53125 0.8125l-0.765625 -1.578125q1.890625 -1.25 4.078125 -1.25q2.109375 0 3.265625 1.03125q1.171875 1.03125 1.171875 3.0l0 3.03125q0 0.390625 0.140625 0.5625q0.140625 0.171875 0.453125 0.1875l0 2.125q-0.625 0.125 -1.09375 0.125q-0.71875 0 -1.109375 -0.3125q-0.375 -0.3125 -0.46875 -0.84375l-0.046875 -0.53125q-0.65625 0.859375 -1.59375 1.3125q-0.921875 0.4375 -1.984375 0.4375zm0.703125 -1.828125q0.640625 0 1.203125 -0.21875q0.5625 -0.234375 0.890625 -0.609375q0.40625 -0.3125 0.40625 -0.703125l0 -1.125q-0.453125 -0.15625 -0.984375 -0.265625q-0.515625 -0.109375 -1.0 -0.109375q-0.96875 0 -1.59375 0.453125q-0.609375 0.4375 -0.609375 1.109375q0 0.625 0.484375 1.046875q0.5 0.421875 1.203125 0.421875z" fill-rule="nonzero"/><path fill="#000000" d="m322.45413 413.89227q-1.125 0 -2.0 -0.5q-0.875 -0.515625 -1.375 -1.390625l0 1.703125l-2.1875 0l0 -13.625l2.5 0l0 5.5625q0.515625 -0.890625 1.359375 -1.375q0.859375 -0.5 2.0 -0.5q0.953125 0 1.734375 0.40625q0.78125 0.40625 1.34375 1.09375q0.578125 0.6875 0.875 1.625q0.3125 0.9375 0.3125 1.96875q0 1.0625 -0.34375 1.984375q-0.34375 0.90625 -0.96875 1.59375q-0.609375 0.671875 -1.453125 1.0625q-0.828125 0.390625 -1.796875 0.390625zm-0.703125 -2.125q0.609375 0 1.109375 -0.234375q0.5 -0.234375 0.859375 -0.625q0.359375 -0.390625 0.546875 -0.90625q0.203125 -0.53125 0.203125 -1.125q0 -0.59375 -0.1875 -1.140625q-0.1875 -0.546875 -0.53125 -0.953125q-0.34375 -0.40625 -0.8125 -0.640625q-0.46875 -0.25 -1.03125 -0.25q-0.84375 0 -1.5 0.546875q-0.65625 0.546875 -1.015625 1.359375l0 2.328125q0.125 0.375 0.375 0.671875q0.25 0.296875 0.5625 0.515625q0.328125 0.203125 0.703125 0.328125q0.375 0.125 0.71875 0.125zm9.640564 2.125q-0.71875 0 -1.34375 -0.234375q-0.609375 -0.234375 -1.0625 -0.65625q-0.4375 -0.421875 -0.6875 -0.96875q-0.25 -0.5625 -0.25 -1.234375q0 -0.6875 0.296875 -1.28125q0.3125 -0.59375 0.859375 -1.0q0.5625 -0.40625 1.328125 -0.640625q0.765625 -0.234375 1.671875 -0.234375q0.65625 0 1.28125 0.109375q0.625 0.109375 1.109375 0.3125l0 -0.546875q0 -0.96875 -0.5625 -1.484375q-0.546875 -0.53125 -1.625 -0.53125q-0.78125 0 -1.53125 0.28125q-0.734375 0.265625 -1.53125 0.8125l-0.765625 -1.578125q1.890625 -1.25 4.078125 -1.25q2.109375 0 3.265625 1.03125q1.171875 1.03125 1.171875 3.0l0 3.03125q0 0.390625 0.140625 0.5625q0.140625 0.171875 0.453125 0.1875l0 2.125q-0.625 0.125 -1.09375 0.125q-0.71875 0 -1.109375 -0.3125q-0.375 -0.3125 -0.46875 -0.84375l-0.046875 -0.53125q-0.65625 0.859375 -1.59375 1.3125q-0.921875 0.4375 -1.984375 0.4375zm0.703125 -1.828125q0.640625 0 1.203125 -0.21875q0.5625 -0.234375 0.890625 -0.609375q0.40625 -0.3125 0.40625 -0.703125l0 -1.125q-0.453125 -0.15625 -0.984375 -0.265625q-0.515625 -0.109375 -1.0 -0.109375q-0.96875 0 -1.59375 0.453125q-0.609375 0.4375 -0.609375 1.109375q0 0.625 0.484375 1.046875q0.5 0.421875 1.203125 0.421875zm13.193054 1.140625q-0.5 0.21875 -1.234375 0.453125q-0.734375 0.21875 -1.53125 0.21875q-0.515625 0 -0.984375 -0.140625q-0.453125 -0.125 -0.796875 -0.40625q-0.34375 -0.296875 -0.546875 -0.75q-0.203125 -0.453125 -0.203125 -1.109375l0 -5.625l-1.296875 0l0 -1.921875l1.296875 0l0 -3.171875l2.5 0l0 3.171875l2.046875 0l0 1.921875l-2.046875 0l0 4.78125q0 0.515625 0.265625 0.734375q0.265625 0.21875 0.65625 0.21875q0.390625 0 0.765625 -0.125q0.375 -0.140625 0.609375 -0.234375l0.5 1.984375zm7.1640015 0q-0.5 0.21875 -1.234375 0.453125q-0.734375 0.21875 -1.53125 0.21875q-0.515625 0 -0.984375 -0.140625q-0.453125 -0.125 -0.796875 -0.40625q-0.34375 -0.296875 -0.546875 -0.75q-0.203125 -0.453125 -0.203125 -1.109375l0 -5.625l-1.296875 0l0 -1.921875l1.296875 0l0 -3.171875l2.5 0l0 3.171875l2.046875 0l0 1.921875l-2.046875 0l0 4.78125q0 0.515625 0.265625 0.734375q0.265625 0.21875 0.65625 0.21875q0.390625 0 0.765625 -0.125q0.375 -0.140625 0.609375 -0.234375l0.5 1.984375zm5.8358765 0.6875q-1.171875 0 -2.125 -0.390625q-0.953125 -0.40625 -1.625 -1.09375q-0.671875 -0.703125 -1.046875 -1.609375q-0.359375 -0.921875 -0.359375 -1.921875q0 -1.046875 0.359375 -1.96875q0.359375 -0.921875 1.03125 -1.625q0.671875 -0.703125 1.625 -1.109375q0.96875 -0.40625 2.15625 -0.40625q1.203125 0 2.140625 0.40625q0.9375 0.40625 1.59375 1.09375q0.671875 0.6875 1.015625 1.609375q0.34375 0.921875 0.34375 1.90625q0 0.234375 -0.015625 0.46875q0 0.21875 -0.03125 0.375l-7.5625 0q0.0625 0.578125 0.28125 1.03125q0.21875 0.4375 0.578125 0.75q0.359375 0.3125 0.796875 0.484375q0.453125 0.171875 0.9375 0.171875q0.75 0 1.40625 -0.359375q0.65625 -0.375 0.90625 -0.96875l2.140625 0.59375q-0.53125 1.125 -1.71875 1.84375q-1.1875 0.71875 -2.828125 0.71875zm2.53125 -5.890625q-0.09375 -1.109375 -0.8125 -1.765625q-0.71875 -0.671875 -1.734375 -0.671875q-0.5 0 -0.953125 0.1875q-0.4375 0.171875 -0.78125 0.5q-0.328125 0.3125 -0.546875 0.765625q-0.203125 0.4375 -0.234375 0.984375l5.0625 0zm9.92511 -1.90625q-1.125 0.015625 -2.03125 0.4375q-0.890625 0.421875 -1.28125 1.265625l0 5.90625l-2.5 0l0 -9.78125l2.296875 0l0 2.09375q0.25 -0.5 0.609375 -0.90625q0.359375 -0.40625 0.765625 -0.703125q0.40625 -0.296875 0.828125 -0.453125q0.421875 -0.15625 0.8125 -0.15625q0.203125 0 0.296875 0q0.109375 0 0.203125 0.015625l0 2.28125zm1.4074707 7.609375l0 -9.78125l2.5 0l0 9.78125l-2.5 0zm0 -11.140625l0 -2.484375l2.5 0l0 2.484375l-2.5 0zm9.288574 11.328125q-1.171875 0 -2.125 -0.390625q-0.953125 -0.40625 -1.625 -1.09375q-0.671875 -0.703125 -1.046875 -1.609375q-0.359375 -0.921875 -0.359375 -1.921875q0 -1.046875 0.359375 -1.96875q0.359375 -0.921875 1.03125 -1.625q0.671875 -0.703125 1.625 -1.109375q0.96875 -0.40625 2.15625 -0.40625q1.203125 0 2.140625 0.40625q0.9375 0.40625 1.59375 1.09375q0.671875 0.6875 1.015625 1.609375q0.34375 0.921875 0.34375 1.90625q0 0.234375 -0.015625 0.46875q0 0.21875 -0.03125 0.375l-7.5625 0q0.0625 0.578125 0.28125 1.03125q0.21875 0.4375 0.578125 0.75q0.359375 0.3125 0.796875 0.484375q0.453125 0.171875 0.9375 0.171875q0.75 0 1.40625 -0.359375q0.65625 -0.375 0.90625 -0.96875l2.140625 0.59375q-0.53125 1.125 -1.71875 1.84375q-1.1875 0.71875 -2.828125 0.71875zm2.53125 -5.890625q-0.09375 -1.109375 -0.8125 -1.765625q-0.71875 -0.671875 -1.734375 -0.671875q-0.5 0 -0.953125 0.1875q-0.4375 0.171875 -0.78125 0.5q-0.328125 0.3125 -0.546875 0.765625q-0.203125 0.4375 -0.234375 0.984375l5.0625 0zm9.971985 5.203125q-0.5 0.21875 -1.234375 0.453125q-0.734375 0.21875 -1.53125 0.21875q-0.515625 0 -0.984375 -0.140625q-0.453125 -0.125 -0.796875 -0.40625q-0.34375 -0.296875 -0.546875 -0.75q-0.203125 -0.453125 -0.203125 -1.109375l0 -5.625l-1.296875 0l0 -1.921875l1.296875 0l0 -3.171875l2.5 0l0 3.171875l2.046875 0l0 1.921875l-2.046875 0l0 4.78125q0 0.515625 0.265625 0.734375q0.265625 0.21875 0.65625 0.21875q0.390625 0 0.765625 -0.125q0.375 -0.140625 0.609375 -0.234375l0.5 1.984375z" fill-rule="nonzero"/><path fill="#000000" fill-opacity="0.0" d="m129.59317 128.10236l0.53544617 57.826782" fill-rule="evenodd"/><path stroke="#000000" stroke-width="2.0" stroke-linejoin="round" stroke-linecap="butt" d="m129.59317 128.10236l0.42433167 45.827286" fill-rule="evenodd"/><path fill="#000000" stroke="#000000" stroke-width="2.0" stroke-linecap="butt" d="m126.71418 173.96024l3.387352 9.045212l3.2192993 -9.106384z" fill-rule="evenodd"/><path fill="#000000" fill-opacity="0.0" d="m222.6063 279.48032l132.31497 0l0 69.543304" fill-rule="evenodd"/><path stroke="#000000" stroke-width="2.0" stroke-linejoin="round" stroke-linecap="butt" d="m222.6063 279.48032l132.31497 0l0 57.543304" fill-rule="evenodd"/><path fill="#000000" stroke="#000000" stroke-width="2.0" stroke-linecap="butt" d="m351.6178 337.02362l3.3034668 9.076202l3.3034668 -9.076202z" fill-rule="evenodd"/><path fill="#000000" fill-opacity="0.0" d="m354.92914 442.55643l0 58.771667l-149.35434 0" fill-rule="evenodd"/><path stroke="#000000" stroke-width="2.0" stroke-linejoin="round" stroke-linecap="butt" d="m354.92914 442.55643l0 58.771667l-137.35434 0" fill-rule="evenodd"/><path fill="#000000" stroke="#000000" stroke-width="2.0" stroke-linecap="butt" d="m217.5748 498.02463l-9.076187 3.3034668l9.076187 3.3034668z" fill-rule="evenodd"/><path fill="#000000" fill-opacity="0.0" d="m54.401573 458.33026l0 0c0 -1.921875 1.5579872 -3.4798584 3.4798584 -3.4798584l144.22137 0c0.92292786 0 1.8080444 0.36660767 2.4606323 1.0192261c0.65260315 0.6525879 1.0192261 1.5377197 1.0192261 2.4606323l0 85.98517c0 1.921875 -1.5579834 3.4798584 -3.4798584 3.4798584l-144.22137 0c-1.9218712 0 -3.4798584 -1.5579834 -3.4798584 -3.4798584z" fill-rule="evenodd"/><path stroke="#9842a5" stroke-width="4.0" stroke-linejoin="round" stroke-linecap="butt" d="m54.401573 458.33026l0 0c0 -1.921875 1.5579872 -3.4798584 3.4798584 -3.4798584l144.22137 0c0.92292786 0 1.8080444 0.36660767 2.4606323 1.0192261c0.65260315 0.6525879 1.0192261 1.5377197 1.0192261 2.4606323l0 85.98517c0 1.921875 -1.5579834 3.4798584 -3.4798584 3.4798584l-144.22137 0c-1.9218712 0 -3.4798584 -1.5579834 -3.4798584 -3.4798584z" fill-rule="evenodd"/><path fill="#000000" d="m93.2794 498.46158q-0.125 -0.125 -0.46875 -0.34375q-0.34375 -0.234375 -0.84375 -0.4375q-0.484375 -0.21875 -1.0625 -0.359375q-0.578125 -0.15625 -1.1875 -0.15625q-1.0625 0 -1.59375 0.390625q-0.515625 0.390625 -0.515625 1.09375q0 0.421875 0.203125 0.6875q0.203125 0.265625 0.5625 0.46875q0.375 0.203125 0.9375 0.375q0.578125 0.171875 1.328125 0.359375q0.96875 0.265625 1.75 0.5625q0.796875 0.296875 1.34375 0.75q0.5625 0.4375 0.859375 1.0625q0.296875 0.625 0.296875 1.546875q0 1.0625 -0.40625 1.8125q-0.390625 0.75 -1.078125 1.21875q-0.671875 0.46875 -1.5625 0.6875q-0.890625 0.21875 -1.859375 0.21875q-1.484375 0 -2.953125 -0.453125q-1.453125 -0.453125 -2.609375 -1.265625l1.140625 -2.21875q0.171875 0.15625 0.609375 0.4375q0.4375 0.265625 1.03125 0.546875q0.59375 0.265625 1.328125 0.453125q0.734375 0.171875 1.484375 0.171875q2.140625 0 2.140625 -1.359375q0 -0.421875 -0.25 -0.71875q-0.234375 -0.296875 -0.6875 -0.515625q-0.453125 -0.234375 -1.09375 -0.421875q-0.625 -0.1875 -1.40625 -0.40625q-0.953125 -0.265625 -1.65625 -0.5625q-0.703125 -0.3125 -1.171875 -0.734375q-0.453125 -0.421875 -0.6875 -0.96875q-0.234375 -0.546875 -0.234375 -1.3125q0 -1.015625 0.375 -1.796875q0.375 -0.78125 1.03125 -1.296875q0.65625 -0.53125 1.53125 -0.796875q0.890625 -0.28125 1.890625 -0.28125q1.40625 0 2.578125 0.4375q1.171875 0.4375 2.046875 1.046875l-1.140625 2.078125zm9.170654 9.28125q-0.5 0.21875 -1.234375 0.453125q-0.734375 0.21875 -1.53125 0.21875q-0.515625 0 -0.984375 -0.140625q-0.453125 -0.125 -0.796875 -0.40625q-0.34375 -0.296875 -0.546875 -0.75q-0.203125 -0.453125 -0.203125 -1.109375l0 -5.625l-1.296875 0l0 -1.921875l1.296875 0l0 -3.171875l2.5 0l0 3.171875l2.046875 0l0 1.921875l-2.046875 0l0 4.78125q0 0.515625 0.265625 0.734375q0.265625 0.21875 0.65625 0.21875q0.390625 0 0.765625 -0.125q0.375 -0.140625 0.609375 -0.234375l0.5 1.984375zm3.9765015 0.6875q-0.71875 0 -1.34375 -0.234375q-0.609375 -0.234375 -1.0625 -0.65625q-0.4375 -0.421875 -0.6875 -0.96875q-0.25 -0.5625 -0.25 -1.234375q0 -0.6875 0.296875 -1.28125q0.3125 -0.59375 0.859375 -1.0q0.5625 -0.40625 1.328125 -0.640625q0.765625 -0.234375 1.671875 -0.234375q0.65625 0 1.28125 0.109375q0.625 0.109375 1.109375 0.3125l0 -0.546875q0 -0.96875 -0.5625 -1.484375q-0.546875 -0.53125 -1.625 -0.53125q-0.78125 0 -1.53125 0.28125q-0.734375 0.265625 -1.53125 0.8125l-0.765625 -1.578125q1.890625 -1.25 4.078125 -1.25q2.109375 0 3.265625 1.03125q1.171875 1.03125 1.171875 3.0l0 3.03125q0 0.390625 0.140625 0.5625q0.140625 0.171875 0.453125 0.1875l0 2.125q-0.625 0.125 -1.09375 0.125q-0.71875 0 -1.109375 -0.3125q-0.375 -0.3125 -0.46875 -0.84375l-0.046875 -0.53125q-0.65625 0.859375 -1.59375 1.3125q-0.921875 0.4375 -1.984375 0.4375zm0.703125 -1.828125q0.640625 0 1.203125 -0.21875q0.5625 -0.234375 0.890625 -0.609375q0.40625 -0.3125 0.40625 -0.703125l0 -1.125q-0.453125 -0.15625 -0.984375 -0.265625q-0.515625 -0.109375 -1.0 -0.109375q-0.96875 0 -1.59375 0.453125q-0.609375 0.4375 -0.609375 1.109375q0 0.625 0.484375 1.046875q0.5 0.421875 1.203125 0.421875zm13.146194 -5.96875q-1.125 0.015625 -2.03125 0.4375q-0.890625 0.421875 -1.28125 1.265625l0 5.90625l-2.5 0l0 -9.78125l2.296875 0l0 2.09375q0.25 -0.5 0.609375 -0.90625q0.359375 -0.40625 0.765625 -0.703125q0.40625 -0.296875 0.828125 -0.453125q0.421875 -0.15625 0.8125 -0.15625q0.203125 0 0.296875 0q0.109375 0 0.203125 0.015625l0 2.28125zm7.2668457 7.109375q-0.5 0.21875 -1.234375 0.453125q-0.734375 0.21875 -1.53125 0.21875q-0.515625 0 -0.984375 -0.140625q-0.453125 -0.125 -0.796875 -0.40625q-0.34375 -0.296875 -0.546875 -0.75q-0.203125 -0.453125 -0.203125 -1.109375l0 -5.625l-1.296875 0l0 -1.921875l1.296875 0l0 -3.171875l2.5 0l0 3.171875l2.046875 0l0 1.921875l-2.046875 0l0 4.78125q0 0.515625 0.265625 0.734375q0.265625 0.21875 0.65625 0.21875q0.390625 0 0.765625 -0.125q0.375 -0.140625 0.609375 -0.234375l0.5 1.984375zm3.9765015 0.6875q-0.71875 0 -1.34375 -0.234375q-0.609375 -0.234375 -1.0625 -0.65625q-0.4375 -0.421875 -0.6875 -0.96875q-0.25 -0.5625 -0.25 -1.234375q0 -0.6875 0.296875 -1.28125q0.3125 -0.59375 0.859375 -1.0q0.5625 -0.40625 1.328125 -0.640625q0.765625 -0.234375 1.671875 -0.234375q0.65625 0 1.28125 0.109375q0.625 0.109375 1.109375 0.3125l0 -0.546875q0 -0.96875 -0.5625 -1.484375q-0.546875 -0.53125 -1.625 -0.53125q-0.78125 0 -1.53125 0.28125q-0.734375 0.265625 -1.53125 0.8125l-0.765625 -1.578125q1.890625 -1.25 4.078125 -1.25q2.109375 0 3.265625 1.03125q1.171875 1.03125 1.171875 3.0l0 3.03125q0 0.390625 0.140625 0.5625q0.140625 0.171875 0.453125 0.1875l0 2.125q-0.625 0.125 -1.09375 0.125q-0.71875 0 -1.109375 -0.3125q-0.375 -0.3125 -0.46875 -0.84375l-0.046875 -0.53125q-0.65625 0.859375 -1.59375 1.3125q-0.921875 0.4375 -1.984375 0.4375zm0.703125 -1.828125q0.640625 0 1.203125 -0.21875q0.5625 -0.234375 0.890625 -0.609375q0.40625 -0.3125 0.40625 -0.703125l0 -1.125q-0.453125 -0.15625 -0.984375 -0.265625q-0.515625 -0.109375 -1.0 -0.109375q-0.96875 0 -1.59375 0.453125q-0.609375 0.4375 -0.609375 1.109375q0 0.625 0.484375 1.046875q0.5 0.421875 1.203125 0.421875zm17.623703 -5.96875q-1.125 0.015625 -2.03125 0.4375q-0.890625 0.421875 -1.28125 1.265625l0 5.90625l-2.5 0l0 -9.78125l2.296875 0l0 2.09375q0.25 -0.5 0.609375 -0.90625q0.359375 -0.40625 0.765625 -0.703125q0.40625 -0.296875 0.828125 -0.453125q0.421875 -0.15625 0.8125 -0.15625q0.203125 0 0.296875 0q0.109375 0 0.203125 0.015625l0 2.28125zm4.3918457 7.796875q-1.515625 0 -2.296875 -0.96875q-0.78125 -0.96875 -0.78125 -2.875l0 -6.125l2.5 0l0 5.578125q0 2.265625 1.625 2.265625q0.71875 0 1.390625 -0.4375q0.6875 -0.4375 1.125 -1.34375l0 -6.0625l2.5 0l0 6.90625q0 0.390625 0.140625 0.5625q0.140625 0.171875 0.453125 0.1875l0 2.125q-0.375 0.078125 -0.625 0.09375q-0.25 0.015625 -0.453125 0.015625q-0.671875 0 -1.09375 -0.296875q-0.421875 -0.3125 -0.5 -0.859375l-0.046875 -0.78125q-0.65625 1.0 -1.6875 1.515625q-1.015625 0.5 -2.25 0.5zm14.404572 -0.6875q-0.5 0.21875 -1.234375 0.453125q-0.734375 0.21875 -1.53125 0.21875q-0.515625 0 -0.984375 -0.140625q-0.453125 -0.125 -0.796875 -0.40625q-0.34375 -0.296875 -0.546875 -0.75q-0.203125 -0.453125 -0.203125 -1.109375l0 -5.625l-1.296875 0l0 -1.921875l1.296875 0l0 -3.171875l2.5 0l0 3.171875l2.046875 0l0 1.921875l-2.046875 0l0 4.78125q0 0.515625 0.265625 0.734375q0.265625 0.21875 0.65625 0.21875q0.390625 0 0.765625 -0.125q0.375 -0.140625 0.609375 -0.234375l0.5 1.984375zm7.1640015 0q-0.5 0.21875 -1.234375 0.453125q-0.734375 0.21875 -1.53125 0.21875q-0.515625 0 -0.984375 -0.140625q-0.453125 -0.125 -0.796875 -0.40625q-0.34375 -0.296875 -0.546875 -0.75q-0.203125 -0.453125 -0.203125 -1.109375l0 -5.625l-1.296875 0l0 -1.921875l1.296875 0l0 -3.171875l2.5 0l0 3.171875l2.046875 0l0 1.921875l-2.046875 0l0 4.78125q0 0.515625 0.265625 0.734375q0.265625 0.21875 0.65625 0.21875q0.390625 0 0.765625 -0.125q0.375 -0.140625 0.609375 -0.234375l0.5 1.984375z" fill-rule="nonzero"/><path fill="#000000" fill-opacity="0.0" d="m130.12862 373.02362l53.13385 0l0 40.6929l-53.13385 0z" fill-rule="evenodd"/><path fill="#000000" d="m149.34737 399.94363l-2.5 0l0 -5.484375q0 -1.171875 -0.40625 -1.71875q-0.40625 -0.546875 -1.140625 -0.546875q-0.375 0 -0.765625 0.15625q-0.390625 0.15625 -0.734375 0.421875q-0.34375 0.265625 -0.625 0.640625q-0.28125 0.375 -0.40625 0.828125l0 5.703125l-2.5 0l0 -9.78125l2.25 0l0 1.8125q0.546875 -0.9375 1.5625 -1.453125q1.03125 -0.515625 2.328125 -0.515625q0.90625 0 1.484375 0.34375q0.578125 0.328125 0.890625 0.875q0.328125 0.53125 0.4375 1.21875q0.125 0.6875 0.125 1.40625l0 6.09375zm6.7214966 0.1875q-1.171875 0 -2.125 -0.390625q-0.953125 -0.40625 -1.625 -1.09375q-0.671875 -0.703125 -1.046875 -1.609375q-0.359375 -0.921875 -0.359375 -1.921875q0 -1.046875 0.359375 -1.96875q0.359375 -0.921875 1.03125 -1.625q0.671875 -0.703125 1.625 -1.109375q0.96875 -0.40625 2.15625 -0.40625q1.203125 0 2.140625 0.40625q0.9375 0.40625 1.59375 1.09375q0.671875 0.6875 1.015625 1.609375q0.34375 0.921875 0.34375 1.90625q0 0.234375 -0.015625 0.46875q0 0.21875 -0.03125 0.375l-7.5625 0q0.0625 0.578125 0.28125 1.03125q0.21875 0.4375 0.578125 0.75q0.359375 0.3125 0.796875 0.484375q0.453125 0.171875 0.9375 0.171875q0.75 0 1.40625 -0.359375q0.65625 -0.375 0.90625 -0.96875l2.140625 0.59375q-0.53125 1.125 -1.71875 1.84375q-1.1875 0.71875 -2.828125 0.71875zm2.53125 -5.890625q-0.09375 -1.109375 -0.8125 -1.765625q-0.71875 -0.671875 -1.734375 -0.671875q-0.5 0 -0.953125 0.1875q-0.4375 0.171875 -0.78125 0.5q-0.328125 0.3125 -0.546875 0.765625q-0.203125 0.4375 -0.234375 0.984375l5.0625 0zm3.3000946 9.359375q-0.703125 0 -1.328125 -0.21875q-0.640625 -0.203125 -1.140625 -0.65625l1.078125 -1.703125q0.203125 0.203125 0.5 0.3125q0.296875 0.109375 0.59375 0.109375q0.484375 0 0.84375 -0.359375q0.359375 -0.34375 0.359375 -0.875l0 -10.046875l2.5 0l0 9.859375q0 0.78125 -0.265625 1.4375q-0.265625 0.671875 -0.71875 1.140625q-0.453125 0.484375 -1.078125 0.734375q-0.625 0.265625 -1.34375 0.265625zm0.90625 -14.796875l0 -2.484375l2.5 0l0 2.484375l-2.5 0z" fill-rule="nonzero"/><path fill="#000000" fill-opacity="0.0" d="m225.19685 236.7874l53.133865 0l0 40.692917l-53.133865 0z" fill-rule="evenodd"/><path fill="#000000" d="m234.52498 267.36365q-0.703125 0 -1.328125 -0.21875q-0.640625 -0.203125 -1.140625 -0.65625l1.078125 -1.703125q0.203125 0.203125 0.5 0.3125q0.296875 0.109375 0.59375 0.109375q0.484375 0 0.84375 -0.359375q0.359375 -0.34375 0.359375 -0.875l0 -10.046875l2.5 0l0 9.859375q0 0.78125 -0.265625 1.4375q-0.265625 0.671875 -0.71875 1.140625q-0.453125 0.484375 -1.078125 0.734375q-0.625 0.265625 -1.34375 0.265625zm0.90625 -14.796875l0 -2.484375l2.5 0l0 2.484375l-2.5 0zm7.447403 11.328125q-0.71875 0 -1.34375 -0.234375q-0.609375 -0.234375 -1.0625 -0.65625q-0.4375 -0.421875 -0.6875 -0.96875q-0.25 -0.5625 -0.25 -1.234375q0 -0.6875 0.296875 -1.28125q0.3125 -0.59375 0.859375 -1.0q0.5625 -0.40625 1.328125 -0.640625q0.765625 -0.234375 1.671875 -0.234375q0.65625 0 1.28125 0.109375q0.625 0.109375 1.109375 0.3125l0 -0.546875q0 -0.96875 -0.5625 -1.484375q-0.546875 -0.53125 -1.625 -0.53125q-0.78125 0 -1.53125 0.28125q-0.734375 0.265625 -1.53125 0.8125l-0.765625 -1.578125q1.890625 -1.25 4.078125 -1.25q2.109375 0 3.265625 1.03125q1.171875 1.03125 1.171875 3.0l0 3.03125q0 0.390625 0.140625 0.5625q0.140625 0.171875 0.453125 0.1875l0 2.125q-0.625 0.125 -1.09375 0.125q-0.71875 0 -1.109375 -0.3125q-0.375 -0.3125 -0.46875 -0.84375l-0.046875 -0.53125q-0.65625 0.859375 -1.59375 1.3125q-0.921875 0.4375 -1.984375 0.4375zm0.703125 -1.828125q0.640625 0 1.203125 -0.21875q0.5625 -0.234375 0.890625 -0.609375q0.40625 -0.3125 0.40625 -0.703125l0 -1.125q-0.453125 -0.15625 -0.984375 -0.265625q-0.515625 -0.109375 -1.0 -0.109375q-0.96875 0 -1.59375 0.453125q-0.609375 0.4375 -0.609375 1.109375q0 0.625 0.484375 1.046875q0.5 0.421875 1.203125 0.421875z" fill-rule="nonzero"/><path fill="#000000" fill-opacity="0.0" d="m130.1181 373.02362l-0.12597656 81.82678" fill-rule="evenodd"/><path stroke="#000000" stroke-width="2.0" stroke-linejoin="round" stroke-linecap="butt" d="m130.1181 373.02362l-0.10749817 69.82678" fill-rule="evenodd"/><path fill="#000000" stroke="#000000" stroke-width="2.0" stroke-linecap="butt" d="m126.70714 442.84534l3.2894897 9.081268l3.3174286 -9.071106z" fill-rule="evenodd"/></g></svg>