<?xml version="1.0" encoding="UTF-8"?>
<!DOCTYPE svg PUBLIC "-//W3C//DTD SVG 1.1//EN" "http://www.w3.org/Graphics/SVG/1.1/DTD/svg11.dtd">
<svg version="1.1" xmlns="http://www.w3.org/2000/svg" xmlns:xlink="http://www.w3.org/1999/xlink" x="0" y="0" width="928.06" height="100.8" viewBox="0, 0, 928.06, 100.8">
  <g id="Layer_1">
    <path d="M0,100.1 L0,0.7 L41.16,0.7 Q47.6,0.7 52.99,3.43 Q58.38,6.16 62.3,10.57 Q66.22,14.98 68.46,20.58 Q70.7,26.18 70.7,31.92 Q70.7,38.08 68.6,43.75 Q66.5,49.42 62.72,53.76 Q58.94,58.1 53.69,60.76 Q48.44,63.42 42,63.42 L9.8,63.42 L9.8,100.1 z M9.8,54.74 L41.58,54.74 Q45.92,54.74 49.49,52.85 Q53.06,50.96 55.58,47.81 Q58.1,44.66 59.5,40.53 Q60.9,36.4 60.9,31.92 Q60.9,27.3 59.29,23.17 Q57.68,19.04 54.95,15.96 Q52.22,12.88 48.51,11.13 Q44.8,9.38 40.74,9.38 L9.8,9.38 z" fill="#8E9B9D"/>
    <path d="M87.08,100.1 L87.08,0.7 L96.88,0.7 L96.88,91.42 L154.28,91.42 L154.28,100.1 z" fill="#8E9B9D"/>
    <path d="M199.5,0.7 L207.76,0.7 L249.06,100.1 L238.7,100.1 L225.82,69.02 L181.16,69.02 L168.42,100.1 L157.92,100.1 z M223.58,61.32 L203.56,12.18 L183.26,61.32 z" fill="#8E9B9D"/>
    <path d="M252.28,0.7 L284.76,54.18 L317.52,0.7 L328.16,0.7 L289.66,63.14 L289.66,100.1 L279.86,100.1 L279.86,62.86 L241.5,0.7 z" fill="#8E9B9D"/>
    <path d="M407.96,85.54 Q394.1,100.8 376.04,100.8 Q365.96,100.8 357.49,96.46 Q349.02,92.12 342.79,84.98 Q336.56,77.84 333.06,68.81 Q329.56,59.78 329.56,50.26 Q329.56,40.32 332.99,31.22 Q336.42,22.12 342.58,15.19 Q348.74,8.26 357.14,4.13 Q365.54,0 375.48,0 Q382.76,0 388.78,1.61 Q394.8,3.22 399.49,6.09 Q404.18,8.96 407.61,12.95 Q411.04,16.94 413.42,21.7 L405.86,26.74 Q400.96,17.5 393.12,13.16 Q385.28,8.82 375.34,8.82 Q367.08,8.82 360.43,12.32 Q353.78,15.82 349.09,21.63 Q344.4,27.44 341.88,34.93 Q339.36,42.42 339.36,50.4 Q339.36,58.8 342.23,66.36 Q345.1,73.92 350.14,79.59 Q355.18,85.26 361.97,88.62 Q368.76,91.98 376.74,91.98 Q385.28,91.98 393.05,87.99 Q400.82,84 407.96,75.32 L407.96,58.8 L385.84,58.8 L385.84,51.24 L416.22,51.24 L416.22,100.1 L407.96,100.1 z" fill="#8E9B9D"/>
    <path d="M436.38,100.1 L436.38,0.7 L478.38,0.7 Q484.82,0.7 490.21,3.43 Q495.6,6.16 499.52,10.57 Q503.44,14.98 505.61,20.58 Q507.78,26.18 507.78,31.92 Q507.78,37.38 506.17,42.35 Q504.56,47.32 501.69,51.31 Q498.82,55.3 494.76,58.03 Q490.7,60.76 485.66,61.74 L510.02,100.1 L498.96,100.1 L475.58,63.42 L446.18,63.42 L446.18,100.1 z M446.18,54.74 L478.66,54.74 Q483,54.74 486.57,52.85 Q490.14,50.96 492.66,47.74 Q495.18,44.52 496.58,40.46 Q497.98,36.4 497.98,31.92 Q497.98,27.44 496.37,23.31 Q494.76,19.18 492.03,16.1 Q489.3,13.02 485.59,11.2 Q481.88,9.38 477.82,9.38 L446.18,9.38 z" fill="#8E9B9D"/>
    <path d="M567.84,100.8 Q557.48,100.8 548.87,96.53 Q540.26,92.26 534.1,85.19 Q527.94,78.12 524.58,69.02 Q521.22,59.92 521.22,50.4 Q521.22,40.46 524.79,31.36 Q528.36,22.26 534.66,15.26 Q540.96,8.26 549.5,4.13 Q558.04,0 567.98,0 Q578.34,0 586.95,4.41 Q595.56,8.82 601.65,15.96 Q607.74,23.1 611.1,32.13 Q614.46,41.16 614.46,50.54 Q614.46,60.48 610.89,69.58 Q607.32,78.68 601.09,85.61 Q594.86,92.54 586.32,96.67 Q577.78,100.8 567.84,100.8 z M531.02,50.4 Q531.02,58.52 533.68,66.01 Q536.34,73.5 541.24,79.31 Q546.14,85.12 552.86,88.55 Q559.58,91.98 567.84,91.98 Q576.24,91.98 583.1,88.34 Q589.96,84.7 594.72,78.82 Q599.48,72.94 602.07,65.52 Q604.66,58.1 604.66,50.4 Q604.66,42.28 601.93,34.79 Q599.2,27.3 594.3,21.56 Q589.4,15.82 582.68,12.39 Q575.96,8.96 567.84,8.96 Q559.44,8.96 552.58,12.53 Q545.72,16.1 540.96,21.98 Q536.2,27.86 533.61,35.28 Q531.02,42.7 531.02,50.4 z" fill="#8E9B9D"/>
    <path d="M673.26,91.98 Q682.64,91.98 688.87,88.41 Q695.1,84.84 698.81,79.03 Q702.52,73.22 703.99,65.8 Q705.46,58.38 705.46,50.82 L705.46,0.7 L715.26,0.7 L715.26,50.82 Q715.26,60.9 713.02,69.93 Q710.78,78.96 705.81,85.82 Q700.84,92.68 692.86,96.74 Q684.88,100.8 673.4,100.8 Q661.64,100.8 653.59,96.53 Q645.54,92.26 640.64,85.26 Q635.74,78.26 633.64,69.3 Q631.54,60.34 631.54,50.82 L631.54,0.7 L641.2,0.7 L641.2,50.82 Q641.2,58.66 642.74,66.08 Q644.28,73.5 647.99,79.24 Q651.7,84.98 657.86,88.48 Q664.02,91.98 673.26,91.98 z" fill="#8E9B9D"/>
    <path d="M748.44,18.9 L748.44,100.1 L738.64,100.1 L738.64,0.7 L746.2,0.7 L812,83.44 L812,0.84 L821.8,0.84 L821.8,100.1 L813.26,100.1 z" fill="#8E9B9D"/>
    <path d="M846.72,100.1 L846.72,0.7 L880.46,0.7 Q892.36,0.7 901.25,4.62 Q910.14,8.54 916.09,15.26 Q922.04,21.98 925.05,31.01 Q928.06,40.04 928.06,50.26 Q928.06,61.6 924.7,70.77 Q921.34,79.94 915.11,86.45 Q908.88,92.96 900.13,96.53 Q891.38,100.1 880.46,100.1 z M918.26,50.26 Q918.26,41.3 915.74,33.81 Q913.22,26.32 908.39,20.86 Q903.56,15.4 896.56,12.39 Q889.56,9.38 880.46,9.38 L856.52,9.38 L856.52,91.42 L880.46,91.42 Q889.7,91.42 896.77,88.27 Q903.84,85.12 908.6,79.59 Q913.36,74.06 915.81,66.57 Q918.26,59.08 918.26,50.26 z" fill="#8E9B9D"/>
  </g>
</svg>
