<?xml version="1.0" encoding="UTF-8"?>
<!DOCTYPE svg PUBLIC "-//W3C//DTD SVG 1.1//EN" "http://www.w3.org/Graphics/SVG/1.1/DTD/svg11.dtd">
<svg version="1.1" xmlns="http://www.w3.org/2000/svg" xmlns:xlink="http://www.w3.org/1999/xlink" x="0" y="0" width="526.469" height="522.73" viewBox="0, 0, 526.469, 522.73">
  <g id="Layer_1">
    <g>
      <path d="M40.408,44.094 L124.194,44.094 C132.151,44.094 138.602,50.544 138.602,58.501 L138.602,469.584 C138.602,477.541 132.151,483.992 124.194,483.992 L40.408,483.992 C32.45,483.992 26,477.541 26,469.584 L26,58.501 C26,50.544 32.45,44.094 40.408,44.094 z" fill="#2B4C52"/>
      <path d="M124.194,37.094 C136.017,37.094 145.602,46.678 145.602,58.501 L145.602,469.584 C145.602,481.407 136.017,490.992 124.194,490.992 L40.408,490.992 C28.584,490.992 19,481.407 19,469.584 L19,58.501 C19,46.678 28.584,37.094 40.408,37.094 L124.194,37.094 z M124.194,44.094 L40.408,44.094 C32.45,44.094 26,50.544 26,58.501 L26,469.584 C26,477.541 32.45,483.992 40.408,483.992 L124.194,483.992 C132.151,483.992 138.602,477.541 138.602,469.584 L138.602,58.501 C138.602,50.544 132.151,44.094 124.194,44.094 z" fill="#2B4C52"/>
    </g>
    <g>
      <path d="M171.722,59.686 L240.495,59.686 C248.452,59.686 254.903,66.136 254.903,74.094 L254.903,469.584 C254.903,477.541 248.452,483.992 240.495,483.992 L171.722,483.992 C163.765,483.992 157.314,477.541 157.314,469.584 L157.314,74.094 C157.314,66.136 163.765,59.686 171.722,59.686 z" fill="#2B4C52"/>
      <path d="M240.495,52.686 C252.318,52.686 261.903,62.27 261.903,74.093 L261.903,469.584 C261.903,481.407 252.318,490.992 240.495,490.992 L171.722,490.992 C159.899,490.992 150.314,481.407 150.314,469.584 L150.314,74.093 C150.314,62.27 159.899,52.686 171.722,52.686 L240.495,52.686 z M240.495,59.686 L171.722,59.686 C163.765,59.686 157.314,66.136 157.314,74.093 L157.314,469.584 C157.314,477.541 163.765,483.992 171.722,483.992 L240.495,483.992 C248.452,483.992 254.903,477.541 254.903,469.584 L254.903,74.093 C254.903,66.136 248.452,59.686 240.495,59.686 z" fill="#2B4C52"/>
    </g>
    <path d="M26,161.765 L138.602,161.765 L138.602,298.849 L26,298.849 L26,161.765 z" fill="#9841A5"/>
    <g>
      <path d="M282.743,39.382 L315.316,36.075 C323.232,35.271 330.301,41.037 331.105,48.953 L373.329,464.827 C374.133,472.743 368.367,479.812 360.451,480.616 L327.877,483.923 C319.961,484.727 312.892,478.961 312.088,471.044 L269.864,55.171 C269.061,47.255 274.826,40.186 282.743,39.382 z" fill="#2B4C52"/>
      <path d="M316.798,28.999 C328.074,29.486 336.375,37.158 338.069,48.246 L380.293,464.119 C381.488,475.882 372.92,486.386 361.158,487.58 L328.584,490.887 C316.822,492.081 306.318,483.514 305.124,471.751 L262.9,55.878 C261.706,44.116 270.273,33.612 282.036,32.418 L314.609,29.111 L316.798,28.999 z M316.789,36 L315.316,36.075 L282.743,39.382 C274.826,40.186 269.061,47.255 269.864,55.171 L312.088,471.044 C312.892,478.961 319.961,484.727 327.877,483.923 L360.451,480.616 C368.367,479.812 374.133,472.743 373.329,464.827 L331.105,48.953 C329.86,40.744 324.764,36.8 316.789,36 z" fill="#2B4C52"/>
    </g>
    <g>
      <path d="M372.282,148.21 L430.573,138.231 C438.416,136.888 445.862,142.158 447.205,150.001 L500.26,459.909 C501.602,467.752 496.333,475.199 488.49,476.542 L430.199,486.521 C422.356,487.863 414.909,482.594 413.567,474.751 L360.512,164.842 C359.169,156.999 364.439,149.552 372.282,148.21 z" fill="#2B4C52"/>
      <path d="M431.568,131.071 C442.852,130.786 451.657,137.873 454.105,148.819 L507.159,458.728 C509.154,470.382 501.325,481.446 489.671,483.441 L431.38,493.42 C419.726,495.415 408.662,487.586 406.667,475.932 L353.612,166.023 C351.617,154.37 359.447,143.305 371.101,141.31 L429.392,131.331 L431.568,131.071 z M432.038,138.055 L430.573,138.231 L372.282,148.21 C364.439,149.552 359.169,156.999 360.512,164.842 L413.567,474.751 C414.909,482.594 422.356,487.863 430.199,486.521 L488.49,476.542 C496.333,475.199 501.602,467.752 500.26,459.909 L447.205,150.001 C446.038,143.871 441.175,138.964 434.905,138.146 C433.957,138.022 432.993,138.086 432.038,138.055 z" fill="#2B4C52"/>
    </g>
    <path d="M155.98,437.873 L155.98,437.873 L155.98,437.873 C156.313,437.873 156.583,437.603 156.583,437.27 C156.583,436.937 156.313,436.667 155.98,436.667 L155.98,436.667 C155.98,436.667 155.98,436.667 155.98,436.667 C155.647,436.667 155.377,436.937 155.377,437.27 C155.377,437.603 155.647,437.873 155.98,437.873 L155.98,437.873" fill="#000000"/>
    <g>
      <g>
        <path d="M80.696,204.64 L80.473,205.01 L80.07,205.635 L79.748,206.163 L79.497,206.628 L79.248,207.028 L79.037,207.375 L78.847,207.672 L78.676,207.924 L78.508,208.133 L78.36,208.312 L78.217,208.461 L78.075,208.584 L77.941,208.696 L77.807,208.799 L77.664,208.894 L77.511,208.983 L77.208,209.152 L76.758,209.342 L76.272,209.501 L75.695,209.647 L75.032,209.774 L74.293,209.879 L73.043,209.994 L71.266,210.089 L69.868,210.16 L68.879,210.219 L67.883,210.316 L66.864,210.463 L65.821,210.682 L64.753,211.014 L63.881,211.379 L63.27,211.705 L62.721,212.057 L62.183,212.463 L61.667,212.929 L61.183,213.454 L60.738,214.031 L60.339,214.656 L59.992,215.321 L59.7,216.018 L59.456,216.741 L59.263,217.487 L59.116,218.254 L59.006,219.04 L58.937,219.847 L58.901,220.679 L58.899,221.153 L58.899,221.153 C59.14,223.593 61.313,225.375 63.753,225.134 C66.192,224.893 67.975,222.72 67.734,220.28 L67.669,220.115 L67.554,219.725 L67.468,219.39 L67.403,219.108 L67.359,218.879 L67.325,218.7 L67.294,218.564 L67.268,218.468 L67.239,218.401 L67.205,218.352 L67.171,218.313 L67.144,218.275 L67.127,218.23 L67.129,218.173 L67.159,218.107 L67.165,218.06 L67.281,217.939 L67.641,217.749 L68.138,217.571 L68.756,217.425 L69.476,217.312 L70.27,217.221 L71.632,217.134 L73.615,217.035 L75.177,216.921 L76.28,216.795 L77.413,216.602 L78.571,216.32 L79.744,215.919 L80.86,215.399 L81.663,214.921 L82.208,214.521 L82.734,214.077 L83.233,213.588 L83.698,213.053 L84.116,212.471 L84.493,211.855 L84.824,211.205 L85.092,210.519 L85.31,209.808 L85.462,209.07 L85.544,208.308 L85.536,207.523 L85.472,206.724 L85.282,205.906 L84.953,205.101 L84.745,204.722 C84.745,204.722 84.745,204.722 84.745,204.722 C84.768,203.604 83.88,202.679 82.762,202.657 C81.643,202.634 80.718,203.522 80.696,204.64 L80.696,204.64" fill="#FFFFFF"/>
        <path d="M80.699,204.802 L80.509,205.181 L80.217,205.989 L80.061,206.805 L80.029,207.6 L80.051,208.38 L80.163,209.133 L80.344,209.86 L80.588,210.559 L80.882,211.23 L81.235,211.864 L81.632,212.463 L82.068,213.025 L82.545,213.541 L83.055,214.011 L83.587,214.437 L84.137,214.82 L84.945,215.278 L86.062,215.777 L87.231,216.161 L88.383,216.432 L89.51,216.619 L90.605,216.743 L92.156,216.858 L94.117,216.964 L95.455,217.059 L96.23,217.155 L96.931,217.275 L97.528,217.425 L98.001,217.606 L98.339,217.795 L98.439,217.912 L98.436,217.956 L98.461,218.019 L98.46,218.075 L98.443,218.12 L98.417,218.161 L98.388,218.205 L98.358,218.262 L98.332,218.34 L98.31,218.45 L98.281,218.601 L98.247,218.796 L98.203,219.041 L98.135,219.339 L98.047,219.689 L97.929,220.093 L97.862,220.267 L97.862,220.267 C97.614,222.706 99.39,224.885 101.829,225.133 C104.268,225.381 106.446,223.605 106.695,221.166 C106.695,221.166 106.695,221.166 106.695,221.166 L106.694,220.693 L106.66,219.862 L106.595,219.055 L106.491,218.27 L106.353,217.506 L106.17,216.762 L105.937,216.04 L105.66,215.341 L105.329,214.674 L104.946,214.045 L104.517,213.459 L104.047,212.923 L103.544,212.445 L103.016,212.024 L102.475,211.658 L101.87,211.315 L101.003,210.929 L99.939,210.575 L98.899,210.339 L97.885,210.177 L96.892,210.069 L95.907,210.001 L94.512,209.921 L92.737,209.818 L91.482,209.701 L90.734,209.595 L90.057,209.467 L89.46,209.319 L88.949,209.156 L88.472,208.959 L88.148,208.786 L87.979,208.69 L87.822,208.59 L87.673,208.481 L87.526,208.364 L87.372,208.236 L87.219,208.086 L87.059,207.908 L86.882,207.704 L86.698,207.459 L86.496,207.173 L86.272,206.84 L86.007,206.458 L85.737,206.014 L85.398,205.51 L84.975,204.915 L84.742,204.561 C84.676,203.444 83.716,202.593 82.6,202.66 C81.483,202.726 80.632,203.685 80.699,204.802 L80.699,204.802" fill="#FFFFFF"/>
      </g>
      <g>
        <path d="M84.906,256.973 L85.129,256.604 L85.532,255.979 L85.854,255.45 L86.105,254.985 L86.354,254.585 L86.565,254.238 L86.755,253.942 L86.926,253.689 L87.094,253.481 L87.241,253.302 L87.385,253.153 L87.527,253.029 L87.66,252.917 L87.795,252.814 L87.937,252.72 L88.091,252.631 L88.394,252.462 L88.844,252.272 L89.33,252.113 L89.907,251.966 L90.57,251.84 L91.309,251.734 L92.559,251.62 L94.336,251.524 L95.734,251.454 L96.722,251.395 L97.719,251.298 L98.737,251.15 L99.781,250.931 L100.849,250.6 L101.721,250.234 L102.332,249.908 L102.88,249.557 L103.419,249.151 L103.935,248.684 L104.419,248.16 L104.864,247.582 L105.263,246.958 L105.61,246.293 L105.902,245.595 L106.146,244.872 L106.339,244.126 L106.486,243.36 L106.595,242.574 L106.665,241.766 L106.701,240.935 L106.703,240.461 L106.703,240.461 C106.462,238.021 104.289,236.238 101.849,236.479 C99.409,236.72 97.627,238.893 97.868,241.333 L97.933,241.499 L98.048,241.888 L98.133,242.223 L98.199,242.505 L98.243,242.734 L98.277,242.914 L98.307,243.049 L98.334,243.146 L98.363,243.213 L98.397,243.261 L98.431,243.3 L98.458,243.338 L98.475,243.384 L98.473,243.44 L98.443,243.506 L98.437,243.554 L98.321,243.675 L97.961,243.865 L97.464,244.042 L96.846,244.188 L96.125,244.302 L95.332,244.393 L93.97,244.48 L91.987,244.579 L90.424,244.693 L89.322,244.819 L88.189,245.012 L87.031,245.294 L85.858,245.694 L84.742,246.215 L83.939,246.693 L83.393,247.092 L82.868,247.537 L82.369,248.026 L81.904,248.561 L81.486,249.142 L81.109,249.759 L80.777,250.409 L80.51,251.095 L80.292,251.806 L80.14,252.544 L80.058,253.305 L80.066,254.09 L80.13,254.889 L80.32,255.707 L80.649,256.513 L80.857,256.891 C80.834,258.01 81.722,258.934 82.84,258.957 C83.959,258.98 84.883,258.091 84.906,256.973 L84.906,256.973" fill="#FFFFFF"/>
        <path d="M84.903,256.812 L85.092,256.432 L85.385,255.625 L85.541,254.808 L85.573,254.014 L85.551,253.234 L85.439,252.481 L85.258,251.753 L85.014,251.055 L84.72,250.383 L84.367,249.749 L83.969,249.151 L83.534,248.589 L83.057,248.073 L82.547,247.603 L82.015,247.177 L81.464,246.794 L80.657,246.336 L79.54,245.837 L78.371,245.453 L77.219,245.181 L76.092,244.994 L74.997,244.871 L73.446,244.756 L71.485,244.65 L70.147,244.555 L69.372,244.458 L68.671,244.339 L68.074,244.189 L67.6,244.008 L67.263,243.818 L67.163,243.701 L67.166,243.657 L67.141,243.594 L67.142,243.539 L67.159,243.493 L67.185,243.453 L67.214,243.409 L67.244,243.352 L67.27,243.273 L67.292,243.164 L67.321,243.013 L67.354,242.818 L67.399,242.573 L67.466,242.275 L67.555,241.925 L67.673,241.521 L67.74,241.346 L67.74,241.346 C67.988,238.907 66.212,236.729 63.773,236.481 C61.334,236.232 59.156,238.008 58.907,240.447 C58.907,240.447 58.907,240.447 58.907,240.447 L58.908,240.92 L58.942,241.752 L59.007,242.559 L59.111,243.343 L59.249,244.108 L59.432,244.852 L59.664,245.574 L59.942,246.272 L60.273,246.94 L60.656,247.569 L61.085,248.155 L61.555,248.69 L62.058,249.169 L62.586,249.589 L63.127,249.956 L63.732,250.298 L64.599,250.685 L65.663,251.038 L66.703,251.275 L67.717,251.436 L68.709,251.545 L69.695,251.612 L71.09,251.693 L72.865,251.796 L74.12,251.913 L74.868,252.019 L75.545,252.146 L76.142,252.295 L76.653,252.458 L77.13,252.654 L77.454,252.828 L77.623,252.923 L77.78,253.024 L77.929,253.133 L78.076,253.25 L78.229,253.377 L78.383,253.528 L78.543,253.705 L78.72,253.91 L78.904,254.155 L79.106,254.441 L79.33,254.773 L79.595,255.155 L79.865,255.6 L80.204,256.103 L80.626,256.699 L80.86,257.053 C80.86,257.053 80.86,257.053 80.86,257.053 C80.926,258.169 81.885,259.021 83.002,258.954 C84.118,258.887 84.969,257.928 84.903,256.812 L84.903,256.812" fill="#FFFFFF"/>
      </g>
    </g>
    <g>
      <path d="M157.314,157.041 L254.903,157.041 L254.903,216.483 L157.314,216.483 L157.314,157.041 z" fill="#FF964C"/>
      <path d="M157.314,234.394 L254.903,234.394 L254.903,293.836 L157.314,293.836 L157.314,234.394 z" fill="#FF964C"/>
      <path d="M157.314,311.603 L254.903,311.603 L254.903,371.044 L157.314,371.044 L157.314,311.603 z" fill="#FF964C"/>
    </g>
    <path d="M372.002,226.934 L458.062,212.598 L480.841,347.083 L395.119,362.054 L372.002,226.934 z" fill="#237FB2"/>
    <path d="M396.905,373.957 L483.251,359.13 L485.879,376.433 L399.838,391.098 L396.905,373.957 z" fill="#5A7E85"/>
    <path d="M317.304,144.661 L343.17,374.24 L325.685,375.337 L300.023,146.604 L317.304,144.661 z" fill="#9841A5"/>
  </g>
</svg>
