<?xml version="1.0" encoding="UTF-8"?>
<!DOCTYPE svg PUBLIC "-//W3C//DTD SVG 1.1//EN" "http://www.w3.org/Graphics/SVG/1.1/DTD/svg11.dtd">
<svg version="1.1" xmlns="http://www.w3.org/2000/svg" xmlns:xlink="http://www.w3.org/1999/xlink" x="0" y="0" width="461.01" height="404.07" viewBox="0, 0, 461.01, 404.07">
  <g id="Layer_1">
    <path d="M164.67,78.77 L164.67,395.975 L68.909,395.975 C49.078,395.975 33,379.898 33,360.065 C33,360.065 33,132.635 33,132.635 C76.765,114.733 120.527,96.824 164.292,78.924 z" fill="#3ECCAB"/>
    <path d="M164.67,78.77 C208.558,110.692 252.453,142.606 296.34,174.53 L296.34,395.975 C296.34,395.975 164.67,395.975 164.67,395.975 z z" fill="#35AD91"/>
    <path d="M428.01,24.905 C428.01,24.905 428.01,360.065 428.01,360.065 C428.01,379.898 411.933,395.975 392.1,395.975 L296.34,395.975 L296.34,174.53 C340.102,124.796 383.87,75.068 427.632,25.334 z" fill="#2C8F77"/>
    <path d="M33.5,124.414 L165.17,79.27 L296.84,171.334 L428.51,25.405" fill-opacity="0" stroke="#FF964C" stroke-width="17.955" stroke-linecap="round"/>
    <path d="M296.34,139.765 C309.562,139.765 320.28,150.483 320.28,163.705 C320.28,176.926 309.562,187.645 296.34,187.645 C283.118,187.645 272.4,176.926 272.4,163.705 C272.4,150.483 283.118,139.765 296.34,139.765 z M33,103.855 C46.222,103.855 56.94,114.573 56.94,127.795 C56.94,141.016 46.222,151.735 33,151.735 C19.778,151.735 9.06,141.016 9.06,127.795 C9.06,114.573 19.778,103.855 33,103.855 z M164.67,61.96 C177.892,61.96 188.61,72.678 188.61,85.9 C188.61,99.122 177.892,109.84 164.67,109.84 C151.449,109.84 140.73,99.122 140.73,85.9 C140.73,72.678 151.449,61.96 164.67,61.96 z M428.01,8.095 C441.232,8.095 451.95,18.813 451.95,32.035 C451.95,45.257 441.232,55.975 428.01,55.975 C414.788,55.975 404.07,45.257 404.07,32.035 C404.07,18.813 414.788,8.095 428.01,8.095 z" fill="#2B4C52"/>
  </g>
</svg>
